<svg width="14" height="15" viewBox="0 0 14 15" fill="none" xmlns="http://www.w3.org/2000/svg">
<path d="M12.7812 15H0.78125C0.582335 15 0.391573 14.9209 0.250918 14.7803C0.11027 14.6397 0.03125 14.4489 0.03125 14.25V0.75C0.03125 0.551085 0.11027 0.360323 0.250918 0.219668C0.391573 0.0790201 0.582335 0 0.78125 0H12.7812C12.9802 0 13.1709 0.0790201 13.3116 0.219668C13.4522 0.360323 13.5312 0.551085 13.5312 0.75V14.25C13.5312 14.4489 13.4522 14.6397 13.3116 14.7803C13.1709 14.9209 12.9802 15 12.7812 15ZM12.0312 13.5V1.5H1.53125V13.5H12.0312ZM3.78125 3.75H9.78125V5.25H3.78125V3.75ZM3.78125 6.75H9.78125V8.25H3.78125V6.75ZM3.78125 9.75H7.53125V11.25H3.78125V9.75Z" fill="#050400"/>
</svg>
