<svg width="14" height="14" viewBox="0 0 14 14" fill="none" xmlns="http://www.w3.org/2000/svg">
<path d="M10.3335 2.00002H13.0002C13.177 2.00002 13.3466 2.07026 13.4716 2.19528C13.5966 2.32031 13.6668 2.48987 13.6668 2.66669V13.3334C13.6668 13.5102 13.5966 13.6798 13.4716 13.8048C13.3466 13.9298 13.177 14 13.0002 14H1.00016C0.823349 14 0.653783 13.9298 0.528756 13.8048C0.403736 13.6798 0.333496 13.5102 0.333496 13.3334V2.66669C0.333496 2.48987 0.403736 2.32031 0.528756 2.19528C0.653783 2.07026 0.823349 2.00002 1.00016 2.00002H3.66683V0.666687H5.00016V2.00002H9.00016V0.666687H10.3335V2.00002ZM12.3335 7.33335H1.66683V12.6667H12.3335V7.33335ZM9.00016 3.33335H5.00016V4.66669H3.66683V3.33335H1.66683V6.00002H12.3335V3.33335H10.3335V4.66669H9.00016V3.33335ZM3.00016 8.66669H4.3335V10H3.00016V8.66669ZM6.3335 8.66669H7.66683V10H6.3335V8.66669ZM9.66683 8.66669H11.0002V10H9.66683V8.66669Z" fill="#050400"/>
</svg>
