<svg width="31" height="31" viewBox="0 0 31 31" fill="none" xmlns="http://www.w3.org/2000/svg">
<g clip-path="url(#clip0_40_1107)">
<path d="M8.74988 19.29H3.87988V3.94H26.6699V19.29H21.4599" stroke="#EC5325" stroke-width="1.5" stroke-linecap="round" stroke-linejoin="round"/>
<path d="M10.12 22.48H1.62C1.14 22.48 0.75 22.09 0.75 21.61V1.62C0.75 1.14 1.14 0.75 1.62 0.75H28.93C29.41 0.75 29.8 1.14 29.8 1.62V21.61C29.8 22.09 29.41 22.48 28.93 22.48H20.48" stroke="#EC5325" stroke-width="1.5" stroke-linecap="round" stroke-linejoin="round"/>
<path d="M15.28 25.11C18.4943 25.11 21.1 22.5043 21.1 19.29C21.1 16.0757 18.4943 13.47 15.28 13.47C12.0657 13.47 9.45996 16.0757 9.45996 19.29C9.45996 22.5043 12.0657 25.11 15.28 25.11Z" stroke="#EC5325" stroke-width="1.5" stroke-linecap="round" stroke-linejoin="round"/>
<path d="M16.3398 25.11L18.4098 30.1L19.5298 27.6L22.1798 28.33L19.2598 23.52" stroke="#EC5325" stroke-width="1.5" stroke-linecap="round" stroke-linejoin="round"/>
<path d="M11.12 23.36L8.75 28.15L11.12 27.5L12.03 29.62L14.13 24.99" stroke="#EC5325" stroke-width="1.5" stroke-linecap="round" stroke-linejoin="round"/>
</g>
<defs>
<clipPath id="clip0_40_1107">
<rect width="30.55" height="30.85" fill="white"/>
</clipPath>
</defs>
</svg>
