<svg width="27" height="23" viewBox="0 0 27 23" fill="none" xmlns="http://www.w3.org/2000/svg">
<g clip-path="url(#clip0_40_1123)">
<path d="M6.15 0.75H15.43C17.14 0.75 18.53 2.14 18.53 3.85V18.78C18.53 20.49 17.14 21.88 15.43 21.88H6.15C3.17 21.88 0.75 19.46 0.75 16.48V6.15C0.75 3.17 3.17 0.75 6.15 0.75Z" stroke="#EC5325" stroke-width="1.5" stroke-linecap="round" stroke-linejoin="round"/>
<path d="M11.9 11.31C13.4796 11.31 14.76 10.0295 14.76 8.45C14.76 6.87046 13.4796 5.59 11.9 5.59C10.3205 5.59 9.04004 6.87046 9.04004 8.45C9.04004 10.0295 10.3205 11.31 11.9 11.31Z" stroke="#EC5325" stroke-width="1.5" stroke-linecap="round" stroke-linejoin="round"/>
<path d="M18.5303 7.36L25.5203 4.38V19.47L18.5303 15.83V7.36Z" stroke="#EC5325" stroke-width="1.5" stroke-linecap="round" stroke-linejoin="round"/>
</g>
<defs>
<clipPath id="clip0_40_1123">
<rect width="26.27" height="22.64" fill="white"/>
</clipPath>
</defs>
</svg>
