<svg width="50" height="50" viewBox="0 0 50 50" fill="none" xmlns="http://www.w3.org/2000/svg">
<path d="M46.9812 0H3.01885C1.35158 0 0 1.35158 0 3.01885V46.9812C0 48.6484 1.35158 50 3.01885 50H46.9812C48.6484 50 50 48.6484 50 46.9812V3.01885C50 1.35158 48.6484 0 46.9812 0Z" fill="white"/>
<path d="M44.5622 22.1883V26.2154L38.5485 22.8604V41.7897L34.4914 40.1453V20.6218L26.9473 16.4326V12.4055L44.5622 22.1883Z" fill="#F05A30"/>
<path d="M26.9473 24.8169L30.8664 22.6383L26.9473 20.4597V24.8169Z" fill="#001D48"/>
<path d="M26.9473 41.7897L31.0044 40.1452V26.5874L26.9473 28.838V41.7897Z" fill="#F05A30"/>
<path d="M23.4665 18.5212V32.205C23.4665 37.4925 19.1633 41.7897 13.8819 41.7897C10.2268 41.7897 7.04595 39.7431 5.4375 36.7303L8.98449 34.7617C9.90875 36.5262 11.7573 37.7325 13.8819 37.7325C16.9247 37.7325 19.4034 35.2478 19.4034 32.205V16.2645L23.4665 18.5212Z" fill="#F05A30"/>
<path d="M23.4663 10.467V14.4941L19.4092 12.2375V8.21033L23.4663 10.467Z" fill="#001D48"/>
</svg>
