<svg width="14" height="15" viewBox="0 0 14 15" fill="none" xmlns="http://www.w3.org/2000/svg">
<path d="M4.97762 6.5115C5.68135 7.74788 6.70525 8.77178 7.94162 9.4755L8.60462 8.547C8.71128 8.39768 8.86885 8.29268 9.04772 8.25173C9.2266 8.21085 9.41418 8.23688 9.57512 8.325C10.6358 8.90468 11.8073 9.25335 13.0124 9.348C13.2005 9.36292 13.376 9.44812 13.504 9.58673C13.632 9.72532 13.7031 9.90705 13.7031 10.0958V13.4423C13.7032 13.628 13.6343 13.8071 13.5099 13.9449C13.3855 14.0828 13.2143 14.1695 13.0296 14.1885C12.6321 14.2297 12.2316 14.25 11.8281 14.25C5.40812 14.25 0.203125 9.045 0.203125 2.625C0.203125 2.2215 0.223375 1.821 0.264625 1.4235C0.283563 1.23878 0.37036 1.06764 0.508218 0.943223C0.646075 0.818813 0.825183 0.749963 1.01088 0.75H4.35737C4.54604 0.749978 4.7278 0.821063 4.86638 0.949088C5.00498 1.07711 5.09022 1.25267 5.10513 1.44075C5.19979 2.64584 5.54845 3.81726 6.12812 4.878C6.21625 5.03892 6.24227 5.22655 6.2014 5.4054C6.16045 5.58424 6.05545 5.74188 5.90613 5.8485L4.97762 6.5115ZM3.08612 6.01875L4.51113 5.001C4.10671 4.12807 3.82964 3.20163 3.68837 2.25H1.71063C1.70613 2.3745 1.70387 2.49975 1.70387 2.625C1.70312 8.217 6.23612 12.75 11.8281 12.75C11.9534 12.75 12.0786 12.7478 12.2031 12.7425V10.7648C11.2515 10.6235 10.325 10.3464 9.45212 9.942L8.43438 11.367C8.02465 11.2078 7.62663 11.0198 7.24337 10.8045L7.19988 10.7797C5.72883 9.94252 4.51058 8.7243 3.67337 7.25325L3.64862 7.20975C3.43331 6.8265 3.24533 6.42847 3.08612 6.01875Z" fill="#050400"/>
</svg>
