<svg width="491" height="305" viewBox="0 0 491 305" fill="none" xmlns="http://www.w3.org/2000/svg">
<g clip-path="url(#clip0_195_243)">
<path d="M130.549 256.29H96.9941V269.255H130.549V256.29Z" stroke="black" stroke-width="1.35" stroke-linecap="round" stroke-linejoin="round"/>
<path d="M129.132 271.056H95.9204C95.0639 271.056 94.376 270.36 94.376 269.509C94.376 268.657 95.0709 267.961 95.9204 267.961H129.132C129.644 267.961 130.065 267.539 130.065 267.025V258.372C130.065 257.859 129.644 257.437 129.132 257.437H95.9204C95.0639 257.437 94.376 256.74 94.376 255.889C94.376 255.038 95.0709 254.341 95.9204 254.341H129.132C131.35 254.341 133.154 256.149 133.154 258.372V267.025C133.154 269.248 131.35 271.063 129.132 271.063V271.056Z" fill="#191919"/>
<path d="M129.132 271.056H95.9204C95.0639 271.056 94.376 270.36 94.376 269.509C94.376 268.657 95.0709 267.961 95.9204 267.961H129.132C129.644 267.961 130.065 267.539 130.065 267.025V258.372C130.065 257.859 129.644 257.437 129.132 257.437H95.9204C95.0639 257.437 94.376 256.74 94.376 255.889C94.376 255.038 95.0709 254.341 95.9204 254.341H129.132C131.35 254.341 133.154 256.149 133.154 258.372V267.025C133.154 269.248 131.35 271.063 129.132 271.063V271.056Z" stroke="black" stroke-width="1.35" stroke-linecap="round" stroke-linejoin="round"/>
<path d="M131.259 260.251H112.432" stroke="black" stroke-width="1.35" stroke-linecap="round" stroke-linejoin="round"/>
<path d="M131.259 264.197H110.052" stroke="black" stroke-width="1.35" stroke-linecap="round" stroke-linejoin="round"/>
<path d="M131.258 274.349H60.5049V297.677H131.258V274.349Z" fill="white"/>
<path d="M131.258 274.349H60.5049V297.677H131.258V274.349Z" stroke="black" stroke-width="1.35" stroke-linecap="round" stroke-linejoin="round"/>
<path d="M60.5049 282.348H91.2029" stroke="black" stroke-width="1.35" stroke-linecap="round" stroke-linejoin="round"/>
<path d="M60.5049 289.699H99.7602" stroke="black" stroke-width="1.35" stroke-linecap="round" stroke-linejoin="round"/>
<path d="M133.484 299.998H63.4462C60.554 299.998 58.1953 297.641 58.1953 294.736V276.783C58.1953 273.885 60.547 271.521 63.4462 271.521H133.491C134.768 271.521 135.8 272.555 135.8 273.835C135.8 275.116 134.768 276.15 133.491 276.15H63.4462C63.1022 276.15 62.8144 276.431 62.8144 276.783V294.736C62.8144 295.081 63.0952 295.369 63.4462 295.369H133.491C134.768 295.369 135.8 296.403 135.8 297.684C135.8 298.964 134.768 299.998 133.491 299.998H133.484Z" fill="url(#paint0_linear_195_243)"/>
<path d="M133.484 299.998H63.4462C60.554 299.998 58.1953 297.641 58.1953 294.736V276.783C58.1953 273.885 60.547 271.521 63.4462 271.521H133.491C134.768 271.521 135.8 272.555 135.8 273.835C135.8 275.116 134.768 276.15 133.491 276.15H63.4462C63.1022 276.15 62.8144 276.431 62.8144 276.783V294.736C62.8144 295.081 63.0952 295.369 63.4462 295.369H133.491C134.768 295.369 135.8 296.403 135.8 297.684C135.8 298.964 134.768 299.998 133.491 299.998H133.484Z" stroke="black" stroke-width="1.35" stroke-linecap="round" stroke-linejoin="round"/>
<path d="M419.362 300.462H311.747H295.222H281.534H278.831H46.0088" stroke="black" stroke-width="1.35" stroke-linecap="round" stroke-linejoin="round"/>
<path d="M158.558 221.101V223.676C158.558 224.992 158.081 226.195 157.295 227.13H129.32V221.094H158.558V221.101Z" fill="white"/>
<path d="M158.558 221.101V223.676C158.558 224.992 158.081 226.195 157.295 227.13H129.32V221.094H158.558V221.101Z" stroke="black" stroke-width="1.35" stroke-linecap="round" stroke-linejoin="round"/>
<path d="M308.945 300.462L234.703 298.493L160.461 300.462C148.646 280.35 158.663 252.125 181.001 229.22C192.331 217.605 206.504 212.737 217.715 210.767C225.367 209.423 231.635 209.423 234.696 209.543C237.518 209.43 243.071 209.423 249.915 210.478C261.379 212.244 276.464 216.986 288.398 229.22C310.736 252.118 320.753 280.35 308.938 300.462H308.945Z" fill="url(#paint1_linear_195_243)"/>
<path d="M308.945 300.462L234.703 298.493L160.461 300.462C148.646 280.35 158.663 252.125 181.001 229.22C192.331 217.605 206.504 212.737 217.715 210.767C225.367 209.423 231.635 209.423 234.696 209.543C237.518 209.43 243.071 209.423 249.915 210.478C261.379 212.244 276.464 216.986 288.398 229.22C310.736 252.118 320.753 280.35 308.938 300.462H308.945Z" stroke="black" stroke-width="1.35" stroke-linecap="round" stroke-linejoin="round"/>
<path d="M158.284 264.704C158.284 264.704 165.634 257.099 174.956 259.913C183.998 262.65 189.965 274.117 189.045 280.462C188.568 283.768 183.724 285.583 178.593 281.63C173.454 277.676 158.291 264.697 158.291 264.697L158.284 264.704Z" fill="#191919"/>
<path d="M158.284 264.704C158.284 264.704 165.634 257.099 174.956 259.913C183.998 262.65 189.965 274.117 189.045 280.462C188.568 283.768 183.724 285.583 178.593 281.63C173.454 277.676 158.291 264.697 158.291 264.697L158.284 264.704Z" stroke="black" stroke-width="1.35" stroke-linecap="round" stroke-linejoin="round"/>
<path d="M311.107 264.704C311.107 264.704 303.758 257.099 294.435 259.913C285.394 262.65 279.427 274.117 280.346 280.462C280.824 283.768 285.667 285.583 290.799 281.63C295.937 277.676 311.1 264.697 311.1 264.697L311.107 264.704Z" fill="#191919"/>
<path d="M311.107 264.704C311.107 264.704 303.758 257.099 294.435 259.913C285.394 262.65 279.427 274.117 280.346 280.462C280.824 283.768 285.667 285.583 290.799 281.63C295.937 277.676 311.1 264.697 311.1 264.697L311.107 264.704Z" stroke="black" stroke-width="1.35" stroke-linecap="round" stroke-linejoin="round"/>
<path d="M236.725 222.6C236.016 222.649 235.264 222.677 234.478 222.677C233.853 222.677 233.257 222.663 232.681 222.635C217.013 221.847 217.722 210.774 217.722 210.774C225.373 209.43 231.642 209.43 234.703 209.55C237.525 209.437 243.078 209.43 249.922 210.485C249.922 210.485 251.817 221.608 236.725 222.607V222.6Z" fill="#191919"/>
<path d="M243.555 202.663V214.327C243.555 214.327 240.818 218.097 233.861 218.097C226.904 218.097 224.152 214.327 224.152 214.327V202.663H243.555Z" fill="white"/>
<path d="M243.555 202.663V214.327C243.555 214.327 240.818 218.097 233.861 218.097C226.904 218.097 224.152 214.327 224.152 214.327V202.663H243.555Z" stroke="black" stroke-width="1.35" stroke-linecap="round" stroke-linejoin="round"/>
<path d="M252.912 184.449C252.912 198.28 244.173 208.783 233.397 208.783C222.622 208.783 213.882 198.287 213.882 184.449C213.882 170.611 222.622 157.259 233.397 157.259C244.173 157.259 252.912 170.618 252.912 184.449Z" fill="white"/>
<path d="M252.912 184.449C252.912 198.28 244.173 208.783 233.397 208.783C222.622 208.783 213.882 198.287 213.882 184.449C213.882 170.611 222.622 157.259 233.397 157.259C244.173 157.259 252.912 170.618 252.912 184.449V184.449Z" stroke="black" stroke-width="1.35" stroke-linecap="round" stroke-linejoin="round"/>
<path d="M256.745 179.096C256.619 179.454 256.486 179.785 256.359 180.08C255.959 181.023 255.573 181.713 255.264 182.177C254.878 182.768 254.618 183.021 254.618 183.021C254.464 183.098 254.309 183.169 254.155 183.239C253.909 183.359 253.664 183.464 253.418 183.57C253.242 183.647 253.067 183.718 252.891 183.781C252.737 183.844 252.576 183.907 252.421 183.964C234.162 190.767 221.175 168.811 221.175 168.811C221.084 178.744 216.332 184.527 214.542 186.356C214.275 186.63 214.071 186.813 213.966 186.911C213.91 186.968 213.875 186.996 213.875 186.996C213.524 186.581 213.194 186.159 212.871 185.744C212.801 185.652 212.731 185.561 212.667 185.469C212.281 184.949 211.923 184.435 211.586 183.922C211.032 183.084 210.54 182.247 210.105 181.41C209.712 180.664 209.368 179.919 209.073 179.173C208.118 176.809 207.592 174.474 207.431 172.201C206.483 158.673 218.515 147.382 229.74 146.285C244.917 144.8 247.886 152.461 247.886 152.461C247.886 152.461 247.893 152.461 247.914 152.454C249.908 151.913 258.163 154.037 258.395 166.552C258.507 172.518 257.658 176.535 256.745 179.103V179.096Z" fill="url(#paint2_linear_195_243)"/>
<path d="M212.169 188.677L209.628 188.051L210.407 184.857C210.112 182.627 208.491 167.945 216.22 158.919C220.123 154.361 225.732 152.053 232.899 152.053C240.972 152.053 247.107 154.607 251.13 159.637C259.076 169.563 255.84 185.49 255.44 187.27L252.885 186.7C253.25 185.04 256.268 170.246 249.087 161.276C245.577 156.893 240.129 154.677 232.892 154.677C226.532 154.677 221.59 156.675 218.206 160.622C210.786 169.268 213.004 184.569 213.026 184.723L213.068 184.977L212.162 188.67L212.169 188.677Z" fill="white"/>
<path d="M212.169 188.677L209.628 188.051L210.407 184.857C210.112 182.627 208.491 167.945 216.22 158.919C220.123 154.361 225.732 152.053 232.899 152.053C240.972 152.053 247.107 154.607 251.13 159.637C259.076 169.563 255.84 185.49 255.44 187.27L252.885 186.7C253.25 185.04 256.268 170.246 249.087 161.276C245.577 156.893 240.129 154.677 232.892 154.677C226.532 154.677 221.59 156.675 218.206 160.622C210.786 169.268 213.004 184.569 213.026 184.723L213.068 184.977L212.162 188.67L212.169 188.677Z" stroke="black" stroke-width="1.35" stroke-linecap="round" stroke-linejoin="round"/>
<path d="M238.613 180.946C238.276 181.523 242.467 183.26 243.064 182.662C243.66 182.064 239.083 180.13 238.613 180.946Z" fill="black"/>
<path d="M239.793 189.078C239.364 189.078 239.021 188.733 239.021 188.304V186.419C239.021 185.99 239.364 185.645 239.793 185.645C240.221 185.645 240.565 185.99 240.565 186.419V188.304C240.565 188.733 240.221 189.078 239.793 189.078Z" fill="black"/>
<path d="M228.006 189.078C227.577 189.078 227.233 188.733 227.233 188.304V186.419C227.233 185.99 227.577 185.645 228.006 185.645C228.434 185.645 228.778 185.99 228.778 186.419V188.304C228.778 188.733 228.434 189.078 228.006 189.078Z" fill="black"/>
<path d="M238.732 189.078C238.732 189.078 239.638 188.361 240.852 189.078" stroke="black" stroke-width="1.35" stroke-linecap="round" stroke-linejoin="round"/>
<path d="M231.86 199.799C231.86 199.799 237.624 199.286 240.593 194.995" stroke="black" stroke-width="1.35" stroke-linecap="round" stroke-linejoin="round"/>
<path d="M229.185 180.946C229.522 181.523 225.331 183.26 224.734 182.662C224.138 182.064 228.714 180.13 229.185 180.946Z" fill="black"/>
<path d="M229.066 189.078C229.066 189.078 228.161 188.361 226.946 189.078" stroke="black" stroke-width="1.35" stroke-linecap="round" stroke-linejoin="round"/>
<path d="M232.084 189.965C232.084 189.965 231.635 192.251 233.86 192.026C236.078 191.794 236.142 189.395 234.541 189.338" stroke="black" stroke-width="1.35" stroke-linecap="round" stroke-linejoin="round"/>
<path d="M173.363 259.962C187.073 264.387 185.571 294.194 177.589 300.469H148.148C148.148 300.469 146.877 282.931 152.128 272.871C157.379 262.804 166.638 257.796 173.37 259.969L173.363 259.962Z" fill="white"/>
<path d="M173.363 259.962C187.073 264.387 185.571 294.194 177.589 300.469H148.148C148.148 300.469 146.877 282.931 152.128 272.871C157.379 262.804 166.638 257.796 173.37 259.969L173.363 259.962Z" stroke="black" stroke-width="1.35" stroke-linecap="round" stroke-linejoin="round"/>
<path d="M157.667 300.462H174.192C175.469 303.734 181.71 303.938 187.881 300.462C187.916 300.441 187.951 300.427 187.986 300.406C189.874 299.337 191.026 297.311 191.026 295.137V294.469C191.026 292.295 189.874 290.276 187.986 289.207C187.972 289.199 187.958 289.192 187.944 289.185C186.575 288.412 182.293 289.446 179.983 288.841C177.709 288.25 173.897 285.513 172.753 284.345C172.739 284.331 172.725 284.31 172.704 284.296C171.63 283.156 168.028 279.956 162.876 282.77C159.478 284.627 158.165 294.18 157.667 300.469V300.462Z" fill="white"/>
<path d="M157.667 300.462H174.192C175.469 303.734 181.71 303.938 187.881 300.462C187.916 300.441 187.951 300.427 187.986 300.406C189.874 299.337 191.026 297.311 191.026 295.137V294.469C191.026 292.295 189.874 290.276 187.986 289.207C187.972 289.199 187.958 289.192 187.944 289.185C186.575 288.412 182.293 289.446 179.983 288.841C177.709 288.25 173.897 285.513 172.753 284.345C172.739 284.331 172.725 284.31 172.704 284.296C171.63 283.156 168.028 279.956 162.876 282.77C159.478 284.627 158.165 294.18 157.667 300.469V300.462Z" stroke="black" stroke-width="1.35" stroke-linecap="round" stroke-linejoin="round"/>
<path d="M188.168 300.301C188.07 300.357 187.979 300.413 187.881 300.462C181.703 303.938 175.469 303.734 174.192 300.462C173.883 299.682 173.862 298.718 174.192 297.585C176.199 290.81 183.142 291.155 183.142 291.155" stroke="black" stroke-width="1.35" stroke-linecap="round" stroke-linejoin="round"/>
<path d="M296.05 259.962C282.34 264.387 283.843 294.194 291.824 300.469H321.266C321.266 300.469 322.536 282.931 317.285 272.871C312.034 262.804 302.775 257.796 296.043 259.969L296.05 259.962Z" fill="white"/>
<path d="M296.05 259.962C282.34 264.387 283.843 294.194 291.824 300.469H321.266C321.266 300.469 322.536 282.931 317.285 272.871C312.034 262.804 302.775 257.796 296.043 259.969L296.05 259.962Z" stroke="black" stroke-width="1.35" stroke-linecap="round" stroke-linejoin="round"/>
<path d="M311.746 300.462H295.221C293.944 303.734 287.703 303.938 281.533 300.462C281.497 300.441 281.462 300.427 281.427 300.406C279.539 299.337 278.388 297.311 278.388 295.137V294.469C278.388 292.295 279.539 290.276 281.427 289.207C281.441 289.199 281.455 289.192 281.469 289.185C282.838 288.412 287.12 289.446 289.43 288.841C291.704 288.25 295.516 285.513 296.66 284.345C296.675 284.331 296.689 284.31 296.71 284.296C297.784 283.156 301.385 279.956 306.538 282.77C309.935 284.627 311.248 294.18 311.746 300.469V300.462Z" fill="white"/>
<path d="M311.746 300.462H295.221C293.944 303.734 287.703 303.938 281.533 300.462C281.497 300.441 281.462 300.427 281.427 300.406C279.539 299.337 278.388 297.311 278.388 295.137V294.469C278.388 292.295 279.539 290.276 281.427 289.207C281.441 289.199 281.455 289.192 281.469 289.185C282.838 288.412 287.12 289.446 289.43 288.841C291.704 288.25 295.516 285.513 296.66 284.345C296.675 284.331 296.689 284.31 296.71 284.296C297.784 283.156 301.385 279.956 306.538 282.77C309.935 284.627 311.248 294.18 311.746 300.469V300.462Z" stroke="black" stroke-width="1.35" stroke-linecap="round" stroke-linejoin="round"/>
<path d="M286.265 291.155C286.265 291.155 293.214 290.81 295.215 297.585C295.552 298.718 295.531 299.682 295.215 300.462C293.937 303.734 287.697 303.938 281.526 300.462C281.428 300.406 281.337 300.357 281.238 300.301" stroke="black" stroke-width="1.35" stroke-linecap="round" stroke-linejoin="round"/>
<path d="M317.924 301.131C317.924 301.131 321.406 303.072 322.796 298.443C324.396 293.104 321.729 282.601 318.872 282.031C316.021 281.461 314.421 285.576 314.421 285.576L317.924 301.131Z" fill="white"/>
<path d="M317.924 301.131C317.924 301.131 321.406 303.072 322.796 298.443C324.396 293.104 321.729 282.601 318.872 282.031C316.021 281.461 314.421 285.576 314.421 285.576L317.924 301.131V301.131Z" stroke="black" stroke-width="1.35" stroke-linecap="round" stroke-linejoin="round"/>
<path d="M305.352 284.718C305.352 284.718 307.233 280.856 312.287 281.201C317.342 281.545 319.279 299.492 318.619 301.722C317.959 303.952 310.918 305.394 309.978 301.187C309.037 296.987 305.359 284.718 305.359 284.718H305.352Z" fill="white"/>
<path d="M305.352 284.718C305.352 284.718 307.233 280.856 312.287 281.201C317.342 281.545 319.279 299.492 318.619 301.722C317.959 303.952 310.918 305.394 309.978 301.187C309.037 296.987 305.359 284.718 305.359 284.718H305.352Z" stroke="black" stroke-width="1.35" stroke-linecap="round" stroke-linejoin="round"/>
<path d="M310.798 300.462C310.728 301.159 310.588 301.743 310.356 302.172C308.552 305.591 301.146 305.499 299.433 300.462C299.405 300.378 299.384 300.294 299.356 300.209C298.282 296.523 297.208 288.728 296.66 284.338C296.674 284.324 296.688 284.303 296.709 284.289C297.783 283.149 301.385 279.948 306.537 282.762C308.236 284.781 311.311 295.51 310.798 300.462Z" fill="white"/>
<path d="M296.66 284.338C296.66 284.338 296.688 284.303 296.709 284.289C297.783 283.149 301.385 279.948 306.537 282.762C308.236 284.781 311.311 295.51 310.798 300.462C310.728 301.159 310.588 301.743 310.356 302.172C308.552 305.591 301.146 305.499 299.433 300.462C299.405 300.378 299.384 300.294 299.356 300.209C298.647 297.775 297.938 293.54 297.376 289.685" stroke="black" stroke-width="1.35" stroke-linecap="round" stroke-linejoin="round"/>
<path d="M151.489 301.131C151.489 301.131 148.007 303.072 146.617 298.443C145.017 293.104 147.684 282.601 150.541 282.031C153.391 281.461 154.992 285.576 154.992 285.576L151.489 301.131Z" fill="white"/>
<path d="M151.489 301.131C151.489 301.131 148.007 303.072 146.617 298.443C145.017 293.104 147.684 282.601 150.541 282.031C153.391 281.461 154.992 285.576 154.992 285.576L151.489 301.131V301.131Z" stroke="black" stroke-width="1.35" stroke-linecap="round" stroke-linejoin="round"/>
<path d="M164.061 284.718C164.061 284.718 162.18 280.856 157.126 281.201C152.071 281.545 150.134 299.492 150.794 301.722C151.454 303.952 158.494 305.394 159.435 301.187C160.376 296.98 164.054 284.718 164.054 284.718H164.061Z" fill="white"/>
<path d="M164.061 284.718C164.061 284.718 162.18 280.856 157.126 281.201C152.071 281.545 150.134 299.492 150.794 301.722C151.454 303.952 158.494 305.394 159.435 301.187C160.376 296.98 164.054 284.718 164.054 284.718H164.061Z" stroke="black" stroke-width="1.35" stroke-linecap="round" stroke-linejoin="round"/>
<path d="M158.614 300.462C158.685 301.159 158.825 301.743 159.057 302.172C160.861 305.591 168.267 305.499 169.98 300.462C170.008 300.378 170.029 300.294 170.057 300.209C171.131 296.523 172.205 288.728 172.753 284.338C172.739 284.324 172.724 284.303 172.703 284.289C171.629 283.149 168.028 279.948 162.876 282.762C161.177 284.781 158.102 295.51 158.614 300.462Z" fill="white"/>
<path d="M172.753 284.338C172.753 284.338 172.724 284.303 172.703 284.289C171.629 283.149 168.028 279.948 162.876 282.762C161.177 284.781 158.102 295.51 158.614 300.462C158.685 301.159 158.825 301.743 159.057 302.172C160.861 305.591 168.267 305.499 169.98 300.462C170.008 300.378 170.029 300.294 170.057 300.209C170.717 297.937 171.377 294.103 171.917 290.466" stroke="black" stroke-width="1.35" stroke-linecap="round" stroke-linejoin="round"/>
<path d="M247.893 152.454C237.623 144.448 212.737 144.561 207.437 172.194C206.49 158.666 218.522 147.375 229.747 146.278C244.924 144.793 247.893 152.454 247.893 152.454Z" fill="white"/>
<path d="M256.745 179.096C256.619 179.454 256.486 179.785 256.359 180.08C255.959 181.023 255.573 181.713 255.264 182.177C254.878 182.768 254.618 183.021 254.618 183.021C254.464 183.098 254.309 183.169 254.155 183.239C253.909 183.359 253.664 183.464 253.418 183.57C253.242 183.647 253.067 183.718 252.891 183.781C252.737 183.844 252.576 183.907 252.421 183.964C234.162 190.767 221.175 168.811 221.175 168.811C221.084 178.744 216.332 184.527 214.542 186.356C214.275 186.63 214.071 186.813 213.966 186.911C213.91 186.968 213.875 186.996 213.875 186.996C213.524 186.581 213.194 186.159 212.871 185.744C212.801 185.652 212.731 185.561 212.667 185.469C212.281 184.949 211.923 184.435 211.586 183.922C211.032 183.084 210.54 182.247 210.105 181.41C209.712 180.664 209.368 179.919 209.073 179.173C208.118 176.809 207.592 174.474 207.431 172.201C206.483 158.673 218.515 147.382 229.74 146.285C244.917 144.8 247.886 152.461 247.886 152.461C247.886 152.461 247.893 152.461 247.914 152.454C249.908 151.913 258.163 154.037 258.395 166.552C258.507 172.518 257.658 176.535 256.745 179.103V179.096Z" stroke="black" stroke-width="1.35" stroke-linecap="round" stroke-linejoin="round"/>
<path d="M254.545 178.896L258.468 179.242C260.195 179.394 261.471 180.919 261.319 182.65L260.763 188.971C260.482 192.181 257.652 194.551 254.456 194.269L253.204 194.159L254.545 178.896Z" fill="white"/>
<path d="M254.457 194.277L253.453 194.185C252.639 194.115 252.021 193.433 252.028 192.61L252.063 187.298C252.085 184.315 252.948 181.403 254.556 178.899L255.805 179.011C255.805 179.011 254.429 185.547 254.464 194.277H254.457Z" fill="black"/>
<path d="M213.454 194.163L212.203 194.276C209.001 194.567 206.171 192.196 205.882 188.995L205.31 182.675C205.153 180.944 206.425 179.416 208.152 179.259L212.074 178.903L213.454 194.163Z" fill="white"/>
<path d="M254.545 178.896L258.468 179.242C260.195 179.394 261.471 180.919 261.319 182.65L260.763 188.971C260.482 192.181 257.652 194.551 254.456 194.269L253.204 194.159L254.545 178.896V178.896Z" stroke="black" stroke-width="1.35" stroke-linecap="round" stroke-linejoin="round"/>
<path d="M213.454 194.163L212.203 194.276C209.001 194.567 206.171 192.196 205.882 188.995L205.31 182.675C205.153 180.944 206.425 179.416 208.152 179.259L212.074 178.903L213.454 194.163Z" stroke="black" stroke-width="1.35" stroke-linecap="round" stroke-linejoin="round"/>
<path d="M212.211 194.27L213.215 194.178C214.029 194.108 214.647 193.419 214.64 192.603L214.591 187.291C214.563 184.308 213.692 181.396 212.078 178.892L210.828 179.004C210.828 179.004 212.218 185.54 212.211 194.27Z" fill="black"/>
<path d="M254.457 194.277L253.453 194.185C252.639 194.115 252.021 193.433 252.028 192.61L252.063 187.298C252.085 184.315 252.948 181.403 254.556 178.899L255.805 179.011C255.805 179.011 254.429 185.547 254.464 194.277H254.457Z" stroke="black" stroke-width="1.35" stroke-linecap="round" stroke-linejoin="round"/>
<path d="M212.211 194.27L213.215 194.178C214.029 194.108 214.647 193.419 214.64 192.603L214.591 187.291C214.563 184.308 213.692 181.396 212.078 178.892L210.828 179.004C210.828 179.004 212.218 185.54 212.211 194.27V194.27Z" stroke="black" stroke-width="1.35" stroke-linecap="round" stroke-linejoin="round"/>
<path d="M464.472 54.4998H306.932C302.938 54.4998 299.701 57.7439 299.701 61.7457V225.4C299.701 229.402 302.938 232.646 306.932 232.646H464.472C468.466 232.646 471.703 229.402 471.703 225.4V61.7457C471.703 57.7439 468.466 54.4998 464.472 54.4998Z" fill="white"/>
<path d="M358.598 232.646H306.932C302.937 232.646 299.701 229.403 299.701 225.4V127.22" stroke="black" stroke-width="1.35" stroke-linecap="round" stroke-linejoin="round"/>
<path d="M299.701 76.2799V61.7457C299.701 57.7429 302.937 54.4998 306.932 54.4998H464.479C468.474 54.4998 471.71 57.7429 471.71 61.7457V211.977" stroke="black" stroke-width="1.35" stroke-linecap="round" stroke-linejoin="round"/>
<path d="M471.703 61.7457V68.9144H299.701V61.7457C299.701 57.7429 302.937 54.4998 306.932 54.4998H464.479C468.474 54.4998 471.71 57.7429 471.71 61.7457H471.703Z" fill="url(#paint3_linear_195_243)"/>
<path d="M471.703 61.7457V68.9144H299.701V61.7457C299.701 57.7429 302.937 54.4998 306.932 54.4998H464.479C468.474 54.4998 471.71 57.7429 471.71 61.7457H471.703Z" stroke="black" stroke-width="1.35" stroke-linecap="round" stroke-linejoin="round"/>
<path d="M450.11 61.5909C450.11 62.9768 448.987 64.1024 447.604 64.1024C446.221 64.1024 445.098 62.9768 445.098 61.5909C445.098 60.2051 446.221 59.0795 447.604 59.0795C448.987 59.0795 450.11 60.2051 450.11 61.5909Z" fill="white"/>
<path d="M465.771 61.5909C465.771 62.9768 464.648 64.1024 463.265 64.1024C461.882 64.1024 460.759 62.9768 460.759 61.5909C460.759 60.2051 461.882 59.0795 463.265 59.0795C464.648 59.0795 465.771 60.2051 465.771 61.5909Z" fill="black"/>
<path d="M434.441 61.5909C434.441 62.9768 433.318 64.1024 431.935 64.1024C430.552 64.1024 429.429 62.9768 429.429 61.5909C429.429 60.2051 430.552 59.0795 431.935 59.0795C433.318 59.0795 434.441 60.2051 434.441 61.5909Z" fill="white"/>
<path d="M276.422 296.727H192.542L185.739 245.527C185.564 244.204 186.589 243.029 187.923 243.029H281.042C282.375 243.029 283.4 244.204 283.225 245.527L276.422 296.727Z" fill="#191919"/>
<path d="M276.422 296.727H192.542L185.739 245.527C185.564 244.204 186.589 243.029 187.923 243.029H281.042C282.375 243.029 283.4 244.204 283.225 245.527L276.422 296.727V296.727Z" stroke="black" stroke-width="1.35" stroke-linecap="round" stroke-linejoin="round"/>
<path d="M276.423 295.01H192.542V300.462H276.423V295.01Z" fill="white"/>
<path d="M276.423 295.01H192.542V300.462H276.423V295.01Z" stroke="black" stroke-width="1.35" stroke-linecap="round" stroke-linejoin="round"/>
<path d="M232.689 279.59C237.698 279.59 241.759 275.52 241.759 270.501C241.759 265.481 237.698 261.411 232.689 261.411C227.68 261.411 223.619 265.481 223.619 270.501C223.619 275.52 227.68 279.59 232.689 279.59Z" fill="white"/>
<path d="M341.139 81.521H270.014C266.841 81.521 264.271 84.0958 264.271 87.2756V120.284C264.271 123.463 266.841 126.038 270.014 126.038H333.733L342.249 137.948C343.316 139.447 345.042 140.333 346.875 140.333V87.2756C346.875 84.0958 344.305 81.521 341.132 81.521H341.139ZM285.703 105.911C284.32 105.911 283.197 104.786 283.197 103.4C283.197 102.014 284.32 100.888 285.703 100.888C287.086 100.888 288.209 102.014 288.209 103.4C288.209 104.786 287.086 105.911 285.703 105.911ZM304.257 105.911C302.874 105.911 301.751 104.786 301.751 103.4C301.751 102.014 302.874 100.888 304.257 100.888C305.64 100.888 306.763 102.014 306.763 103.4C306.763 104.786 305.64 105.911 304.257 105.911ZM322.81 105.911C321.428 105.911 320.304 104.786 320.304 103.4C320.304 102.014 321.428 100.888 322.81 100.888C324.193 100.888 325.317 102.014 325.317 103.4C325.317 104.786 324.193 105.911 322.81 105.911Z" fill="url(#paint4_linear_195_243)"/>
<path d="M336.38 76.2799H265.254C262.081 76.2799 259.512 78.8547 259.512 82.0345V115.042C259.512 118.222 262.081 120.797 265.254 120.797H328.974L337.489 132.707C338.556 134.206 340.283 135.092 342.115 135.092V82.0345C342.115 78.8547 339.546 76.2799 336.373 76.2799H336.38ZM280.943 100.67C279.561 100.67 278.437 99.5445 278.437 98.1586C278.437 96.7727 279.561 95.6471 280.943 95.6471C282.326 95.6471 283.45 96.7727 283.45 98.1586C283.45 99.5445 282.326 100.67 280.943 100.67ZM299.497 100.67C298.114 100.67 296.991 99.5445 296.991 98.1586C296.991 96.7727 298.114 95.6471 299.497 95.6471C300.88 95.6471 302.003 96.7727 302.003 98.1586C302.003 99.5445 300.88 100.67 299.497 100.67ZM318.051 100.67C316.668 100.67 315.545 99.5445 315.545 98.1586C315.545 96.7727 316.668 95.6471 318.051 95.6471C319.434 95.6471 320.557 96.7727 320.557 98.1586C320.557 99.5445 319.434 100.67 318.051 100.67Z" stroke="black" stroke-width="1.35" stroke-linecap="round" stroke-linejoin="round"/>
<path d="M447.477 91.7498C447.477 93.1356 446.354 94.2612 444.971 94.2612C443.588 94.2612 442.465 93.1356 442.465 91.7498C442.465 90.3639 443.588 89.2383 444.971 89.2383C446.354 89.2383 447.477 90.3639 447.477 91.7498Z" fill="url(#paint5_linear_195_243)"/>
<path d="M466.031 91.7498C466.031 93.1356 464.908 94.2612 463.525 94.2612C462.142 94.2612 461.019 93.1356 461.019 91.7498C461.019 90.3639 462.142 89.2383 463.525 89.2383C464.908 89.2383 466.031 90.3639 466.031 91.7498Z" fill="url(#paint6_linear_195_243)"/>
<path d="M484.584 91.7498C484.584 93.1356 483.461 94.2612 482.078 94.2612C480.695 94.2612 479.572 93.1356 479.572 91.7498C479.572 90.3639 480.695 89.2383 482.078 89.2383C483.461 89.2383 484.584 90.3639 484.584 91.7498Z" fill="url(#paint7_linear_195_243)"/>
<path d="M447.477 108.416C447.477 109.801 446.354 110.927 444.971 110.927C443.588 110.927 442.465 109.801 442.465 108.416C442.465 107.03 443.588 105.904 444.971 105.904C446.354 105.904 447.477 107.03 447.477 108.416Z" fill="url(#paint8_linear_195_243)"/>
<path d="M466.031 108.416C466.031 109.801 464.908 110.927 463.525 110.927C462.142 110.927 461.019 109.801 461.019 108.416C461.019 107.03 462.142 105.904 463.525 105.904C464.908 105.904 466.031 107.03 466.031 108.416Z" fill="url(#paint9_linear_195_243)"/>
<path d="M484.584 108.416C484.584 109.801 483.461 110.927 482.078 110.927C480.695 110.927 479.572 109.801 479.572 108.416C479.572 107.03 480.695 105.904 482.078 105.904C483.461 105.904 484.584 107.03 484.584 108.416Z" fill="url(#paint10_linear_195_243)"/>
<path d="M447.477 125.088C447.477 126.474 446.354 127.6 444.971 127.6C443.588 127.6 442.465 126.474 442.465 125.088C442.465 123.702 443.588 122.577 444.971 122.577C446.354 122.577 447.477 123.702 447.477 125.088Z" fill="url(#paint11_linear_195_243)"/>
<path d="M466.031 125.088C466.031 126.474 464.908 127.6 463.525 127.6C462.142 127.6 461.019 126.474 461.019 125.088C461.019 123.702 462.142 122.577 463.525 122.577C464.908 122.577 466.031 123.702 466.031 125.088Z" fill="url(#paint12_linear_195_243)"/>
<path d="M484.584 125.088C484.584 126.474 483.461 127.6 482.078 127.6C480.695 127.6 479.572 126.474 479.572 125.088C479.572 123.702 480.695 122.577 482.078 122.577C483.461 122.577 484.584 123.702 484.584 125.088Z" fill="url(#paint13_linear_195_243)"/>
<path d="M360.612 45.2347C360.612 45.2347 334.912 11.27 256.451 14.8719C177.989 18.4737 151.496 56.8845 196.094 65.7697C240.256 74.5704 267.886 53.4726 228.076 44.7211C188.266 35.9697 137.934 57.588 117.394 91.7497" stroke="black" stroke-width="1.69" stroke-linecap="round" stroke-linejoin="round"/>
<path d="M226.02 102.365H186.308C184.729 102.365 183.458 103.646 183.458 105.222V126.038C183.458 127.621 184.736 128.894 186.308 128.894H216.781L224.742 138.152C225.184 138.666 226.027 138.349 226.027 137.674V128.894C227.606 128.894 228.877 127.614 228.877 126.038V105.222C228.877 103.639 227.599 102.365 226.027 102.365H226.02ZM206.16 122.95C202.278 122.95 195.785 111.532 199.653 109.112C203.303 106.826 206.16 111.173 206.16 111.173C206.16 111.173 209.01 106.826 212.668 109.112C216.536 111.532 210.042 122.95 206.16 122.95Z" fill="url(#paint14_linear_195_243)"/>
<path d="M222.215 105.222H182.503C180.924 105.222 179.653 106.502 179.653 108.078V128.894C179.653 130.477 180.931 131.75 182.503 131.75H212.977L220.937 141.008C221.38 141.522 222.222 141.205 222.222 140.53V131.75C223.801 131.75 225.072 130.47 225.072 128.894V108.078C225.072 106.495 223.794 105.222 222.222 105.222H222.215ZM202.356 125.806C198.474 125.806 191.98 114.388 195.848 111.968C199.499 109.682 202.356 114.029 202.356 114.029C202.356 114.029 205.206 109.682 208.863 111.968C212.731 114.388 206.238 125.806 202.356 125.806Z" stroke="black" stroke-width="1.35" stroke-linecap="round" stroke-linejoin="round"/>
<path d="M372.722 12.7121V14.3794L382.865 23.1238C383.904 24.0243 385.519 23.2786 385.519 21.9068V3.51742C385.519 2.13857 383.904 1.3999 382.865 2.30037L372.722 11.0448V12.7121Z" fill="url(#paint15_linear_195_243)"/>
<path d="M374.982 9.58154H370.447V15.8356H374.982V9.58154Z" fill="black"/>
<path d="M372.244 11.284V12.9513L382.388 21.6957C383.427 22.5962 385.041 21.8505 385.041 20.4787V2.08932C385.041 0.710469 383.427 -0.0282 382.388 0.872273L372.244 9.61671V11.284Z" stroke="black" stroke-width="1.35" stroke-linecap="round" stroke-linejoin="round"/>
<path d="M374.512 8.15344H369.978V14.4075H374.512V8.15344Z" stroke="black" stroke-width="1.35" stroke-linecap="round" stroke-linejoin="round"/>
<path d="M367.429 4.26306H352.498C350.013 4.26306 347.998 6.28199 347.998 8.77246V16.6516C347.998 19.1421 350.013 21.161 352.498 21.161H367.429C369.914 21.161 371.929 19.1421 371.929 16.6516V8.77246C371.929 6.28199 369.914 4.26306 367.429 4.26306Z" fill="url(#paint16_linear_195_243)"/>
<path d="M363.076 12.7121C363.076 14.4357 361.68 15.8357 359.96 15.8357C358.24 15.8357 356.843 14.4357 356.843 12.7121C356.843 10.9886 358.24 9.58862 359.96 9.58862C361.68 9.58862 363.076 10.9886 363.076 12.7121Z" fill="white"/>
<path d="M366.952 2.83508H352.02C349.535 2.83508 347.521 4.85401 347.521 7.34448V15.2236C347.521 17.7141 349.535 19.733 352.02 19.733H366.952C369.437 19.733 371.451 17.7141 371.451 15.2236V7.34448C371.451 4.85401 369.437 2.83508 366.952 2.83508Z" stroke="black" stroke-width="1.35" stroke-linecap="round" stroke-linejoin="round"/>
<path d="M362.607 11.277C362.607 13.0005 361.21 14.4005 359.49 14.4005C357.77 14.4005 356.373 13.0005 356.373 11.277C356.373 9.5534 357.77 8.15344 359.49 8.15344C361.21 8.15344 362.607 9.5534 362.607 11.277Z" stroke="black" stroke-width="1.35" stroke-linecap="round" stroke-linejoin="round"/>
<path d="M158.558 106.973V223.683C158.558 224.999 158.081 226.202 157.295 227.137C156.312 228.298 154.852 229.037 153.216 229.037H36.7347C33.7793 229.037 31.3926 226.638 31.3926 223.683V106.973C31.3926 104.019 33.7864 101.62 36.7347 101.62H153.216C156.164 101.62 158.558 104.019 158.558 106.973Z" stroke="black" stroke-width="1.35" stroke-linecap="round" stroke-linejoin="round"/>
<path d="M158.558 106.973V116.801H31.3926V106.973C31.3926 104.019 33.7864 101.62 36.7347 101.62H153.216C156.164 101.62 158.558 104.019 158.558 106.973Z" fill="#191919"/>
<path d="M123.346 109.457C123.346 110.843 122.223 111.968 120.84 111.968C119.457 111.968 118.334 110.843 118.334 109.457C118.334 108.071 119.457 106.945 120.84 106.945C122.223 106.945 123.346 108.071 123.346 109.457Z" fill="white"/>
<path d="M139.015 109.457C139.015 110.843 137.892 111.968 136.509 111.968C135.126 111.968 134.003 110.843 134.003 109.457C134.003 108.071 135.126 106.945 136.509 106.945C137.892 106.945 139.015 108.071 139.015 109.457Z" fill="white"/>
<path d="M154.676 109.457C154.676 110.843 153.553 111.968 152.17 111.968C150.787 111.968 149.664 110.843 149.664 109.457C149.664 108.071 150.787 106.945 152.17 106.945C153.553 106.945 154.676 108.071 154.676 109.457Z" fill="white"/>
<path d="M154.676 109.457C154.676 110.843 153.553 111.968 152.17 111.968C150.787 111.968 149.664 110.843 149.664 109.457C149.664 108.071 150.787 106.945 152.17 106.945C153.553 106.945 154.676 108.071 154.676 109.457Z" fill="url(#paint17_linear_195_243)"/>
<path d="M158.558 106.973V116.801H31.3926V106.973C31.3926 104.019 33.7864 101.62 36.7347 101.62H153.216C156.164 101.62 158.558 104.019 158.558 106.973Z" stroke="black" stroke-width="1.35" stroke-linecap="round" stroke-linejoin="round"/>
<path d="M107.018 66.3817C106.646 66.6209 106.26 66.839 105.867 67.0219H93.8207V61.2884H96.6497L89.7632 53.4093L82.8766 61.2884H85.7127V67.0219H72.8803C70.7112 64.5667 69.3984 61.3447 69.3984 57.8132C69.3984 56.1107 69.7073 54.4786 70.2689 52.9661C72.2275 47.6758 77.3099 43.9121 83.2698 43.9121C87.3202 43.9121 90.9636 45.6568 93.4978 48.4285C94.4946 47.514 95.8775 46.9512 97.4008 46.9512C100.426 46.9512 102.883 49.1602 102.883 51.8897V51.9249C105.944 51.4958 108.906 52.6003 110.472 55.0484C110.907 55.7238 111.202 56.4554 111.363 57.2152C112.072 60.4513 110.409 64.1939 107.011 66.3747L107.018 66.3817Z" fill="url(#paint18_linear_195_243)"/>
<path d="M109.398 68.049C109.019 68.2881 108.64 68.5062 108.247 68.6891H96.2006V62.9557H99.0296L92.1431 55.0765L85.2565 62.9557H88.0926V68.6891H75.2602C73.091 66.2339 71.7783 63.0119 71.7783 59.4804C71.7783 57.7779 72.0872 56.1458 72.6488 54.6333C74.6073 49.343 79.6898 45.5793 85.6496 45.5793C89.7001 45.5793 93.3435 47.324 95.8776 50.0958C96.8745 49.1812 98.2574 48.6184 99.7807 48.6184C102.806 48.6184 105.263 50.8274 105.263 53.557V53.5921C108.324 53.163 111.286 54.2675 112.852 56.7157C113.287 57.391 113.582 58.1226 113.743 58.8824C114.452 62.1185 112.789 65.8611 109.391 68.0419L109.398 68.049Z" stroke="black" stroke-width="1.35" stroke-linecap="round" stroke-linejoin="round"/>
<path d="M172.683 13.5563L175.308 19.3883L193.398 2.23706L172.683 13.5563Z" fill="url(#paint19_linear_195_243)"/>
<path d="M172.683 13.5563L175.308 19.3883L193.398 2.23706L172.683 13.5563Z" stroke="black" stroke-width="1.02" stroke-linecap="round" stroke-linejoin="round"/>
<path d="M173.658 13.5984L175.308 19.3882L172.682 13.5562L172.401 13.4085L173.672 13.113L173.658 13.5984Z" fill="black"/>
<path d="M193.398 2.23706L184.841 14.0698L173.658 13.5985L172.682 13.5563L172.402 13.4086L166.807 10.5242L193.398 2.23706Z" fill="url(#paint20_linear_195_243)"/>
<path d="M193.398 2.23706L184.841 14.0698L173.658 13.5985L172.682 13.5563L172.402 13.4086L166.807 10.5242L193.398 2.23706Z" stroke="black" stroke-width="1.02" stroke-linecap="round" stroke-linejoin="round"/>
<path d="M193.398 2.23706L173.658 13.5985L172.682 13.5563L172.401 13.4086L193.398 2.23706Z" fill="black"/>
<path d="M154.754 147.91H155.54C156.642 147.91 157.534 148.803 157.534 149.908V163.52H154.754V147.91Z" fill="white"/>
<path d="M140.504 150.112L129.434 163.78H135.822C135.787 162.402 136.159 161.044 136.903 159.883L140.504 154.234V150.119V150.112Z" fill="white"/>
<path d="M154.754 147.91H155.54C156.642 147.91 157.534 148.803 157.534 149.908V163.52H154.754V147.91Z" stroke="black" stroke-width="1.35" stroke-linecap="round" stroke-linejoin="round"/>
<path d="M140.504 150.112L129.434 163.78H135.822C135.787 162.402 136.159 161.044 136.903 159.883L140.504 154.234V150.119V150.112Z" stroke="black" stroke-width="1.35" stroke-linecap="round" stroke-linejoin="round"/>
<path d="M151.118 144.047H143.93V163.52H151.118V144.047Z" fill="#191919"/>
<path d="M151.118 144.047H143.93V163.52H151.118V144.047Z" stroke="black" stroke-width="1.35" stroke-linecap="round" stroke-linejoin="round"/>
<path d="M144.786 141.817H139.219V163.52H144.786V141.817Z" fill="url(#paint21_linear_195_243)"/>
<path d="M144.786 141.817H139.219V163.52H144.786V141.817Z" stroke="black" stroke-width="1.35" stroke-linecap="round" stroke-linejoin="round"/>
<path d="M155.744 141.817H150.177V163.52H155.744V141.817Z" fill="url(#paint22_linear_195_243)"/>
<path d="M155.744 141.817H150.177V163.52H155.744V141.817Z" stroke="black" stroke-width="1.35" stroke-linecap="round" stroke-linejoin="round"/>
<path d="M158.559 162.922H115.766V165.328H158.559V162.922Z" fill="white"/>
<path d="M158.559 162.922H115.766V165.328H158.559V162.922Z" stroke="black" stroke-width="1.35" stroke-linecap="round" stroke-linejoin="round"/>
<path d="M57.8227 221.101V264.303H40.7012" stroke="black" stroke-width="1.35" stroke-linecap="round" stroke-linejoin="round"/>
<path d="M57.8227 244.528H40.7012" stroke="black" stroke-width="1.35" stroke-linecap="round" stroke-linejoin="round"/>
<path d="M25.1244 247.152H0.477539" stroke="black" stroke-width="1.35" stroke-linecap="round" stroke-linejoin="round"/>
<path d="M27.1815 240.975H18.2803" stroke="black" stroke-width="1.35" stroke-linecap="round" stroke-linejoin="round"/>
<path d="M25.1244 267.011H0.477539" stroke="black" stroke-width="1.35" stroke-linecap="round" stroke-linejoin="round"/>
<path d="M27.1815 260.835H18.2803" stroke="black" stroke-width="1.35" stroke-linecap="round" stroke-linejoin="round"/>
<path d="M42.7237 238.745H31.3936V250.099H42.7237V238.745Z" fill="url(#paint23_linear_195_243)"/>
<path d="M42.7237 258.626H31.3936V269.98H42.7237V258.626Z" fill="url(#paint24_linear_195_243)"/>
<path d="M41.0596 236.599H29.7295V247.954H41.0596V236.599Z" stroke="black" stroke-width="1.35" stroke-linecap="round" stroke-linejoin="round"/>
<path d="M41.0596 256.487H29.7295V267.841H41.0596V256.487Z" stroke="black" stroke-width="1.35" stroke-linecap="round" stroke-linejoin="round"/>
<path d="M330.686 163.169C330.686 163.169 323.245 141.74 323.238 139.496C323.238 136.436 327.549 134.607 330.174 136.063C333.993 138.18 339.847 164.54 339.847 164.54L330.686 163.169Z" fill="white"/>
<path d="M330.686 163.169C330.686 163.169 323.245 141.74 323.238 139.496C323.238 136.436 327.549 134.607 330.174 136.063C333.993 138.18 339.847 164.54 339.847 164.54L330.686 163.169V163.169Z" stroke="black" stroke-width="1.35" stroke-linecap="round" stroke-linejoin="round"/>
<path d="M346.881 170.654C337.678 178.266 326.264 179.131 321.448 179.124C319.637 169.901 318.366 162.571 318.366 162.571L340.963 157.66C340.963 157.66 343.364 162.803 346.881 170.661V170.654Z" fill="white"/>
<path d="M346.881 170.654C337.678 178.266 326.264 179.131 321.448 179.124C319.637 169.901 318.366 162.571 318.366 162.571L340.963 157.66C340.963 157.66 343.364 162.803 346.881 170.661V170.654Z" stroke="black" stroke-width="1.35" stroke-linecap="round" stroke-linejoin="round"/>
<path d="M319.988 156.823C319.988 156.823 320.76 153.566 324.27 152.532C327.78 151.505 331.031 158.195 331.803 161.881C332.575 165.567 331.971 168.74 328.553 168.832C325.127 168.916 324.186 164.801 323.505 162.402C322.817 160.003 319.995 156.823 319.995 156.823H319.988Z" fill="white"/>
<path d="M319.988 156.823C319.988 156.823 320.76 153.566 324.27 152.532C327.78 151.505 331.031 158.195 331.803 161.881C332.575 165.567 331.971 168.74 328.553 168.832C325.127 168.916 324.186 164.801 323.505 162.402C322.817 160.003 319.995 156.823 319.995 156.823H319.988Z" stroke="black" stroke-width="1.35" stroke-linecap="round" stroke-linejoin="round"/>
<path d="M403.026 186.243L369.38 217.464L367.414 219.955C364.775 222.67 359.278 226.61 349.696 226.384C335.418 226.047 329.212 213.644 325.59 198.589L332.406 193.278C336.26 185.293 342.129 179.321 348.756 174.846C368.32 161.635 394.441 161.536 394.441 161.536L403.033 186.236L403.026 186.243Z" fill="#191919"/>
<path d="M403.026 186.243L369.38 217.464L367.414 219.955C364.775 222.67 359.278 226.61 349.696 226.384C335.418 226.047 329.212 213.644 325.59 198.589L332.406 193.278C336.26 185.293 342.129 179.321 348.756 174.846C368.32 161.635 394.441 161.536 394.441 161.536L403.033 186.236L403.026 186.243Z" stroke="black" stroke-width="1.35" stroke-linecap="round" stroke-linejoin="round"/>
<path d="M367.408 219.955C364.768 222.67 359.272 226.61 349.69 226.385C335.411 226.047 329.205 213.644 325.583 198.59C325.513 198.308 325.45 198.02 325.38 197.738C325.099 196.528 324.818 195.283 324.537 194.031C324.383 193.334 324.228 192.638 324.081 191.941C323.955 191.372 323.835 190.802 323.716 190.232C323.583 189.62 323.456 189.001 323.323 188.382C323.07 187.193 322.831 186.011 322.593 184.843C322.516 184.47 322.438 184.098 322.361 183.725C322.333 183.563 322.298 183.401 322.263 183.239C322.214 182.993 322.164 182.754 322.115 182.515C322.024 182.064 321.94 181.621 321.849 181.178C321.785 180.861 321.722 180.552 321.666 180.235C321.589 179.855 321.519 179.49 321.448 179.117C321.385 178.793 321.322 178.463 321.259 178.139C321.21 177.893 321.161 177.654 321.119 177.407C321.105 177.351 321.097 177.288 321.083 177.231C321.041 177.027 321.006 176.823 320.964 176.619C320.964 176.605 320.964 176.591 320.957 176.577C320.908 176.303 320.852 176.028 320.803 175.754C320.753 175.508 320.704 175.269 320.662 175.029C320.613 174.762 320.557 174.502 320.508 174.242C325.569 174.551 334.253 173.418 344.411 165.167C344.474 165.307 344.537 165.448 344.6 165.589C344.691 165.793 344.79 166.004 344.888 166.222C344.965 166.391 345.042 166.566 345.127 166.742C345.674 167.952 346.264 169.261 346.889 170.654C347.478 171.976 348.103 173.376 348.756 174.847C354.365 187.488 361.89 205.005 367.415 219.955H367.408Z" fill="#191919"/>
<path d="M367.408 219.955C364.768 222.67 359.272 226.61 349.69 226.385C335.411 226.047 329.205 213.644 325.583 198.59C325.513 198.308 325.45 198.02 325.38 197.738C325.099 196.528 324.818 195.283 324.537 194.031C324.383 193.334 324.228 192.638 324.081 191.941C323.955 191.372 323.835 190.802 323.716 190.232C323.583 189.62 323.456 189.001 323.323 188.382C323.07 187.193 322.831 186.011 322.593 184.843C322.516 184.47 322.438 184.098 322.361 183.725C322.333 183.563 322.298 183.401 322.263 183.239C322.214 182.993 322.164 182.754 322.115 182.515C322.024 182.064 321.94 181.621 321.849 181.178C321.785 180.861 321.722 180.552 321.666 180.235C321.589 179.855 321.519 179.49 321.448 179.117C321.112 177.414 320.803 175.782 320.508 174.242C325.569 174.551 334.253 173.418 344.411 165.167C345.625 167.847 347.106 171.132 348.749 174.84C350.651 179.124 352.771 183.964 354.961 189.078" stroke="black" stroke-width="1.35" stroke-linecap="round" stroke-linejoin="round"/>
<path d="M346.882 170.654C337.678 178.265 326.264 179.131 321.448 179.124C321.385 178.8 321.322 178.47 321.259 178.146C321.21 177.9 321.161 177.66 321.119 177.414C321.105 177.358 321.097 177.295 321.083 177.238C321.048 177.034 321.006 176.83 320.964 176.626C320.964 176.612 320.964 176.598 320.957 176.584C320.908 176.31 320.852 176.035 320.803 175.761C320.753 175.515 320.711 175.276 320.662 175.036C320.613 174.769 320.557 174.509 320.508 174.249C325.569 174.558 334.253 173.425 344.411 165.173C344.474 165.314 344.537 165.455 344.6 165.596C344.691 165.8 344.79 166.011 344.888 166.229C344.965 166.398 345.042 166.573 345.127 166.749C345.674 167.959 346.264 169.268 346.889 170.661L346.882 170.654Z" fill="url(#paint25_linear_195_243)"/>
<path d="M346.882 170.654C337.678 178.265 326.264 179.131 321.448 179.124C321.385 178.8 321.322 178.47 321.259 178.146C321.21 177.9 321.161 177.66 321.119 177.414C321.105 177.358 321.097 177.295 321.083 177.238C321.048 177.034 321.006 176.83 320.964 176.626C320.964 176.612 320.964 176.598 320.957 176.584C320.908 176.31 320.852 176.035 320.803 175.761C320.753 175.515 320.711 175.276 320.662 175.036C320.613 174.769 320.557 174.509 320.508 174.249C325.569 174.558 334.253 173.425 344.411 165.173C344.474 165.314 344.537 165.455 344.6 165.596C344.691 165.8 344.79 166.011 344.888 166.229C344.965 166.398 345.042 166.573 345.127 166.749C345.674 167.959 346.264 169.268 346.889 170.661L346.882 170.654Z" stroke="black" stroke-width="1.35" stroke-linecap="round" stroke-linejoin="round"/>
<path d="M315.881 158.793C315.165 161.227 317.594 170.541 322.901 169.43C328.208 168.318 323.519 157.759 320.592 156.218C318.795 155.275 316.31 157.33 315.881 158.793Z" fill="white"/>
<path d="M315.881 158.793C315.165 161.227 317.594 170.541 322.901 169.43C328.208 168.318 323.519 157.759 320.592 156.218C318.795 155.275 316.31 157.33 315.881 158.793Z" stroke="black" stroke-width="1.35" stroke-linecap="round" stroke-linejoin="round"/>
<path d="M341.448 158.715C341.448 158.715 340.697 154.157 337.875 153.819C335.053 153.474 325.421 159.222 326.039 161.628C326.657 164.027 328.552 166.032 332.097 164.976C335.642 163.921 341.448 158.722 341.448 158.722V158.715Z" fill="white"/>
<path d="M341.448 158.715C341.448 158.715 340.697 154.157 337.875 153.819C335.053 153.474 325.421 159.222 326.039 161.628C326.657 164.027 328.552 166.032 332.097 164.976C333.831 164.456 336.106 162.95 337.98 161.543" stroke="black" stroke-width="1.35" stroke-linecap="round" stroke-linejoin="round"/>
<path d="M394.434 161.536C394.434 161.536 420.387 157.421 436.308 176.802C452.229 196.191 453.654 222.466 453.998 229.839L359.447 229.811C359.447 229.811 355.2 213.37 361.841 194.812C368.482 176.254 394.427 161.529 394.427 161.529L394.434 161.536Z" fill="#191919"/>
<path d="M394.434 161.536C394.434 161.536 420.387 157.421 436.308 176.802C452.229 196.191 453.654 222.466 453.998 229.839L359.447 229.811C359.447 229.811 355.2 213.37 361.841 194.812" stroke="black" stroke-width="1.35" stroke-linecap="round" stroke-linejoin="round"/>
<path d="M426.873 195.783C426.873 195.783 429.632 208.115 428.607 230.5" stroke="black" stroke-width="1.35" stroke-linecap="round" stroke-linejoin="round"/>
<path d="M403.027 151.709V164.66C403.027 164.66 400.696 168.846 394.765 168.846C388.833 168.846 386.495 164.66 386.495 164.66V151.709H403.02H403.027Z" fill="url(#paint26_linear_195_243)"/>
<path d="M403.027 151.709V164.66C403.027 164.66 400.696 168.846 394.765 168.846C388.833 168.846 386.495 164.66 386.495 164.66V151.709H403.02H403.027Z" stroke="black" stroke-width="1.35" stroke-linecap="round" stroke-linejoin="round"/>
<path d="M401.763 150.4V161.368C401.763 161.368 399.791 164.913 394.771 164.913C389.752 164.913 387.772 161.368 387.772 161.368V150.4H401.77H401.763Z" fill="white"/>
<path d="M401.763 150.4V161.368C401.763 161.368 399.791 164.913 394.771 164.913C389.752 164.913 387.772 161.368 387.772 161.368V150.4H401.77H401.763Z" stroke="black" stroke-width="1.35" stroke-linecap="round" stroke-linejoin="round"/>
<path d="M424.669 171.885C418.849 178.519 406.178 178.744 401.447 169.486C396.708 160.221 401.763 138.609 401.763 138.609L383.469 138.722C383.469 138.722 393.395 152.215 387.765 165.94C383.476 176.394 374.09 179.947 368.046 175.993C366.158 174.762 364.592 172.785 363.617 170.063C359.51 158.624 370.349 153.481 374.343 149.246C378.337 145.018 376.281 136.091 376.056 128.55C375.824 121.001 380.633 106.987 393.465 106.361C405.28 105.791 414.286 116.886 413.03 132.897C411.773 148.909 416.912 151.54 420.106 154.058C423.3 156.577 430.488 165.265 424.669 171.899V171.885Z" fill="#191919"/>
<path d="M377.537 143.189C378.387 151.371 369.549 155.543 366.811 159.531C364.073 163.52 363.617 170.056 368.046 175.986C366.158 174.755 364.592 172.778 363.617 170.056C359.51 158.617 370.349 153.474 374.343 149.239C378.337 145.011 376.281 136.084 376.056 128.542C375.824 120.994 380.633 106.98 393.465 106.354C375.782 110.005 376.695 135.001 377.537 143.182V143.189Z" fill="white"/>
<path d="M393.458 106.354C380.633 106.973 375.824 120.994 376.049 128.543C376.274 136.091 378.331 145.011 374.336 149.239C370.342 153.474 359.503 158.617 363.61 170.056C367.716 181.495 382.128 179.665 387.758 165.94C393.395 152.215 383.462 138.722 383.462 138.722L401.756 138.61C401.756 138.61 396.702 160.228 401.44 169.486C406.179 178.751 418.842 178.519 424.662 171.885C430.481 165.251 423.293 156.563 420.099 154.044C416.905 151.526 411.766 148.895 413.023 132.883C414.279 116.872 405.273 105.777 393.451 106.347L393.458 106.354Z" stroke="black" stroke-width="1.35" stroke-linecap="round" stroke-linejoin="round"/>
<path d="M408.509 137.259C408.509 147.234 402.205 154.811 394.434 154.811C386.663 154.811 380.359 147.234 380.359 137.259C380.359 127.283 386.663 117.645 394.434 117.645C402.205 117.645 408.509 127.283 408.509 137.259Z" fill="white"/>
<path d="M408.509 137.259C408.509 147.234 402.205 154.811 394.434 154.811C386.663 154.811 380.359 147.234 380.359 137.259C380.359 127.283 386.663 117.645 394.434 117.645C402.205 117.645 408.509 127.283 408.509 137.259Z" stroke="black" stroke-width="1.35" stroke-linecap="round" stroke-linejoin="round"/>
<path d="M389.162 136.703H387.61V134.29C387.61 133.861 387.954 133.516 388.383 133.516C388.811 133.516 389.155 133.861 389.155 134.29V136.703H389.162Z" fill="#191919"/>
<path d="M397.951 130.259C398.028 131.138 402.605 131.687 402.738 130.674C402.872 129.661 397.846 129.028 397.951 130.259Z" fill="#191919"/>
<path d="M400.121 136.703H398.569V134.29C398.569 133.861 398.913 133.516 399.342 133.516C399.77 133.516 400.114 133.861 400.114 134.29V136.703H400.121Z" fill="#191919"/>
<path d="M398.358 136.703C398.358 136.703 399.201 136.042 400.331 136.703" stroke="black" stroke-width="1.35" stroke-linecap="round" stroke-linejoin="round"/>
<path d="M389.765 130.069C389.765 130.948 385.238 131.856 385.027 130.857C384.816 129.858 389.772 128.831 389.765 130.069Z" stroke="black" stroke-width="0.43" stroke-miterlimit="10"/>
<path d="M389.373 136.703C389.373 136.703 388.531 136.042 387.4 136.703" stroke="black" stroke-width="1.35" stroke-linecap="round" stroke-linejoin="round"/>
<path d="M393.247 141.241C393.247 141.241 392.924 142.894 394.525 142.725C396.126 142.563 396.168 140.826 395.016 140.783" stroke="black" stroke-width="1.35" stroke-linecap="round" stroke-linejoin="round"/>
<path d="M399.047 118.813C399.047 118.813 393.515 134.536 379.475 136.232C379.475 136.232 375.944 112.876 393.459 111.616C410.973 110.357 409.717 136.063 409.717 136.063C409.717 136.063 404.698 135.5 399.047 118.813Z" fill="#191919"/>
<path d="M399.047 118.813C399.047 118.813 393.515 134.536 379.475 136.232C379.475 136.232 375.944 112.876 393.459 111.616C410.973 110.357 409.717 136.063 409.717 136.063C409.717 136.063 404.698 135.5 399.047 118.813V118.813Z" stroke="black" stroke-width="1.35" stroke-linecap="round" stroke-linejoin="round"/>
<path d="M407.168 136.063C407.168 136.063 408.425 133.917 412.019 135.008C415.613 136.091 414.588 145.3 407.168 143.302V136.07V136.063Z" fill="white"/>
<path d="M408.095 135.212C408.846 134.768 410.095 134.424 412.019 135.008C415.536 136.07 414.63 144.892 407.652 143.414" stroke="black" stroke-width="1.35" stroke-linecap="round" stroke-linejoin="round"/>
<path d="M409.26 138.124C409.26 138.124 411.317 136.696 412.454 139.137" stroke="black" stroke-width="1.35" stroke-linecap="round" stroke-linejoin="round"/>
<path d="M410.517 140.375V137.709" stroke="black" stroke-width="1.35" stroke-linecap="round" stroke-linejoin="round"/>
<path d="M398.786 148.74C398.358 148.867 397.874 148.909 397.389 148.888C395.88 148.824 394.371 148.093 394.462 146.953C394.609 145.124 397.909 145.694 398.786 144.322C399.671 142.95 401.447 142.662 401.763 144.322C401.763 144.35 401.77 144.378 401.777 144.406C402.058 146.046 401.348 147.994 398.786 148.733V148.74Z" fill="#191919"/>
<path d="M398.786 148.74C398.358 148.867 397.874 148.909 397.389 148.888C395.88 148.824 394.371 148.093 394.462 146.953C394.609 145.124 397.909 145.694 398.786 144.322C399.671 142.95 401.447 142.662 401.763 144.322C401.763 144.35 401.77 144.378 401.777 144.406C402.058 146.046 401.348 147.994 398.786 148.733V148.74Z" stroke="black" stroke-width="1.35" stroke-linecap="round" stroke-linejoin="round"/>
<path d="M398.786 148.74C398.358 148.867 397.874 148.909 397.389 148.888C397.165 147.586 397.045 145.926 398.365 145.525C399.404 145.208 399.98 143.682 401.777 144.406C402.057 146.045 401.348 147.994 398.786 148.733V148.74Z" fill="white"/>
<path d="M381.539 136.063C381.539 136.063 380.282 133.917 376.688 135.008C373.094 136.091 374.118 145.3 381.539 143.302V136.07V136.063Z" fill="white"/>
<path d="M381.307 136.063C381.307 136.063 380.05 133.917 376.456 135.008C372.862 136.091 373.887 145.3 381.307 143.302" stroke="black" stroke-width="1.35" stroke-linecap="round" stroke-linejoin="round"/>
<path d="M379.447 138.124C379.447 138.124 377.39 136.696 376.253 139.137" stroke="black" stroke-width="1.35" stroke-linecap="round" stroke-linejoin="round"/>
<path d="M378.197 140.375V137.709" stroke="black" stroke-width="1.35" stroke-linecap="round" stroke-linejoin="round"/>
<path d="M99.6468 188.994V227.137H38.3701V190.661C38.3701 188.741 39.0651 186.975 40.2093 185.61C41.6414 183.908 43.7895 182.824 46.1833 182.824H92.0583C95.7087 182.824 98.7693 185.329 99.6328 188.719C99.6328 188.811 99.6328 188.902 99.6328 188.994H99.6468Z" fill="url(#paint27_linear_195_243)"/>
<path d="M99.647 188.994V227.137H38.1387V188.994C38.1387 187.073 38.8336 185.307 39.9779 183.943C41.4099 182.24 43.558 181.157 45.9518 181.157H91.8269C96.0529 181.157 99.4996 184.52 99.64 188.719C99.64 188.811 99.64 188.902 99.64 188.994H99.647Z" stroke="black" stroke-width="1.35" stroke-linecap="round" stroke-linejoin="round"/>
<path d="M67.2783 227.137H38.1387V210.514C44.2319 194.045 57.1977 191.913 57.1977 191.913C57.1977 191.913 59.2545 196.831 62.8347 201.291C66.4219 205.751 64.6177 210.668 66.4429 220.046C67.0466 223.141 67.2783 225.386 67.2853 227.137H67.2783Z" fill="black"/>
<path d="M68.8932 182.831V190.999C64.1407 188.994 61.9154 185.814 60.9326 182.831H68.8932Z" fill="black"/>
<path d="M60.5042 204.837V227.137H53.4141C51.0765 227.137 48.9003 225.843 47.8684 223.739C47.4191 222.818 47.0822 221.692 47.04 220.356C47.04 220.25 47.04 220.152 47.04 220.046V204.837H60.5042Z" fill="white"/>
<path d="M60.5042 227.137H53.4141C51.0765 227.137 48.9003 225.843 47.8684 223.739C47.4191 222.818 47.0822 221.692 47.04 220.356C47.04 220.25 47.04 220.152 47.04 220.046V210.134" stroke="black" stroke-width="1.35" stroke-linecap="round" stroke-linejoin="round"/>
<path d="M61.2553 227.025H53.3299C51.2449 227.025 49.2794 225.991 48.1422 224.239C48.1281 224.218 48.1141 224.197 48.1 224.176C47.4682 223.191 47.1523 222.037 47.1523 220.862V206.096L57.3101 206.18L60.8482 206.208L61.2623 227.025H61.2553Z" fill="white"/>
<path d="M146.211 218.731C146.211 218.731 149.005 217.703 150.718 218.498C152.431 219.3 155.112 223.015 155.168 223.817C155.224 224.619 153.231 225.477 151.574 224.105C149.917 222.733 146.211 218.731 146.211 218.731Z" fill="white"/>
<path d="M146.211 218.731C146.211 218.731 149.005 217.703 150.718 218.498C152.431 219.3 155.112 223.015 155.168 223.817C155.224 224.619 153.231 225.477 151.574 224.105C149.917 222.733 146.211 218.731 146.211 218.731V218.731Z" stroke="black" stroke-width="1.35" stroke-linecap="round" stroke-linejoin="round"/>
<path d="M141.191 218.843C141.191 218.843 142.504 216.557 144.729 216.901C146.955 217.246 151.777 221.875 152.332 222.712C153.287 224.162 151.202 226.328 148.998 226.04C146.8 225.751 141.704 221.101 141.704 221.101L141.191 218.843Z" fill="white"/>
<path d="M141.191 218.843C141.191 218.843 142.504 216.557 144.729 216.901C146.955 217.246 151.777 221.875 152.332 222.712C153.287 224.162 151.202 226.328 148.998 226.04C146.8 225.751 141.704 221.101 141.704 221.101L141.191 218.843V218.843Z" stroke="black" stroke-width="1.35" stroke-linecap="round" stroke-linejoin="round"/>
<path d="M114.937 227.137H60.7292L60.3853 218.33C54.5658 210.556 45.3206 209.866 45.3206 209.866C45.2082 207.58 48.0583 197.288 56.3909 190.879C60.7222 187.545 67.7632 186.349 73.5125 185.969C78.8195 185.617 83.0245 185.962 83.0245 185.962C86.6257 186.356 89.8267 187.031 92.6838 187.932C120.546 196.739 114.937 227.13 114.937 227.13V227.137Z" fill="url(#paint28_linear_195_243)"/>
<path d="M114.937 227.137H60.7292L60.3853 218.33C54.5658 210.556 45.3206 209.866 45.3206 209.866C45.2082 207.58 48.0583 197.288 56.3909 190.879C60.7222 187.545 67.7632 186.349 73.5125 185.969C78.8195 185.617 83.0245 185.962 83.0245 185.962C86.6257 186.356 89.8267 187.031 92.6838 187.932C120.546 196.739 114.937 227.13 114.937 227.13V227.137Z" stroke="black" stroke-width="1.35" stroke-linecap="round" stroke-linejoin="round"/>
<path d="M99.6479 220.046C99.6479 220.046 98.623 225.878 98.623 227.137H129.553L139.023 222.445C139.023 222.445 143.817 225.646 145.53 226.103C145.53 226.103 149.068 226.673 148.268 223.015C148.268 223.015 139.767 216.325 138.054 215.635C136.341 214.946 130.753 216.719 127.152 218.892L114.6 215.058L99.6479 220.032V220.046Z" fill="white"/>
<path d="M99.6479 220.046C99.6479 220.046 98.623 225.878 98.623 227.137H129.553L139.023 222.445C139.023 222.445 143.817 225.646 145.53 226.103C145.53 226.103 149.068 226.673 148.268 223.015C148.268 223.015 139.767 216.325 138.054 215.635C136.341 214.946 130.753 216.719 127.152 218.892L114.6 215.058L99.6479 220.032V220.046Z" stroke="black" stroke-width="1.35" stroke-linecap="round" stroke-linejoin="round"/>
<path d="M98.623 210.211L99.6479 220.046" stroke="black" stroke-width="1.35" stroke-linecap="round" stroke-linejoin="round"/>
<path d="M92.6842 187.939V191.906C92.6842 193.672 92.0103 195.375 90.7818 196.634C89.2796 198.174 86.7875 199.814 83.0248 199.807C78.9744 199.799 76.5946 198.308 75.2257 196.824C74.0955 195.6 73.5059 193.96 73.5059 192.293V185.976C78.8129 185.624 83.0178 185.969 83.0178 185.969C86.619 186.363 89.8201 187.038 92.6772 187.939H92.6842Z" fill="black"/>
<path d="M123.838 224.337C123.838 224.337 127.601 227.644 130.858 228.34C134.115 229.037 137.471 226.729 137.246 225.083C137.021 223.437 128.176 221.65 128.176 221.65L123.838 224.337Z" fill="white"/>
<path d="M125.221 225.428C126.611 226.455 128.836 227.897 130.858 228.333C134.108 229.03 137.47 226.722 137.246 225.076C137.112 224.098 133.911 223.064 131.349 222.389" stroke="black" stroke-width="1.35" stroke-linecap="round" stroke-linejoin="round"/>
<path d="M89.2085 181.164V191.055C89.2085 192.11 88.7101 193.109 87.8397 193.714C85.9724 195.016 82.3431 196.578 77.8644 193.665C76.9378 193.06 76.3691 192.026 76.3691 190.921V181.171H89.2015L89.2085 181.164Z" fill="white"/>
<path d="M89.2085 181.164V191.055C89.2085 192.11 88.7101 193.109 87.8397 193.714C85.9724 195.016 82.3431 196.578 77.8644 193.665C76.9378 193.06 76.3691 192.026 76.3691 190.921V181.171H89.2015L89.2085 181.164Z" stroke="black" stroke-width="1.02" stroke-linecap="round" stroke-linejoin="round"/>
<path d="M93.6241 171.308C93.6241 179.3 88.5768 185.371 82.3501 185.371C76.1235 185.371 71.0762 179.307 71.0762 171.308C71.0762 163.309 76.1235 155.592 82.3501 155.592C88.5768 155.592 93.6241 163.309 93.6241 171.308Z" fill="white"/>
<path d="M93.6241 171.308C93.6241 179.3 88.5768 185.371 82.3501 185.371C76.1235 185.371 71.0762 179.307 71.0762 171.308C71.0762 163.309 76.1235 155.592 82.3501 155.592C88.5768 155.592 93.6241 163.309 93.6241 171.308Z" stroke="black" stroke-width="1.35" stroke-linecap="round" stroke-linejoin="round"/>
<path d="M85.6429 168.994C86.1835 169.451 89.0827 167.157 88.5843 166.51C88.0858 165.863 84.8848 168.353 85.6429 168.994Z" fill="black"/>
<path d="M86.9066 172.771H85.6641V170.837C85.6641 170.492 85.9449 170.218 86.2818 170.218C86.6258 170.218 86.8996 170.499 86.8996 170.837V172.771H86.9066Z" fill="black"/>
<path d="M78.1244 172.771H76.8818V170.837C76.8818 170.492 77.1626 170.218 77.4996 170.218C77.8436 170.218 78.1173 170.499 78.1173 170.837V172.771H78.1244Z" fill="black"/>
<path d="M85.4951 172.771C85.4951 172.771 86.169 172.237 87.0746 172.771" stroke="black" stroke-width="1.02" stroke-linecap="round" stroke-linejoin="round"/>
<path d="M78.2437 168.874C77.7382 169.373 74.6705 167.312 75.1128 166.63C75.555 165.947 78.9457 168.177 78.2437 168.874Z" fill="black"/>
<path d="M78.2933 172.771C78.2933 172.771 77.6194 172.237 76.7139 172.771" stroke="black" stroke-width="1.02" stroke-linecap="round" stroke-linejoin="round"/>
<path d="M81.4024 174.495C81.4024 174.495 81.1427 175.817 82.4273 175.684C83.7119 175.55 83.747 174.164 82.8204 174.129" stroke="black" stroke-width="1.02" stroke-linecap="round" stroke-linejoin="round"/>
<path d="M96.348 168.431C98.6926 169.613 98.0117 175.592 93.2803 175.163" stroke="black" stroke-width="1.35" stroke-linecap="round" stroke-linejoin="round"/>
<path d="M93.7578 172.18C93.7578 172.18 94.9723 170.956 96.0463 172.469" stroke="black" stroke-width="1.35" stroke-linecap="round" stroke-linejoin="round"/>
<path d="M77.9772 176.69C77.9772 176.69 79.6479 179.18 82.7297 179.046C82.7297 179.046 80.5044 181.663 78.2931 180.207C76.8891 179.279 77.9772 176.69 77.9772 176.69Z" fill="black"/>
<path d="M77.9772 176.69C77.9772 176.69 79.6479 179.18 82.7297 179.046C82.7297 179.046 80.5044 181.663 78.2931 180.207C76.8891 179.279 77.9772 176.69 77.9772 176.69V176.69Z" stroke="black" stroke-width="1.35" stroke-linecap="round" stroke-linejoin="round"/>
<path d="M92.0741 173.971C94.1439 171.896 94.1439 168.533 92.0741 166.459C90.0043 164.385 86.6485 164.385 84.5787 166.459C82.509 168.533 82.509 171.896 84.5787 173.971C86.6485 176.045 90.0043 176.045 92.0741 173.971Z" stroke="black" stroke-width="1.35" stroke-linecap="round" stroke-linejoin="round"/>
<path d="M81.5975 171.07C82.0665 168.175 80.1044 165.446 77.2151 164.976C74.3258 164.506 71.6034 166.473 71.1344 169.368C70.6654 172.264 72.6274 174.992 75.5167 175.462C78.406 175.932 81.1285 173.966 81.5975 171.07Z" stroke="black" stroke-width="1.35" stroke-linecap="round" stroke-linejoin="round"/>
<path d="M78.3068 189.395C77.7382 193.968 74.3125 205.751 69.6303 216.043C64.948 226.335 61.2976 227.025 61.2976 227.025H53.323C51.2381 227.025 49.2725 225.991 48.1353 224.239C48.1213 224.218 48.1072 224.197 48.0932 224.176C47.4614 223.191 47.1455 222.037 47.1455 220.862V219.722C50.1992 215.537 53.9127 210.619 57.3033 206.18C62.5191 199.349 66.9486 193.686 66.9486 193.686C66.9486 193.686 67.2926 188.255 66.9486 187.341C66.6047 186.426 63.4106 181.621 62.7999 180.249C62.1892 178.878 61.6416 171.442 62.3787 169.901C63.1228 168.36 64.4355 169.043 64.4355 169.043L66.7732 173.158C66.7732 173.158 69.2301 170.126 70.3112 168.698C71.3922 167.27 73.4491 167.439 73.9054 169.901C74.3617 172.363 72.4242 173.96 72.4803 174.762C72.5365 175.564 72.712 177.281 75.2743 180.193C77.8365 183.106 78.8684 184.822 78.2998 189.402L78.3068 189.395Z" fill="white"/>
<path d="M49.9043 215.987C52.2981 212.765 54.8885 209.353 57.3103 206.18C62.5261 199.349 66.9557 193.686 66.9557 193.686C66.9557 193.686 67.2996 188.255 66.9557 187.341C66.6117 186.426 63.4176 181.621 62.8069 180.249C62.1962 178.878 61.6486 171.442 62.3857 169.901C63.1298 168.36 64.4425 169.043 64.4425 169.043L66.7802 173.158C66.7802 173.158 69.2371 170.126 70.3182 168.698C71.3993 167.27 73.4561 167.439 73.9124 169.901C74.3687 172.363 72.4312 173.96 72.4874 174.762C72.5435 175.564 72.719 177.281 75.2813 180.193C77.8435 183.106 78.8755 184.822 78.3068 189.402C77.7382 193.975 74.3125 205.758 69.6303 216.05C64.948 226.342 61.2976 227.032 61.2976 227.032H53.323C51.2381 227.032 49.2725 225.998 48.1353 224.246C48.1213 224.225 48.1072 224.204 48.0932 224.183C47.4614 223.198 47.1455 222.044 47.1455 220.869V219.73" stroke="black" stroke-width="1.35" stroke-linecap="round" stroke-linejoin="round"/>
<path d="M94.3685 171.414L93.7718 169.183C88.893 166.264 88.0365 163.091 88.0365 163.091C88.0365 163.091 85.6428 167.636 82.561 167.636C79.4793 167.636 79.2195 165.328 79.2195 165.328C73.0561 169.767 66.338 169.141 64.7445 165.244C64.4567 164.54 64.3374 163.738 64.4146 162.831C64.927 156.915 70.578 156.31 70.578 156.31C70.578 156.31 68.5844 154.086 68.4229 151.828C68.3176 150.407 68.9494 148.972 71.266 148.072C77.1838 145.785 83.0173 149.774 83.1577 149.873C83.1156 149.732 82.3645 147.115 84.6178 146.615C86.9274 146.102 89.2369 151.828 89.2369 151.828C89.2369 151.828 91.2025 149.014 92.3187 149.359C93.4348 149.704 91.2938 152.278 91.2938 152.278C95.4004 151.681 97.373 153.137 98.1382 160.854C98.9104 168.571 94.3755 171.406 94.3755 171.406L94.3685 171.414Z" fill="black"/>
<path d="M83.158 149.88C72.8879 146.876 68.4162 151.835 68.4162 151.835C68.3109 150.414 68.9427 148.979 71.2593 148.079C77.1771 145.792 83.0106 149.781 83.151 149.88H83.158Z" fill="white"/>
<path d="M64.7445 165.244C64.4567 164.54 64.3374 163.738 64.4146 162.831C64.927 156.914 70.578 156.309 70.578 156.309L71.0765 156.57C64.2952 158.455 64.7445 165.244 64.7445 165.244Z" fill="white"/>
<path d="M94.369 171.413C94.369 171.413 98.9038 168.585 98.1316 160.861C97.3595 153.144 95.3939 151.68 91.2872 152.285C91.2872 152.285 93.4283 149.711 92.3121 149.366C91.196 149.021 89.2304 151.835 89.2304 151.835C89.2304 151.835 86.9209 146.109 84.6113 146.622C82.3018 147.136 83.1582 149.879 83.1582 149.879C83.1582 149.879 77.2545 145.764 71.2595 148.079C65.2715 150.393 70.5715 156.309 70.5715 156.309C70.5715 156.309 64.9205 156.907 64.408 162.831C63.8956 168.747 71.9404 170.562 79.213 165.321C79.213 165.321 79.4727 167.629 82.5545 167.629C85.6362 167.629 88.03 163.084 88.03 163.084C88.03 163.084 88.8864 166.257 93.7653 169.176L94.362 171.406L94.369 171.413Z" stroke="black" stroke-width="1.35" stroke-linecap="round" stroke-linejoin="round"/>
<path d="M66.2189 179.272C66.2189 179.272 64.3937 176.64 64.1621 174.811C63.9304 172.982 64.0919 167.594 64.6043 166.475C65.0466 165.511 66.7454 164.639 67.8826 165.786C68.2055 166.109 68.367 166.559 68.3459 167.017C68.2828 168.825 68.1143 174.572 68.367 175.438C68.6689 176.465 69.778 177.323 69.778 177.323L66.2119 179.265L66.2189 179.272Z" fill="white"/>
<path d="M66.2189 179.272C66.2189 179.272 64.3937 176.64 64.1621 174.811C63.9304 172.982 64.0919 167.594 64.6043 166.475C65.0466 165.511 66.7454 164.639 67.8826 165.786C68.2055 166.109 68.367 166.559 68.3459 167.017C68.2828 168.825 68.1143 174.572 68.367 175.438C68.6689 176.465 69.778 177.323 69.778 177.323" stroke="black" stroke-width="1.35" stroke-linecap="round" stroke-linejoin="round"/>
<path d="M61.2553 227.025H53.3299C51.2449 227.025 49.2794 225.991 48.1422 224.239C48.1281 224.218 48.1141 224.197 48.1 224.176C47.4682 223.191 47.1523 222.037 47.1523 220.862V210.134" stroke="black" stroke-width="1.35" stroke-linecap="round" stroke-linejoin="round"/>
<path d="M486.065 215.072H369.24C366.514 215.072 364.305 217.287 364.305 220.018V280.378C364.305 283.109 366.514 285.323 369.24 285.323H486.065C488.79 285.323 491 283.109 491 280.378V220.018C491 217.287 488.79 215.072 486.065 215.072Z" fill="url(#paint29_linear_195_243)"/>
<path d="M480.365 282.221H363.533C360.809 282.221 358.598 280.005 358.598 277.275V216.908C358.598 214.179 360.809 211.963 363.533 211.963H480.365C483.089 211.963 485.3 214.179 485.3 216.908V277.275C485.3 280.005 483.089 282.221 480.365 282.221Z" stroke="black" stroke-width="1.35" stroke-linecap="round" stroke-linejoin="round"/>
<path d="M390.089 234.327H465.321" stroke="white" stroke-width="1.35" stroke-linecap="round" stroke-linejoin="round"/>
<path d="M390.089 251.816H465.321" stroke="white" stroke-width="1.35" stroke-linecap="round" stroke-linejoin="round"/>
<path d="M390.089 269.298H465.321" stroke="white" stroke-width="1.35" stroke-linecap="round" stroke-linejoin="round"/>
</g>
<defs>
<linearGradient id="paint0_linear_195_243" x1="58.1953" y1="285.759" x2="135.793" y2="285.759" gradientUnits="userSpaceOnUse">
<stop stop-color="#EE6A25"/>
<stop offset="0.49" stop-color="#ED6725"/>
<stop offset="0.81" stop-color="#EB5E25"/>
<stop offset="1" stop-color="#EA5526"/>
</linearGradient>
<linearGradient id="paint1_linear_195_243" x1="155.462" y1="254.982" x2="313.951" y2="254.982" gradientUnits="userSpaceOnUse">
<stop stop-color="#EE6A25"/>
<stop offset="0.49" stop-color="#ED6725"/>
<stop offset="0.81" stop-color="#EB5E25"/>
<stop offset="1" stop-color="#EA5526"/>
</linearGradient>
<linearGradient id="paint2_linear_195_243" x1="207.388" y1="166.538" x2="258.409" y2="166.538" gradientUnits="userSpaceOnUse">
<stop stop-color="#EE6A25"/>
<stop offset="0.49" stop-color="#ED6725"/>
<stop offset="0.81" stop-color="#EB5E25"/>
<stop offset="1" stop-color="#EA5526"/>
</linearGradient>
<linearGradient id="paint3_linear_195_243" x1="299.701" y1="61.7035" x2="471.703" y2="61.7035" gradientUnits="userSpaceOnUse">
<stop stop-color="#EE6A25"/>
<stop offset="0.49" stop-color="#ED6725"/>
<stop offset="0.81" stop-color="#EB5E25"/>
<stop offset="1" stop-color="#EA5526"/>
</linearGradient>
<linearGradient id="paint4_linear_195_243" x1="264.271" y1="110.927" x2="346.882" y2="110.927" gradientUnits="userSpaceOnUse">
<stop stop-color="#EE6A25"/>
<stop offset="0.49" stop-color="#ED6725"/>
<stop offset="0.81" stop-color="#EB5E25"/>
<stop offset="1" stop-color="#EA5526"/>
</linearGradient>
<linearGradient id="paint5_linear_195_243" x1="442.472" y1="91.7498" x2="447.477" y2="91.7498" gradientUnits="userSpaceOnUse">
<stop stop-color="#EE6A25"/>
<stop offset="0.49" stop-color="#ED6725"/>
<stop offset="0.81" stop-color="#EB5E25"/>
<stop offset="1" stop-color="#EA5526"/>
</linearGradient>
<linearGradient id="paint6_linear_195_243" x1="461.026" y1="91.7498" x2="466.031" y2="91.7498" gradientUnits="userSpaceOnUse">
<stop stop-color="#EE6A25"/>
<stop offset="0.49" stop-color="#ED6725"/>
<stop offset="0.81" stop-color="#EB5E25"/>
<stop offset="1" stop-color="#EA5526"/>
</linearGradient>
<linearGradient id="paint7_linear_195_243" x1="479.572" y1="91.7498" x2="484.584" y2="91.7498" gradientUnits="userSpaceOnUse">
<stop stop-color="#EE6A25"/>
<stop offset="0.49" stop-color="#ED6725"/>
<stop offset="0.81" stop-color="#EB5E25"/>
<stop offset="1" stop-color="#EA5526"/>
</linearGradient>
<linearGradient id="paint8_linear_195_243" x1="442.472" y1="108.416" x2="447.477" y2="108.416" gradientUnits="userSpaceOnUse">
<stop stop-color="#EE6A25"/>
<stop offset="0.49" stop-color="#ED6725"/>
<stop offset="0.81" stop-color="#EB5E25"/>
<stop offset="1" stop-color="#EA5526"/>
</linearGradient>
<linearGradient id="paint9_linear_195_243" x1="461.026" y1="108.416" x2="466.031" y2="108.416" gradientUnits="userSpaceOnUse">
<stop stop-color="#EE6A25"/>
<stop offset="0.49" stop-color="#ED6725"/>
<stop offset="0.81" stop-color="#EB5E25"/>
<stop offset="1" stop-color="#EA5526"/>
</linearGradient>
<linearGradient id="paint10_linear_195_243" x1="479.572" y1="108.416" x2="484.584" y2="108.416" gradientUnits="userSpaceOnUse">
<stop stop-color="#EE6A25"/>
<stop offset="0.49" stop-color="#ED6725"/>
<stop offset="0.81" stop-color="#EB5E25"/>
<stop offset="1" stop-color="#EA5526"/>
</linearGradient>
<linearGradient id="paint11_linear_195_243" x1="442.472" y1="125.088" x2="447.477" y2="125.088" gradientUnits="userSpaceOnUse">
<stop stop-color="#EE6A25"/>
<stop offset="0.49" stop-color="#ED6725"/>
<stop offset="0.81" stop-color="#EB5E25"/>
<stop offset="1" stop-color="#EA5526"/>
</linearGradient>
<linearGradient id="paint12_linear_195_243" x1="461.026" y1="125.088" x2="466.031" y2="125.088" gradientUnits="userSpaceOnUse">
<stop stop-color="#EE6A25"/>
<stop offset="0.49" stop-color="#ED6725"/>
<stop offset="0.81" stop-color="#EB5E25"/>
<stop offset="1" stop-color="#EA5526"/>
</linearGradient>
<linearGradient id="paint13_linear_195_243" x1="479.572" y1="125.088" x2="484.584" y2="125.088" gradientUnits="userSpaceOnUse">
<stop stop-color="#EE6A25"/>
<stop offset="0.49" stop-color="#ED6725"/>
<stop offset="0.81" stop-color="#EB5E25"/>
<stop offset="1" stop-color="#EA5526"/>
</linearGradient>
<linearGradient id="paint14_linear_195_243" x1="183.451" y1="120.389" x2="228.87" y2="120.389" gradientUnits="userSpaceOnUse">
<stop stop-color="#EE6A25"/>
<stop offset="0.49" stop-color="#ED6725"/>
<stop offset="0.81" stop-color="#EB5E25"/>
<stop offset="1" stop-color="#EA5526"/>
</linearGradient>
<linearGradient id="paint15_linear_195_243" x1="372.722" y1="12.7121" x2="385.512" y2="12.7121" gradientUnits="userSpaceOnUse">
<stop stop-color="#EE6A25"/>
<stop offset="0.49" stop-color="#ED6725"/>
<stop offset="0.81" stop-color="#EB5E25"/>
<stop offset="1" stop-color="#EA5526"/>
</linearGradient>
<linearGradient id="paint16_linear_195_243" x1="347.998" y1="12.712" x2="371.922" y2="12.712" gradientUnits="userSpaceOnUse">
<stop stop-color="#EE6A25"/>
<stop offset="0.49" stop-color="#ED6725"/>
<stop offset="0.81" stop-color="#EB5E25"/>
<stop offset="1" stop-color="#EA5526"/>
</linearGradient>
<linearGradient id="paint17_linear_195_243" x1="149.671" y1="109.457" x2="154.676" y2="109.457" gradientUnits="userSpaceOnUse">
<stop stop-color="#EE6A25"/>
<stop offset="0.49" stop-color="#ED6725"/>
<stop offset="0.81" stop-color="#EB5E25"/>
<stop offset="1" stop-color="#EA5526"/>
</linearGradient>
<linearGradient id="paint18_linear_195_243" x1="69.4055" y1="55.4705" x2="111.532" y2="55.4705" gradientUnits="userSpaceOnUse">
<stop stop-color="#EE6A25"/>
<stop offset="0.49" stop-color="#ED6725"/>
<stop offset="0.81" stop-color="#EB5E25"/>
<stop offset="1" stop-color="#EA5526"/>
</linearGradient>
<linearGradient id="paint19_linear_195_243" x1="172.683" y1="10.8127" x2="193.398" y2="10.8127" gradientUnits="userSpaceOnUse">
<stop stop-color="#EE6A25"/>
<stop offset="0.49" stop-color="#ED6725"/>
<stop offset="0.81" stop-color="#EB5E25"/>
<stop offset="1" stop-color="#EA5526"/>
</linearGradient>
<linearGradient id="paint20_linear_195_243" x1="166.807" y1="8.15345" x2="193.398" y2="8.15345" gradientUnits="userSpaceOnUse">
<stop stop-color="#EE6A25"/>
<stop offset="0.49" stop-color="#ED6725"/>
<stop offset="0.81" stop-color="#EB5E25"/>
<stop offset="1" stop-color="#EA5526"/>
</linearGradient>
<linearGradient id="paint21_linear_195_243" x1="139.219" y1="152.672" x2="144.786" y2="152.672" gradientUnits="userSpaceOnUse">
<stop stop-color="#EE6A25"/>
<stop offset="0.49" stop-color="#ED6725"/>
<stop offset="0.81" stop-color="#EB5E25"/>
<stop offset="1" stop-color="#EA5526"/>
</linearGradient>
<linearGradient id="paint22_linear_195_243" x1="150.177" y1="152.672" x2="155.737" y2="152.672" gradientUnits="userSpaceOnUse">
<stop stop-color="#EE6A25"/>
<stop offset="0.49" stop-color="#ED6725"/>
<stop offset="0.81" stop-color="#EB5E25"/>
<stop offset="1" stop-color="#EA5526"/>
</linearGradient>
<linearGradient id="paint23_linear_195_243" x1="31.3936" y1="244.422" x2="42.7237" y2="244.422" gradientUnits="userSpaceOnUse">
<stop stop-color="#EE6A25"/>
<stop offset="0.49" stop-color="#ED6725"/>
<stop offset="0.81" stop-color="#EB5E25"/>
<stop offset="1" stop-color="#EA5526"/>
</linearGradient>
<linearGradient id="paint24_linear_195_243" x1="31.3936" y1="264.303" x2="42.7237" y2="264.303" gradientUnits="userSpaceOnUse">
<stop stop-color="#EE6A25"/>
<stop offset="0.49" stop-color="#ED6725"/>
<stop offset="0.81" stop-color="#EB5E25"/>
<stop offset="1" stop-color="#EA5526"/>
</linearGradient>
<linearGradient id="paint25_linear_195_243" x1="320.501" y1="172.145" x2="346.882" y2="172.145" gradientUnits="userSpaceOnUse">
<stop stop-color="#EE6A25"/>
<stop offset="0.49" stop-color="#ED6725"/>
<stop offset="0.81" stop-color="#EB5E25"/>
<stop offset="1" stop-color="#EA5526"/>
</linearGradient>
<linearGradient id="paint26_linear_195_243" x1="386.495" y1="160.277" x2="403.027" y2="160.277" gradientUnits="userSpaceOnUse">
<stop stop-color="#EE6A25"/>
<stop offset="0.49" stop-color="#ED6725"/>
<stop offset="0.81" stop-color="#EB5E25"/>
<stop offset="1" stop-color="#EA5526"/>
</linearGradient>
<linearGradient id="paint27_linear_195_243" x1="38.3701" y1="204.984" x2="99.6468" y2="204.984" gradientUnits="userSpaceOnUse">
<stop stop-color="#EE6A25"/>
<stop offset="0.49" stop-color="#ED6725"/>
<stop offset="0.81" stop-color="#EB5E25"/>
<stop offset="1" stop-color="#EA5526"/>
</linearGradient>
<linearGradient id="paint28_linear_195_243" x1="45.3206" y1="206.476" x2="115.4" y2="206.476" gradientUnits="userSpaceOnUse">
<stop stop-color="#EE6A25"/>
<stop offset="0.49" stop-color="#ED6725"/>
<stop offset="0.81" stop-color="#EB5E25"/>
<stop offset="1" stop-color="#EA5526"/>
</linearGradient>
<linearGradient id="paint29_linear_195_243" x1="364.305" y1="250.198" x2="491" y2="250.198" gradientUnits="userSpaceOnUse">
<stop stop-color="#EE6A25"/>
<stop offset="0.49" stop-color="#ED6725"/>
<stop offset="0.81" stop-color="#EB5E25"/>
<stop offset="1" stop-color="#EA5526"/>
</linearGradient>
<clipPath id="clip0_195_243">
<rect width="491" height="305" fill="white"/>
</clipPath>
</defs>
</svg>
