<svg width="13" height="16" viewBox="0 0 13 16" fill="none" xmlns="http://www.w3.org/2000/svg">
<path d="M0.390625 16C0.390625 14.4087 1.02276 12.8825 2.14799 11.7573C3.27321 10.6322 4.79933 10 6.39062 10C7.9819 10 9.50808 10.6322 10.6333 11.7573C11.7585 12.8825 12.3906 14.4087 12.3906 16H0.390625ZM7.14062 11.5623V14.5H10.6349C10.3668 13.7436 9.90152 13.0725 9.2872 12.556C8.67295 12.0395 7.93187 11.6964 7.14062 11.5623ZM5.64062 14.5V11.5623C4.84938 11.6964 4.10831 12.0395 3.49401 12.556C2.87972 13.0725 2.41448 13.7436 2.14638 14.5H5.64062ZM6.39062 9.25C3.90438 9.25 1.89062 7.23625 1.89062 4.75C1.89062 2.26375 3.90438 0.25 6.39062 0.25C8.87687 0.25 10.8906 2.26375 10.8906 4.75C10.8906 7.23625 8.87687 9.25 6.39062 9.25ZM6.39062 7.75C8.04813 7.75 9.39062 6.4075 9.39062 4.75C9.39062 3.0925 8.04813 1.75 6.39062 1.75C4.73312 1.75 3.39062 3.0925 3.39062 4.75C3.39062 6.4075 4.73312 7.75 6.39062 7.75Z" fill="#050400"/>
</svg>
