<svg width="15" height="15" viewBox="0 0 15 15" fill="none" xmlns="http://www.w3.org/2000/svg">
<path d="M7.50352 4.40635C5.51602 4.40635 3.91289 6.00947 3.91289 7.99697C3.91289 9.98447 5.51602 11.5876 7.50352 11.5876C9.49102 11.5876 11.0941 9.98447 11.0941 7.99697C11.0941 6.00947 9.49102 4.40635 7.50352 4.40635ZM7.50352 10.3313C6.21914 10.3313 5.16914 9.28447 5.16914 7.99697C5.16914 6.70947 6.21602 5.6626 7.50352 5.6626C8.79102 5.6626 9.83789 6.70947 9.83789 7.99697C9.83789 9.28447 8.78789 10.3313 7.50352 10.3313ZM12.0785 4.25947C12.0785 4.7251 11.7035 5.09697 11.241 5.09697C10.7754 5.09697 10.4035 4.72197 10.4035 4.25947C10.4035 3.79697 10.7785 3.42197 11.241 3.42197C11.7035 3.42197 12.0785 3.79697 12.0785 4.25947ZM14.4566 5.10947C14.4035 3.9876 14.1473 2.99385 13.3254 2.1751C12.5066 1.35635 11.5129 1.1001 10.391 1.04385C9.23477 0.978223 5.76914 0.978223 4.61289 1.04385C3.49414 1.09697 2.50039 1.35322 1.67852 2.17197C0.856641 2.99072 0.603516 3.98447 0.547266 5.10635C0.481641 6.2626 0.481641 9.72822 0.547266 10.8845C0.600391 12.0063 0.856641 13.0001 1.67852 13.8188C2.50039 14.6376 3.49102 14.8938 4.61289 14.9501C5.76914 15.0157 9.23477 15.0157 10.391 14.9501C11.5129 14.897 12.5066 14.6407 13.3254 13.8188C14.1441 13.0001 14.4004 12.0063 14.4566 10.8845C14.5223 9.72822 14.5223 6.26572 14.4566 5.10947ZM12.9629 12.1251C12.7191 12.7376 12.2473 13.2095 11.6316 13.4563C10.7098 13.822 8.52227 13.7376 7.50352 13.7376C6.48477 13.7376 4.29414 13.8188 3.37539 13.4563C2.76289 13.2126 2.29102 12.7407 2.04414 12.1251C1.67852 11.2032 1.76289 9.01572 1.76289 7.99697C1.76289 6.97822 1.68164 4.7876 2.04414 3.86885C2.28789 3.25635 2.75977 2.78447 3.37539 2.5376C4.29727 2.17197 6.48477 2.25635 7.50352 2.25635C8.52227 2.25635 10.7129 2.1751 11.6316 2.5376C12.2441 2.78135 12.716 3.25322 12.9629 3.86885C13.3285 4.79072 13.2441 6.97822 13.2441 7.99697C13.2441 9.01572 13.3285 11.2063 12.9629 12.1251Z" fill="#001D48"/>
</svg>
