<svg width="39" height="39" viewBox="0 0 39 39" fill="none" xmlns="http://www.w3.org/2000/svg">
<path d="M19.5035 16.4063C17.516 16.4063 15.9129 18.0095 15.9129 19.997C15.9129 21.9845 17.516 23.5876 19.5035 23.5876C21.491 23.5876 23.0941 21.9845 23.0941 19.997C23.0941 18.0095 21.491 16.4063 19.5035 16.4063ZM19.5035 22.3313C18.2191 22.3313 17.1691 21.2845 17.1691 19.997C17.1691 18.7095 18.216 17.6626 19.5035 17.6626C20.791 17.6626 21.8379 18.7095 21.8379 19.997C21.8379 21.2845 20.7879 22.3313 19.5035 22.3313V22.3313ZM24.0785 16.2595C24.0785 16.7251 23.7035 17.097 23.241 17.097C22.7754 17.097 22.4035 16.722 22.4035 16.2595C22.4035 15.797 22.7785 15.422 23.241 15.422C23.7035 15.422 24.0785 15.797 24.0785 16.2595ZM26.4566 17.1095C26.4035 15.9876 26.1473 14.9938 25.3254 14.1751C24.5066 13.3563 23.5129 13.1001 22.391 13.0438C21.2348 12.9782 17.7691 12.9782 16.6129 13.0438C15.4941 13.097 14.5004 13.3532 13.6785 14.172C12.8566 14.9907 12.6035 15.9845 12.5473 17.1063C12.4816 18.2626 12.4816 21.7282 12.5473 22.8845C12.6004 24.0063 12.8566 25.0001 13.6785 25.8188C14.5004 26.6376 15.491 26.8938 16.6129 26.9501C17.7691 27.0157 21.2348 27.0157 22.391 26.9501C23.5129 26.897 24.5066 26.6407 25.3254 25.8188C26.1441 25.0001 26.4004 24.0063 26.4566 22.8845C26.5223 21.7282 26.5223 18.2657 26.4566 17.1095V17.1095ZM24.9629 24.1251C24.7191 24.7376 24.2473 25.2095 23.6316 25.4563C22.7098 25.822 20.5223 25.7376 19.5035 25.7376C18.4848 25.7376 16.2941 25.8188 15.3754 25.4563C14.7629 25.2126 14.291 24.7407 14.0441 24.1251C13.6785 23.2032 13.7629 21.0157 13.7629 19.997C13.7629 18.9782 13.6816 16.7876 14.0441 15.8688C14.2879 15.2563 14.7598 14.7845 15.3754 14.5376C16.2973 14.172 18.4848 14.2563 19.5035 14.2563C20.5223 14.2563 22.7129 14.1751 23.6316 14.5376C24.2441 14.7813 24.716 15.2532 24.9629 15.8688C25.3285 16.7907 25.2441 18.9782 25.2441 19.997C25.2441 21.0157 25.3285 23.2063 24.9629 24.1251Z" fill="#001D48"/>
<rect x="0.5" y="0.5" width="38" height="38" rx="19" stroke="#001D48"/>
</svg>
