<svg width="30" height="33" viewBox="0 0 30 33" fill="none" xmlns="http://www.w3.org/2000/svg">
<g clip-path="url(#clip0_156_9)">
<path d="M13.4705 15.98C17.6105 15.98 20.9605 12.63 20.9605 8.49C20.9605 4.35 17.6105 1 13.4705 1C9.33047 1 5.98047 4.35 5.98047 8.49C5.98047 12.63 9.33047 15.98 13.4705 15.98Z" stroke="#EC5325" stroke-width="2" stroke-linecap="round" stroke-linejoin="round"/>
<path d="M22.3397 30.67C25.7197 30.67 28.4597 27.93 28.4597 24.55C28.4597 21.17 25.7197 18.43 22.3397 18.43C18.9597 18.43 16.2197 21.17 16.2197 24.55C16.2197 27.93 18.9597 30.67 22.3397 30.67Z" stroke="#EC5325" stroke-width="2" stroke-linecap="round" stroke-linejoin="round"/>
<path d="M19.1699 24.23L21.5699 26.68L25.5099 23.15" stroke="#EC5325" stroke-width="2" stroke-linecap="round" stroke-linejoin="round"/>
<path d="M1 31.19C1 25.06 5.97 20.1 12.09 20.1C13.91 20.1 15.63 20.54 17.15 21.32" stroke="#EC5325" stroke-width="2" stroke-linecap="round" stroke-linejoin="round"/>
</g>
<defs>
<clipPath id="clip0_156_9">
<rect width="29.46" height="32.19" fill="white"/>
</clipPath>
</defs>
</svg>
