<svg width="39" height="39" viewBox="0 0 39 39" fill="none" xmlns="http://www.w3.org/2000/svg">
<path d="M15.6344 26H12.7313V16.6531H15.6337L15.6344 26ZM14.1809 15.3781C13.2528 15.3781 12.5 14.6094 12.5 13.6812C12.5 13.2354 12.6771 12.8077 12.9924 12.4924C13.3077 12.1771 13.7354 12 14.1812 12C14.6271 12 15.0548 12.1771 15.3701 12.4924C15.6854 12.8077 15.8625 13.2354 15.8625 13.6812C15.8625 14.6094 15.1094 15.3781 14.1816 15.3781H14.1809ZM26.4969 26H23.6006V21.45C23.6006 20.3656 23.5787 18.975 22.0916 18.975C20.5825 18.975 20.3513 20.1531 20.3513 21.3719V26H17.4519V16.6531H20.2356V17.9281H20.2762C20.6637 17.1937 21.6103 16.4187 23.0225 16.4187C25.96 16.4187 26.5006 18.3531 26.5006 20.8656V26H26.4969Z" fill="#001D48"/>
<rect x="0.5" y="0.5" width="38" height="38" rx="19" stroke="#001D48"/>
</svg>
