<svg width="15" height="14" viewBox="0 0 15 14" fill="none" xmlns="http://www.w3.org/2000/svg">
<path d="M3.63438 14H0.73125V4.65312H3.63375L3.63438 14ZM2.18094 3.37812C1.25281 3.37812 0.5 2.60938 0.5 1.68125C0.5 1.23535 0.677131 0.807722 0.992427 0.492427C1.30772 0.177131 1.73535 0 2.18125 0C2.62715 0 3.05478 0.177131 3.37007 0.492427C3.68537 0.807722 3.8625 1.23535 3.8625 1.68125C3.8625 2.60938 3.10938 3.37812 2.18156 3.37812H2.18094ZM14.4969 14H11.6006V9.45C11.6006 8.36562 11.5787 6.975 10.0916 6.975C8.5825 6.975 8.35125 8.15312 8.35125 9.37187V14H5.45188V4.65312H8.23562V5.92812H8.27625C8.66375 5.19375 9.61031 4.41875 11.0225 4.41875C13.96 4.41875 14.5006 6.35313 14.5006 8.86563V14H14.4969Z" fill="#001D48"/>
</svg>
