<svg width="14" height="14" viewBox="0 0 14 14" fill="none" xmlns="http://www.w3.org/2000/svg">
<path d="M7.00016 13.6666C3.31816 13.6666 0.333496 10.682 0.333496 6.99998C0.333496 3.31798 3.31816 0.333313 7.00016 0.333313C10.6822 0.333313 13.6668 3.31798 13.6668 6.99998C13.6668 10.682 10.6822 13.6666 7.00016 13.6666ZM7.00016 12.3333C8.41463 12.3333 9.77123 11.7714 10.7714 10.7712C11.7716 9.77105 12.3335 8.41445 12.3335 6.99998C12.3335 5.58549 11.7716 4.22894 10.7714 3.22875C9.77123 2.22855 8.41463 1.66665 7.00016 1.66665C5.58568 1.66665 4.22912 2.22855 3.22893 3.22875C2.22873 4.22894 1.66683 5.58549 1.66683 6.99998C1.66683 8.41445 2.22873 9.77105 3.22893 10.7712C4.22912 11.7714 5.58568 12.3333 7.00016 12.3333ZM6.3355 9.66665L3.50683 6.83798L4.4495 5.89531L6.3355 7.78131L10.1062 4.00998L11.0495 4.95265L6.3355 9.66665Z" fill="#050400"/>
</svg>
