<svg width="262" height="88" viewBox="0 0 262 88" fill="none" xmlns="http://www.w3.org/2000/svg">
<g clip-path="url(#clip0_296_2)">
<path d="M144.675 43.7179C145.067 43.7179 145.378 43.8318 145.602 44.0595C145.826 44.2873 145.938 44.603 145.938 45.0016C145.938 45.3743 145.826 45.6797 145.602 45.9229C145.378 46.1662 145.067 46.2853 144.675 46.2853H138.822V68.2943C138.822 69.0086 138.567 69.6194 138.063 70.137C137.559 70.6495 136.953 70.9083 136.251 70.9083C135.549 70.9083 134.948 70.6495 134.439 70.137C133.93 69.6246 133.68 69.0086 133.68 68.2943V59.557C133.4 59.2412 133.11 58.941 132.815 58.6563C132.52 58.3716 132.204 58.0869 131.868 57.8022C130.967 57.0621 130.087 56.503 129.216 56.1303C129.074 56.0734 128.941 56.0216 128.814 55.9802C128.687 55.9388 128.539 55.8871 128.371 55.8301C128.371 56.3167 128.239 56.9223 127.969 57.6521C127.705 58.382 127.43 59.0704 127.15 59.7278L126.727 60.4576L126.305 61.1875C126.162 61.3893 126.025 61.5964 125.882 61.8086C125.74 62.0208 125.587 62.2434 125.419 62.4711L125.332 62.5126L124.152 63.6668C123.648 64.1793 123.077 64.4381 122.446 64.4381C121.815 64.4381 121.26 64.1793 120.782 63.6668L120.614 63.5788C120.11 63.0664 119.855 62.4815 119.855 61.8241C119.855 61.1668 120.11 60.6129 120.614 60.1522L121.54 59.1273L121.876 58.8685C122.156 58.5838 122.355 58.3716 122.467 58.2267C122.945 57.6573 123.357 57.0621 123.709 56.4513C124.06 55.8353 124.304 55.1728 124.447 54.4584C124.472 54.2876 124.487 54.1375 124.487 54.0081C124.487 53.8787 124.513 53.7286 124.574 53.5578C124.294 52.9574 123.943 52.419 123.52 51.9325C123.098 51.4459 122.579 51.0629 121.963 50.7782C121.484 50.5763 120.965 50.4624 120.405 50.4366C119.845 50.4107 119.423 50.6798 119.143 51.2492C118.975 51.5908 118.939 51.9428 119.036 52.3C119.133 52.6571 119.29 53.0143 119.499 53.3714C119.708 53.7286 119.911 54.0858 120.11 54.4429C120.303 54.8001 120.431 55.1365 120.487 55.4471C120.68 56.2183 120.512 56.9171 119.983 57.5434C119.448 58.1698 118.776 58.4855 117.962 58.4855C117.346 58.4855 116.801 58.3302 116.343 58.0145C115.88 57.6987 115.524 57.2795 115.269 56.7515C115.015 56.2235 114.841 55.6593 114.745 55.0589C114.648 54.4584 114.638 53.8891 114.724 53.3456C114.836 52.7192 115.045 52.1188 115.356 51.5494C115.666 50.9801 116.058 50.4624 116.537 50.0069C117.015 49.5514 117.549 49.1995 118.135 48.9562C118.725 48.7129 119.357 48.5938 120.028 48.5938C121.377 48.5938 122.584 48.8941 123.653 49.4945C123.429 49.0079 123.149 48.4955 122.813 47.952C122.67 47.7812 122.553 47.6104 122.456 47.4396C122.36 47.2687 122.238 47.0979 122.1 46.9271C122.014 46.8702 121.937 46.8081 121.866 46.7356C121.795 46.6631 121.734 46.5855 121.678 46.4975C121.647 46.4406 121.591 46.3681 121.51 46.2853H113.213C112.846 46.2853 112.546 46.1662 112.307 45.9229C112.067 45.6797 111.95 45.3743 111.95 45.0016C111.95 44.603 112.067 44.2873 112.307 44.0595C112.546 43.8318 112.846 43.7179 113.213 43.7179H144.67H144.675ZM133.686 46.2853H125.22C125.867 46.9996 126.427 47.7864 126.905 48.6404C127.465 49.6136 127.862 50.597 128.086 51.596C128.173 51.7979 128.214 51.9687 128.214 52.1085C128.661 52.2223 129.089 52.3724 129.496 52.5588C129.903 52.7451 130.306 52.9367 130.698 53.1385C131.258 53.4543 131.787 53.8114 132.276 54.21C132.764 54.6086 133.238 55.0226 133.686 55.4523V46.2905V46.2853Z" fill="#001D48"/>
<path d="M169.983 36.228C170.35 36.3729 170.589 36.6214 170.701 36.9786C170.813 37.3357 170.788 37.698 170.615 38.0707C170.447 38.3554 170.197 38.5573 169.877 38.6712C169.556 38.785 169.24 38.7695 168.93 38.6298C168.538 38.4589 168.166 38.3037 167.815 38.1587C167.464 38.0138 167.108 37.8896 166.741 37.7757C166.125 37.579 165.524 37.403 164.949 37.2632C164.374 37.1235 163.789 37.0044 163.203 36.9216C161.966 36.7249 160.775 36.6214 159.625 36.6214C159.314 36.6214 159.009 36.6266 158.698 36.6421C158.388 36.6576 158.093 36.6783 157.813 36.7042C157.533 36.7612 157.176 36.8129 156.739 36.8543C156.301 36.8957 155.945 36.963 155.665 37.0458C154.54 37.2167 153.501 37.5583 152.549 38.0759C152.463 38.1328 152.366 38.1898 152.254 38.2467C152.142 38.3037 152.015 38.3606 151.877 38.4175C151.821 38.5055 151.735 38.5832 151.623 38.6556C151.511 38.7281 151.399 38.7902 151.287 38.8472C151.119 39.049 150.956 39.2302 150.803 39.401C150.651 39.5718 150.488 39.7426 150.32 39.9134C150.04 40.2861 149.801 40.6847 149.602 41.1143C149.404 41.5439 149.251 41.9994 149.139 42.486C149.108 42.7137 149.088 42.9363 149.078 43.1485C149.063 43.3608 149.057 43.5575 149.057 43.7283H154.112C154.448 43.7283 154.743 43.8577 154.998 44.1113C155.252 44.3649 155.374 44.6703 155.374 45.012C155.374 45.3847 155.247 45.69 154.998 45.9333C154.743 46.1766 154.453 46.2957 154.112 46.2957H149.144V68.3927C149.144 69.107 148.905 69.7075 148.426 70.194C147.948 70.6806 147.388 70.9239 146.741 70.9239C146.039 70.9239 145.449 70.6806 144.97 70.194C144.492 69.7075 144.252 69.107 144.252 68.3927V46.2957H142.99C142.623 46.2957 142.323 46.1766 142.084 45.9333C141.845 45.69 141.728 45.3847 141.728 45.012C141.728 44.6703 141.845 44.3701 142.084 44.1113C142.323 43.8525 142.623 43.7283 142.99 43.7283H144.339C144.339 43.6713 144.354 43.6092 144.38 43.5368C144.405 43.4643 144.42 43.3867 144.42 43.2987C144.476 42.9001 144.548 42.5119 144.629 42.1444C144.716 41.7717 144.822 41.3887 144.965 40.9901C145.525 39.3648 146.37 37.9776 147.49 36.8336C147.77 36.5489 148.07 36.2746 148.396 36.021C148.716 35.7622 149.032 35.5344 149.343 35.3377C149.653 35.11 149.989 34.9081 150.356 34.7373C150.523 34.6803 150.702 34.6027 150.88 34.4992C151.063 34.4008 151.236 34.3232 151.409 34.2662C152.112 33.9816 152.819 33.7745 153.537 33.6451C154.255 33.5157 154.962 33.4225 155.665 33.3656C157.07 33.2207 158.439 33.231 159.772 33.3863C161.106 33.5416 162.419 33.7797 163.707 34.0954C165.896 34.6389 167.988 35.3532 169.983 36.2384V36.228Z" fill="#001D48"/>
<path d="M177.227 43.7178C177.563 43.7178 177.858 43.8472 178.112 44.1008C178.367 44.3597 178.489 44.6599 178.489 45.0015C178.489 45.3742 178.362 45.6796 178.112 45.9229C177.858 46.1661 177.563 46.2852 177.227 46.2852H159.034V63.0508C159.034 63.3769 159.06 63.6978 159.121 64.0136C159.177 64.3293 159.268 64.614 159.396 64.8728C159.523 65.1316 159.726 65.2714 160.006 65.3024C160.541 65.3594 161.075 65.318 161.605 65.173C162.139 65.0281 162.674 64.8366 163.203 64.5933C163.737 64.35 164.247 64.0653 164.74 63.7392C165.229 63.4131 165.672 63.1026 166.069 62.8179C166.715 62.3313 167.336 61.7826 167.942 61.1718C168.548 60.5559 169.042 59.8675 169.439 59.0962C169.525 58.8374 169.627 58.5165 169.754 58.1334C169.881 57.7504 169.948 57.357 169.963 56.9533C169.978 56.5547 169.932 56.1768 169.836 55.8197C169.739 55.4625 169.535 55.1985 169.225 55.0277C168.746 54.7689 168.395 54.8155 168.171 55.1571C167.947 55.4988 167.708 55.83 167.453 56.1406C167.229 56.4564 166.99 56.7566 166.736 57.0413C166.481 57.326 166.216 57.5848 165.936 57.8125C165.377 58.2421 164.786 58.4544 164.17 58.4544C163.554 58.4544 163.01 58.3042 162.551 58.004C162.088 57.7038 161.717 57.2742 161.437 56.7203C161.157 56.1613 161.06 55.5298 161.141 54.8155C161.253 54.0753 161.493 53.4231 161.859 52.8693C162.226 52.3102 162.689 51.8547 163.249 51.4976C163.809 51.1404 164.43 50.892 165.102 50.747C165.774 50.6021 166.461 50.5918 167.163 50.7056C168.96 50.9075 170.294 51.6788 171.164 53.0194C172.035 54.36 172.411 55.9025 172.299 57.6469C172.213 59.1894 171.76 60.6749 170.93 62.0984C170.1 63.527 169.072 64.8107 167.835 65.9546C166.598 67.0986 165.229 68.0303 163.727 68.7601C162.226 69.4899 160.729 69.9092 159.243 70.0231C158.464 70.08 157.655 70.0283 156.82 69.873C155.985 69.7177 155.318 69.2933 154.814 68.61C154.422 68.0096 154.214 67.3418 154.188 66.5965C154.163 65.8563 154.132 65.1264 154.107 64.4121C154.051 63.5839 154.046 62.7558 154.086 61.9276C154.127 61.0994 154.147 60.2867 154.147 59.4844V46.2955H152.269C151.928 46.2955 151.638 46.1765 151.394 45.9332C151.154 45.6899 151.032 45.3845 151.032 45.0119C151.032 44.6702 151.154 44.37 151.389 44.1112C151.628 43.8524 151.913 43.7282 152.254 43.7282H166.532C166.532 43.6143 166.512 43.3917 166.471 43.0656C166.43 42.7395 166.252 42.4082 165.942 42.0821C165.631 41.756 165.127 41.4817 164.425 41.2695C163.722 41.0573 162.684 41.021 161.309 41.1608C160.551 41.2747 159.757 41.3627 158.932 41.4196C158.103 41.4765 157.298 41.4403 156.509 41.3109C155.725 41.1815 154.992 40.933 154.321 40.5603C153.649 40.1877 153.099 39.5924 152.676 38.759C152.284 38.0447 152.116 37.2735 152.172 36.4453C152.228 35.6171 152.483 34.8769 152.931 34.2195C153.267 33.733 153.669 33.3655 154.132 33.1067C154.595 32.8479 155.11 32.7236 155.669 32.7236C156.148 32.7236 156.581 32.8323 156.978 33.0446C157.37 33.2568 157.634 33.6088 157.777 34.0953C157.863 34.4111 157.838 34.6957 157.716 34.9494C157.594 35.203 157.451 35.4722 157.293 35.7413C157.141 36.0105 156.998 36.2745 156.871 36.5333C156.743 36.7921 156.723 37.0923 156.81 37.4339C156.896 38.0033 157.176 38.4122 157.65 38.6555C158.128 38.8988 158.668 39.0489 159.268 39.1058C159.874 39.1628 160.47 39.1628 161.06 39.1058C161.65 39.0489 162.154 38.992 162.577 38.935C163.671 38.8212 164.781 38.7228 165.906 38.6348C167.026 38.5468 168.095 38.7332 169.108 39.1938C170.034 39.5924 170.706 40.2239 171.129 41.078C171.551 41.932 171.76 42.8172 171.76 43.7333H177.232L177.227 43.7178Z" fill="#001D48"/>
<path d="M202.408 36.228C202.775 36.3729 203.014 36.6214 203.126 36.9786C203.238 37.3357 203.213 37.698 203.039 38.0707C202.872 38.3554 202.622 38.5573 202.301 38.6712C201.981 38.785 201.665 38.7695 201.355 38.6298C200.963 38.4589 200.591 38.3037 200.24 38.1587C199.889 38.0138 199.532 37.8896 199.166 37.7757C198.55 37.579 197.949 37.403 197.374 37.2632C196.799 37.1235 196.213 37.0044 195.628 36.9216C194.391 36.7249 193.2 36.6214 192.05 36.6214C191.739 36.6214 191.434 36.6266 191.123 36.6421C190.813 36.6576 190.517 36.6783 190.238 36.7042C189.958 36.7612 189.601 36.8129 189.163 36.8543C188.726 36.8957 188.369 36.963 188.089 37.0458C186.964 37.2167 185.926 37.5583 184.974 38.0759C184.888 38.1328 184.791 38.1898 184.679 38.2467C184.567 38.3037 184.44 38.3606 184.302 38.4175C184.246 38.5055 184.16 38.5832 184.048 38.6556C183.936 38.7281 183.824 38.7902 183.712 38.8472C183.544 39.049 183.381 39.2302 183.228 39.401C183.076 39.5718 182.913 39.7426 182.745 39.9134C182.465 40.2861 182.225 40.6847 182.027 41.1143C181.828 41.5439 181.676 41.9994 181.564 42.486C181.533 42.7137 181.513 42.9363 181.503 43.1485C181.487 43.3608 181.482 43.5575 181.482 43.7283H186.537C186.873 43.7283 187.168 43.8577 187.423 44.1113C187.677 44.3649 187.799 44.6703 187.799 45.012C187.799 45.3847 187.672 45.69 187.423 45.9333C187.168 46.1766 186.878 46.2957 186.537 46.2957H181.569V68.3927C181.569 69.107 181.33 69.7075 180.851 70.194C180.373 70.6806 179.813 70.9239 179.166 70.9239C178.464 70.9239 177.873 70.6806 177.395 70.194C176.916 69.7075 176.677 69.107 176.677 68.3927V46.2957H175.415C175.048 46.2957 174.748 46.1766 174.509 45.9333C174.269 45.69 174.152 45.3847 174.152 45.012C174.152 44.6703 174.269 44.3701 174.509 44.1113C174.748 43.8525 175.048 43.7283 175.415 43.7283H176.764C176.764 43.6713 176.779 43.6092 176.804 43.5368C176.83 43.4643 176.845 43.3867 176.845 43.2987C176.901 42.9001 176.972 42.5119 177.054 42.1444C177.14 41.7717 177.247 41.3887 177.39 40.9901C177.95 39.3648 178.795 37.9776 179.915 36.8336C180.194 36.5489 180.495 36.2746 180.821 36.021C181.141 35.7622 181.457 35.5344 181.767 35.3377C182.078 35.11 182.414 34.9081 182.78 34.7373C182.948 34.6803 183.126 34.6027 183.305 34.4992C183.488 34.4008 183.661 34.3232 183.834 34.2662C184.536 33.9816 185.244 33.7745 185.962 33.6451C186.679 33.5157 187.387 33.4225 188.089 33.3656C189.494 33.2207 190.864 33.231 192.197 33.3863C193.531 33.5416 194.844 33.7797 196.132 34.0954C198.321 34.6389 200.413 35.3532 202.408 36.2384V36.228Z" fill="#001D48"/>
<path d="M209.651 43.7178C209.987 43.7178 210.283 43.8472 210.537 44.1008C210.792 44.3545 210.914 44.6599 210.914 45.0015C210.914 45.3742 210.787 45.6796 210.537 45.9229C210.283 46.1661 209.987 46.2852 209.651 46.2852H191.459V63.0508C191.459 63.3769 191.484 63.6978 191.545 64.0136C191.601 64.3293 191.693 64.614 191.82 64.8728C191.948 65.1316 192.151 65.2714 192.431 65.3024C192.966 65.3594 193.5 65.318 194.029 65.173C194.564 65.0281 195.098 64.8366 195.628 64.5933C196.162 64.35 196.671 64.0653 197.165 63.7392C197.654 63.4131 198.097 63.1026 198.494 62.8179C199.14 62.3313 199.761 61.7826 200.367 61.1718C200.973 60.5559 201.466 59.8675 201.863 59.0962C201.95 58.8374 202.052 58.5165 202.179 58.1334C202.306 57.7504 202.372 57.357 202.388 56.9533C202.403 56.5547 202.357 56.1768 202.26 55.8197C202.164 55.4625 201.96 55.1985 201.65 55.0277C201.171 54.7689 200.82 54.8155 200.596 55.1571C200.372 55.4988 200.133 55.83 199.878 56.1406C199.654 56.4564 199.415 56.7566 199.16 57.0413C198.906 57.326 198.641 57.5848 198.361 57.8125C197.801 58.2421 197.211 58.4544 196.595 58.4544C195.979 58.4544 195.434 58.3042 194.976 58.004C194.513 57.7038 194.141 57.2742 193.861 56.7203C193.582 56.1613 193.485 55.5298 193.566 54.8155C193.678 54.0753 193.917 53.4231 194.284 52.8693C194.65 52.3102 195.114 51.8547 195.674 51.4976C196.234 51.1404 196.855 50.892 197.526 50.747C198.198 50.6021 198.886 50.5918 199.588 50.7056C201.385 50.9075 202.719 51.6788 203.589 53.0194C204.459 54.36 204.836 55.9025 204.724 57.6469C204.638 59.1894 204.185 60.6749 203.355 62.0984C202.525 63.527 201.497 64.8107 200.26 65.9546C199.023 67.0986 197.654 68.0303 196.152 68.7601C194.65 69.4899 193.154 69.9092 191.668 70.0231C190.889 70.08 190.079 70.0283 189.245 69.873C188.41 69.7177 187.743 69.2933 187.239 68.61C186.847 68.0096 186.638 67.3418 186.613 66.5965C186.588 65.8563 186.557 65.1264 186.532 64.4121C186.476 63.5839 186.47 62.7558 186.511 61.9276C186.552 61.0994 186.572 60.2867 186.572 59.4844V46.2955H184.694C184.353 46.2955 184.063 46.1765 183.818 45.9332C183.579 45.6899 183.457 45.3845 183.457 45.0119C183.457 44.6702 183.579 44.37 183.813 44.1112C184.053 43.8524 184.338 43.7282 184.679 43.7282H198.957C198.957 43.6143 198.936 43.3917 198.896 43.0656C198.855 42.7395 198.677 42.4082 198.366 42.0821C198.056 41.756 197.552 41.4817 196.849 41.2695C196.147 41.0573 195.109 41.021 193.734 41.1608C192.976 41.2747 192.182 41.3627 191.357 41.4196C190.527 41.4765 189.723 41.4403 188.934 41.3109C188.145 41.1815 187.417 40.933 186.745 40.5603C186.073 40.1877 185.524 39.5924 185.101 38.759C184.709 38.0447 184.541 37.2735 184.597 36.4453C184.653 35.6171 184.908 34.8769 185.356 34.2195C185.692 33.733 186.094 33.3655 186.557 33.1067C187.02 32.8479 187.534 32.7236 188.094 32.7236C188.573 32.7236 189.005 32.8323 189.402 33.0446C189.794 33.2568 190.059 33.6088 190.202 34.0953C190.288 34.4111 190.263 34.6957 190.141 34.9494C190.018 35.203 189.876 35.4722 189.718 35.7413C189.565 36.0105 189.423 36.2745 189.296 36.5333C189.168 36.7921 189.148 37.0923 189.234 37.4339C189.321 38.0033 189.601 38.4122 190.074 38.6555C190.553 38.8988 191.092 39.0489 191.693 39.1058C192.299 39.1628 192.894 39.1628 193.485 39.1058C194.075 39.0489 194.579 38.992 195.002 38.935C196.096 38.8212 197.206 38.7228 198.331 38.6348C199.451 38.5468 200.52 38.7332 201.532 39.1938C202.459 39.5924 203.131 40.2239 203.553 41.078C203.976 41.932 204.185 42.8172 204.185 43.7333H209.657L209.651 43.7178Z" fill="#001D48"/>
<path d="M237.572 43.7179C237.939 43.7179 238.239 43.8473 238.478 44.1009C238.717 44.3598 238.835 44.66 238.835 45.0016C238.835 45.3743 238.712 45.6797 238.478 45.923C238.239 46.1662 237.939 46.2853 237.572 46.2853H223.589C223.589 47.2274 223.594 48.2833 223.61 49.4531C223.625 50.6229 223.63 51.6219 223.63 52.4501V53.0091C223.63 53.2369 223.645 53.4595 223.671 53.6717C223.696 53.8839 223.767 54.0702 223.879 54.2307C223.991 54.386 224.144 54.4636 224.343 54.4636C224.847 54.4636 225.254 54.2876 225.564 53.9305C225.875 53.5733 226.17 53.2524 226.45 52.9677C226.842 52.595 227.285 52.2845 227.779 52.0257C228.267 51.7669 228.781 51.6426 229.316 51.6426C230.186 51.6426 230.904 51.8859 231.464 52.3725C232.024 52.859 232.446 53.4646 232.726 54.1945C233.006 54.9243 233.174 55.7059 233.23 56.5496C233.286 57.3933 233.256 58.1542 233.144 58.8427C232.864 60.556 232.273 62.1606 231.372 63.6617C230.471 65.1628 229.28 66.3688 227.794 67.2798C226.277 68.1649 224.643 68.6981 222.897 68.8844C221.146 69.0708 219.446 68.9051 217.797 68.3927C216.285 67.9372 214.961 67.2798 213.811 66.4206C212.477 65.3905 211.459 64.1068 210.752 62.5643C210.385 61.7931 210.1 60.996 209.902 60.1678C209.703 59.3396 209.561 58.4959 209.474 57.6418C209.387 57.1863 209.331 56.7411 209.306 56.3115C209.281 55.8819 209.235 55.4419 209.179 54.9864C209.179 54.4429 209.174 53.8994 209.158 53.3611C209.143 52.8176 209.138 52.2896 209.138 51.7772C209.138 51.094 209.377 50.509 209.861 50.0225C210.344 49.5359 210.925 49.2926 211.602 49.2926C212.279 49.2926 212.818 49.5359 213.302 50.0225C213.785 50.509 214.025 51.094 214.025 51.7772C214.025 52.6934 214.02 53.6458 214.004 54.6448C213.989 55.6438 214.03 56.6273 214.132 57.6004C214.228 58.5735 214.417 59.5208 214.697 60.4473C214.977 61.3738 215.394 62.2227 215.954 62.994C216.427 63.5944 216.952 64.1948 217.527 64.7901C218.097 65.3905 218.748 65.8305 219.476 66.1204C220.174 66.3481 220.881 66.4465 221.594 66.4206C222.307 66.3947 223.014 66.2498 223.711 65.991C224.638 65.6493 225.432 65.1007 226.089 64.3398C226.745 63.584 227.275 62.7507 227.667 61.8345C227.891 61.2082 228.059 60.5301 228.17 59.8003C228.282 59.0704 228.313 58.4079 228.257 57.8074C228.232 57.0672 227.977 56.6583 227.499 56.5859C227.02 56.5134 226.572 56.6376 226.15 56.9482C225.422 57.4917 224.617 58.0197 223.747 58.5321C222.877 59.0445 221.95 59.2154 220.968 59.0445C220.545 58.9565 220.189 58.7754 219.894 58.4907C219.599 58.206 219.354 57.8696 219.156 57.4865C218.957 57.1035 218.82 56.6946 218.733 56.2649C218.647 55.8353 218.606 55.4212 218.606 55.0227V52.947C218.606 52.2172 218.611 51.4615 218.626 50.6799C218.642 49.8931 218.647 49.1322 218.647 48.3868V46.2905L208.074 46.2491C207.738 46.2491 207.448 46.13 207.209 45.8867C206.97 45.6434 206.853 45.3381 206.853 44.9705C206.853 44.6289 206.975 44.3287 207.209 44.0751C207.448 43.8214 207.733 43.692 208.074 43.692H226.521C226.521 43.5782 226.501 43.3608 226.46 43.0295C226.419 42.7034 226.241 42.3721 225.931 42.046C225.62 41.7199 225.116 41.4508 224.414 41.2334C223.711 41.0211 222.673 40.9849 221.299 41.1247C220.515 41.2385 219.71 41.3213 218.896 41.3835C218.082 41.4404 217.277 41.4042 216.473 41.2748C215.674 41.1454 214.941 40.8969 214.284 40.5294C213.623 40.1567 213.083 39.5615 212.666 38.7384C212.274 38.0293 212.106 37.2529 212.162 36.4143C212.218 35.5758 212.472 34.8408 212.92 34.2145C213.231 33.7331 213.623 33.3449 214.101 33.0602C214.58 32.7755 215.099 32.6357 215.659 32.6357C216.107 32.6927 216.534 32.8273 216.941 33.0447C217.349 33.2621 217.623 33.5933 217.761 34.0488C217.847 34.3646 217.822 34.6544 217.7 34.9288C217.573 35.1979 217.435 35.4568 217.277 35.7C217.125 35.9433 216.982 36.2073 216.855 36.492C216.728 36.7767 216.692 37.0924 216.748 37.434C216.891 38.0034 217.191 38.4072 217.654 38.6349C218.117 38.8627 218.642 39.0076 219.232 39.0645C219.822 39.1215 220.418 39.1215 221.024 39.0645C221.63 39.0076 222.139 38.9662 222.561 38.9351C223.655 38.7902 224.77 38.6867 225.91 38.6142C227.046 38.5417 228.12 38.7384 229.133 39.1939C230.059 39.5925 230.731 40.224 231.153 41.0781C231.576 41.9321 231.785 42.8173 231.785 43.7334H237.552L237.572 43.7179Z" fill="#001D48"/>
<path d="M260.732 43.7178C261.068 43.7178 261.364 43.8472 261.618 44.1008C261.873 44.3597 261.995 44.6599 261.995 45.0015C261.995 45.3742 261.868 45.6796 261.618 45.9229C261.364 46.1661 261.068 46.2852 260.732 46.2852H242.54V63.0508C242.54 63.3769 242.565 63.6978 242.626 64.0136C242.682 64.3293 242.774 64.614 242.901 64.8728C243.029 65.1316 243.232 65.2714 243.512 65.3024C244.047 65.3594 244.581 65.318 245.111 65.173C245.645 65.0281 246.179 64.8366 246.709 64.5933C247.243 64.35 247.752 64.0653 248.246 63.7392C248.735 63.4131 249.178 63.1026 249.575 62.8179C250.221 62.3313 250.842 61.7826 251.448 61.1718C252.054 60.5559 252.547 59.8675 252.944 59.0962C253.031 58.8374 253.133 58.5165 253.26 58.1334C253.387 57.7504 253.453 57.357 253.469 56.9533C253.484 56.5547 253.438 56.1768 253.341 55.8197C253.245 55.4625 253.041 55.1985 252.731 55.0277C252.252 54.7689 251.901 54.8155 251.677 55.1571C251.453 55.4988 251.214 55.83 250.959 56.1406C250.735 56.4564 250.496 56.7566 250.241 57.0413C249.987 57.326 249.722 57.5848 249.442 57.8125C248.882 58.2421 248.292 58.4544 247.676 58.4544C247.06 58.4544 246.515 58.3042 246.057 58.004C245.594 57.7038 245.223 57.2742 244.943 56.7203C244.663 56.1613 244.566 55.5298 244.647 54.8155C244.759 54.0753 244.999 53.4231 245.365 52.8693C245.732 52.3102 246.195 51.8547 246.755 51.4976C247.315 51.1404 247.936 50.892 248.608 50.747C249.279 50.6021 249.967 50.5918 250.669 50.7056C252.466 50.9075 253.8 51.6788 254.67 53.0194C255.54 54.36 255.917 55.9025 255.805 57.6469C255.719 59.1894 255.266 60.6749 254.436 62.0984C253.606 63.527 252.578 64.8107 251.341 65.9546C250.104 67.0986 248.735 68.0303 247.233 68.7601C245.732 69.4899 244.235 69.9092 242.749 70.0231C241.97 70.08 241.16 70.0283 240.326 69.873C239.491 69.7177 238.824 69.2933 238.32 68.61C237.928 68.0096 237.719 67.3418 237.694 66.5965C237.669 65.8563 237.638 65.1264 237.613 64.4121C237.557 63.5839 237.552 62.7558 237.592 61.9276C237.633 61.0994 237.653 60.2867 237.653 59.4844V46.2955H235.775C235.434 46.2955 235.144 46.1765 234.899 45.9332C234.66 45.6899 234.538 45.3845 234.538 45.0119C234.538 44.6702 234.66 44.37 234.894 44.1112C235.134 43.8524 235.419 43.7282 235.76 43.7282H250.038C250.038 43.6143 250.018 43.3917 249.977 43.0656C249.936 42.7395 249.758 42.4082 249.447 42.0821C249.137 41.756 248.633 41.4817 247.931 41.2695C247.228 41.0573 246.19 41.021 244.815 41.1608C244.057 41.2747 243.263 41.3627 242.438 41.4196C241.608 41.4765 240.804 41.4403 240.015 41.3109C239.231 41.1815 238.498 40.933 237.826 40.5603C237.154 40.1877 236.605 39.5924 236.182 38.759C235.79 38.0447 235.622 37.2735 235.678 36.4453C235.734 35.6171 235.989 34.8769 236.437 34.2195C236.773 33.733 237.175 33.3655 237.638 33.1067C238.101 32.8479 238.615 32.7236 239.175 32.7236C239.654 32.7236 240.086 32.8323 240.483 33.0446C240.875 33.2568 241.14 33.6088 241.283 34.0953C241.369 34.4111 241.344 34.6957 241.222 34.9494C241.099 35.203 240.957 35.4722 240.799 35.7413C240.646 36.0105 240.504 36.2745 240.377 36.5333C240.249 36.7921 240.229 37.0923 240.316 37.4339C240.402 38.0033 240.682 38.4122 241.155 38.6555C241.634 38.8988 242.173 39.0489 242.774 39.1058C243.38 39.1628 243.975 39.1628 244.566 39.1058C245.156 39.0489 245.66 38.992 246.083 38.935C247.177 38.8212 248.287 38.7228 249.412 38.6348C250.532 38.5468 251.601 38.7332 252.614 39.1938C253.54 39.5924 254.212 40.2239 254.634 41.078C255.057 41.932 255.266 42.8172 255.266 43.7333H260.738L260.732 43.7178Z" fill="#001D48"/>
<path d="M114.312 43.7179H91.6552C91.3193 43.7179 91.0292 43.8473 90.7899 44.1009C90.5507 44.3597 90.4336 44.66 90.4336 45.0016V45.043C90.4336 45.4157 90.5558 45.7159 90.7899 45.9436C91.0292 46.1714 91.3142 46.2853 91.6552 46.2853H97.1273C95.8903 46.7977 94.8519 47.5897 94.012 48.6611C93.1721 49.7326 92.7089 51.0525 92.6224 52.6209C92.6224 53.1903 92.6937 53.7079 92.8311 54.1634C93.1111 55.0175 93.5895 55.5972 94.2615 55.8974C94.9334 56.1976 95.5951 56.2753 96.2416 56.1355C96.888 55.9906 97.448 55.6593 97.9264 55.1313C98.4049 54.6034 98.5983 53.9253 98.5169 53.0971C98.4914 52.7814 98.4253 52.4708 98.3286 52.155C98.2318 51.8393 98.1453 51.5339 98.074 51.2337C98.0028 50.9335 97.9773 50.6436 97.9875 50.3537C98.0028 50.0691 98.1046 49.7844 98.3031 49.4997C98.807 48.8992 99.4281 48.687 100.156 48.8578C100.884 48.9717 101.515 49.2875 102.05 49.7999C102.584 50.3123 102.991 50.9128 103.271 51.596C103.663 52.5691 103.826 53.5888 103.755 54.6603C103.684 55.7318 103.398 56.7256 102.889 57.6366C102.553 58.3199 102.09 58.9151 101.5 59.412C100.909 59.9141 100.293 60.3023 99.6469 60.5922C99.143 60.7941 98.634 60.9442 98.13 61.0425C97.6261 61.1409 97.1171 61.2082 96.6132 61.234H94.2971C93.5692 61.234 93.0347 61.5343 92.6988 62.1347C92.4748 62.3624 92.3628 62.6885 92.3628 63.1182V63.2062C92.3628 63.7497 92.546 64.2103 92.9075 64.5986C93.274 64.9816 93.7372 65.1783 94.2971 65.1783C95.5035 65.1783 96.6742 65.3905 97.8144 65.8201C98.9496 66.2498 100.039 66.8191 101.077 67.5334C102.116 68.2477 103.083 69.0552 103.984 69.9507C104.88 70.8514 105.684 71.7572 106.386 72.6682L106.473 72.7976C106.615 73.0564 106.865 73.2686 107.231 73.4394C107.679 73.6983 108.153 73.7604 108.641 73.631C109.13 73.5016 109.547 73.2376 109.883 72.839C110.275 72.3524 110.423 71.8348 110.326 71.2758C110.23 70.7168 109.98 70.225 109.588 69.8006C109.476 69.6557 109.349 69.5314 109.212 69.4176C108.621 68.8171 108.005 68.2684 107.359 67.7715C106.712 67.2746 106.04 66.7674 105.338 66.2497C104.523 65.7373 103.668 65.2663 102.767 64.8367C101.866 64.407 100.996 63.9515 100.156 63.465C101.281 63.1233 102.385 62.673 103.485 62.114C104.579 61.5601 105.521 60.8355 106.305 59.9504C107.43 58.7236 108.178 57.2536 108.56 55.5403C108.937 53.827 108.779 52.1706 108.076 50.5711C107.654 49.5721 107.043 48.7077 106.244 47.9831C105.445 47.2532 104.554 46.6942 103.572 46.2905H114.312C114.678 46.2905 114.974 46.1766 115.198 45.9488C115.422 45.7211 115.534 45.4209 115.534 45.0482V45.0068C115.534 44.6651 115.422 44.3649 115.198 44.1061C114.974 43.8473 114.678 43.7231 114.312 43.7231V43.7179Z" fill="#001D48"/>
<path d="M100.731 43.7955H100.522C100.522 43.7955 100.522 30.4721 73.4624 24.535C46.4027 18.5979 21.0533 29.1677 17.0625 42.9259C17.0625 42.9259 26.4642 23.0857 62.9205 25.6945C83.9585 27.2007 94.7345 35.3584 97.3662 43.8835H100.736C100.736 43.8576 100.731 43.8266 100.726 43.8007L100.731 43.7955Z" fill="#001D48"/>
<path d="M82.5382 53.9719V60.9649L72.2661 55.1366V88.0001L65.3434 85.148V51.2545L52.46 43.9716V36.9838L82.5382 53.9719Z" fill="#F05A30"/>
<path d="M52.46 58.5321L59.1536 54.7483L52.46 50.9697V58.5321Z" fill="#00344D"/>
<path d="M52.46 88L59.3929 85.1479V61.6067L52.46 65.5199V88Z" fill="#F05A30"/>
<path d="M46.5202 47.6052V71.3638C46.5202 80.5463 39.175 88.0052 30.155 88.0052C23.9195 88.0052 18.4882 84.4543 15.7344 79.2264L21.7918 75.805C23.3748 78.8692 26.5308 80.9656 30.155 80.9656C35.3573 80.9656 39.5822 76.6538 39.5822 71.3638V43.692L46.5151 47.6052H46.5202Z" fill="#F05A30"/>
<path d="M46.5196 33.6244V40.6174L39.5918 36.6991V29.7061L46.5196 33.6244Z" fill="#00344D"/>
<path d="M26.4235 22.299L22.9622 22.801L21.8168 27.149L19.1699 37.1753L26.4235 22.299Z" fill="#00344D"/>
<path d="M8.53634 18.9344L69.7109 3.1937L107.903 29.266L99.046 33.0032L115.645 30.0528L70.5101 0L0 17.8474L21.8168 27.149L8.53634 18.9344Z" fill="#00344D"/>
<path d="M116.5 85.1686H115.365V78.9003H113.996V77.8961H122.37V78.9003H116.495V83.5226C116.959 82.9636 117.513 82.4097 118.165 81.8611C118.817 81.3124 119.341 80.9449 119.733 80.7534H120.853V87.5031H119.733V81.9956C119.234 82.3424 118.674 82.8186 118.053 83.4243C117.437 84.0299 116.913 84.6096 116.495 85.1686H116.5Z" fill="#00344D"/>
<path d="M136.261 83.8176C136.261 84.5578 136.047 85.1427 135.619 85.5775C135.192 86.0123 134.647 86.2297 133.98 86.2297C133.782 86.2297 133.65 86.2297 133.583 86.2142V85.1686H133.731C134.663 85.1686 135.131 84.7183 135.131 83.8228C135.131 82.9273 134.495 82.4149 133.217 82.4149C133.029 82.4149 132.749 82.4356 132.377 82.477V87.503H131.232C129.613 85.9864 127.908 85.2307 126.126 85.2307C125.617 85.2307 125.225 85.3653 124.95 85.6344C124.675 85.9036 124.538 86.2866 124.538 86.7887V86.9699H123.403C123.383 86.8094 123.372 86.6852 123.372 86.5972C123.372 85.4999 123.871 84.7648 124.874 84.3973C125.072 84.1178 125.169 83.7814 125.169 83.3776C125.169 82.6685 124.625 82.3165 123.535 82.3165H122.873V81.2865H123.388C124.467 81.2865 125.006 80.8051 125.006 79.8475C125.006 79.4696 124.92 79.1539 124.742 78.9054H121.784V77.9012H137.706V78.9054H132.377V81.4935C132.703 81.4417 132.993 81.421 133.247 81.421C134.199 81.421 134.942 81.6333 135.472 82.0577C136.001 82.4822 136.266 83.0722 136.266 83.8331L136.261 83.8176ZM126.299 83.3673C126.299 83.6778 126.243 83.9574 126.136 84.2058C127.058 84.2162 127.979 84.4129 128.905 84.8062C129.827 85.1945 130.6 85.6603 131.232 86.1986V82.684C130.819 82.7513 130.483 82.7875 130.229 82.7875C129.491 82.7772 128.911 82.5753 128.483 82.1716C128.055 81.773 127.842 81.2502 127.842 80.598V78.8899H125.897C126.065 79.1798 126.147 79.5059 126.147 79.863C126.147 80.8206 125.699 81.4417 124.808 81.7213C125.8 81.9387 126.294 82.4873 126.294 83.3673H126.299ZM130.259 81.7523C130.458 81.7523 130.779 81.7213 131.232 81.6643V78.8951H128.997V80.5877C128.997 81.3641 129.42 81.7575 130.265 81.7575L130.259 81.7523Z" fill="#00344D"/>
<path d="M147.566 78.895H137.116V77.8909H147.566V78.895ZM146.284 82.8134C146.284 83.331 146.212 83.8279 146.065 84.3041C145.917 84.7803 145.698 85.21 145.403 85.6085C145.108 86.0019 144.706 86.3177 144.197 86.5506C143.688 86.7835 143.102 86.9026 142.446 86.9026C141.132 86.9026 140.125 86.4264 139.422 85.474C138.72 84.5215 138.368 83.3207 138.368 81.8765C138.368 81.3796 138.399 80.9034 138.455 80.4531H139.575C139.519 80.8206 139.488 81.2968 139.488 81.8765C139.488 83.036 139.743 83.9936 140.247 84.7493C140.751 85.505 141.484 85.888 142.446 85.888C143.321 85.888 143.988 85.6034 144.446 85.034C144.909 84.4646 145.138 83.7296 145.138 82.8186C145.138 82.2699 145.037 81.8144 144.838 81.4572C144.635 81.1001 144.314 80.9189 143.876 80.9189C143.515 80.9189 143.235 81.0483 143.036 81.302C142.838 81.5556 142.741 81.8869 142.741 82.2958C142.741 82.6426 142.797 83.0308 142.904 83.4501H141.845C141.697 83.0722 141.626 82.6737 141.626 82.2544C141.626 81.5867 141.82 81.0276 142.206 80.5877C142.593 80.1425 143.143 79.9199 143.861 79.9199C144.579 79.9199 145.184 80.2046 145.627 80.774C146.07 81.3434 146.289 82.0266 146.289 82.8238L146.284 82.8134Z" fill="#00344D"/>
<path d="M151.435 78.8951H149.77V87.4979H148.635V80.1063C148.635 79.7181 148.564 79.4179 148.432 79.2057C148.294 78.9986 148.05 78.8899 147.694 78.8899H146.971V77.8857H147.734C148.208 77.8857 148.549 78.098 148.762 78.5276C148.686 78.0669 148.645 77.5855 148.645 77.0783V76.6279H149.765V77.8857H151.43V78.8899L151.435 78.8951Z" fill="#00344D"/>
<path d="M163.27 83.2482C163.27 84.418 162.934 85.3756 162.267 86.1313C161.6 86.8871 160.674 87.2597 159.488 87.2597C158.205 87.2597 157.192 86.8094 156.454 85.9139C155.716 85.0133 155.35 83.8279 155.35 82.3527C155.35 81.9542 155.38 81.5349 155.436 81.0949H156.556C156.515 81.4521 156.5 81.861 156.5 82.3217C156.5 83.507 156.76 84.4594 157.274 85.1737C157.788 85.8881 158.526 86.2452 159.488 86.2452C160.353 86.2452 161.015 85.9657 161.483 85.4067C161.952 84.8477 162.181 84.1023 162.181 83.1757C162.181 83.036 162.171 82.8445 162.15 82.6064C161.514 83.0049 160.883 83.2068 160.267 83.2068C159.687 83.2068 159.223 83.0256 158.867 82.6685C158.516 82.3113 158.338 81.8144 158.338 81.1881V78.9002H154.174V77.8961H161.784C161.835 77.6476 161.855 77.394 161.855 77.1352C161.855 76.4674 161.499 76.131 160.781 76.131C160.537 76.131 160.038 76.1931 159.295 76.3121C158.551 76.4312 157.946 76.4933 157.482 76.4933C156.826 76.4933 156.266 76.395 155.803 76.1931V75.2666C156.291 75.4167 156.826 75.4891 157.406 75.4891C157.757 75.4891 158.333 75.427 159.127 75.3028C159.921 75.1786 160.486 75.1165 160.822 75.1165C161.509 75.1165 162.033 75.2873 162.389 75.6341C162.746 75.9809 162.929 76.4416 162.929 77.0161C162.929 77.337 162.893 77.6321 162.827 77.9012H164.359V78.9054H159.488V81.1933C159.488 81.8507 159.783 82.1819 160.369 82.1819C160.644 82.1819 160.934 82.125 161.244 82.0163C161.555 81.9076 161.814 81.7885 162.033 81.6643C162.247 81.5401 162.547 81.3589 162.929 81.1156C163.153 81.7264 163.265 82.4356 163.265 83.2534L163.27 83.2482Z" fill="#00344D"/>
<path d="M171.053 87.679H169.918C169.694 87.1303 169.368 86.6645 168.946 86.2866C168.523 85.9088 168.004 85.7172 167.383 85.7172C166.64 85.7172 166.263 86.1054 166.263 86.887C166.263 87.0889 166.263 87.2338 166.278 87.3374H165.143C165.113 87.1303 165.097 86.9543 165.097 86.8146C165.097 86.1676 165.291 85.6551 165.678 85.2721C166.064 84.8942 166.604 84.7027 167.291 84.7027C168.411 84.7027 169.281 85.1582 169.913 86.064V84.7027C169.913 83.8849 169.663 83.1861 169.17 82.6012C168.676 82.0163 168.039 81.7264 167.266 81.7264C166.803 81.7264 166.446 81.8662 166.187 82.1405C165.927 82.4148 165.795 82.7875 165.795 83.2534C165.795 83.5122 165.81 83.7399 165.84 83.9418H164.721C164.67 83.6209 164.649 83.3724 164.649 83.1913C164.649 82.4718 164.878 81.8765 165.342 81.4003C165.805 80.9241 166.416 80.6912 167.179 80.6912C168.416 80.6912 169.327 81.1777 169.918 82.1405V78.895H163.764V77.8909H172.712V78.895H171.048V87.679H171.053Z" fill="#00344D"/>
<path d="M181.061 78.8951H179.396V87.4979H178.246L173.288 84.9512V83.652L175.935 81.6592L173.298 79.7595V78.8899H172.122V77.8857H181.055V78.8899L181.061 78.8951ZM175.263 86.6645C175.421 86.8198 175.497 87.0061 175.497 87.2235C175.497 87.4409 175.421 87.6273 175.268 87.7774C175.115 87.9275 174.927 88 174.703 88C174.479 88 174.296 87.9275 174.153 87.7774C174.011 87.6273 173.939 87.4409 173.939 87.2235C173.939 87.0061 174.011 86.8146 174.158 86.6645C174.306 86.5092 174.489 86.4316 174.703 86.4316C174.917 86.4316 175.105 86.5092 175.263 86.6645ZM176.912 81.0536V82.2492L174.397 84.2265L178.251 86.2763V78.9003H174.056L176.912 81.0536Z" fill="#00344D"/>
<path d="M184.857 87.6065C184.781 87.6169 184.643 87.6221 184.445 87.6221C183.503 87.6221 182.816 87.2494 182.383 86.4988C181.951 85.7483 181.727 84.77 181.706 83.5484C181.706 81.2813 182.159 79.7336 183.06 78.895H180.454V77.8909H185.264V78.895H185.045C184.623 78.895 184.262 79.0296 183.966 79.2988C183.671 79.5679 183.437 79.9355 183.274 80.3961C183.111 80.862 182.994 81.3537 182.928 81.8713C182.862 82.389 182.826 82.948 182.826 83.5484C182.826 85.5723 183.412 86.5868 184.577 86.5868H184.857V87.6065Z" fill="#00344D"/>
<path d="M191.969 87.503H190.834V87.4409C190.518 84.3093 189.643 82.7409 188.197 82.7409C187.713 82.7409 187.347 82.891 187.092 83.1913C186.838 83.4915 186.711 83.9004 186.711 84.418C186.711 84.6768 186.726 84.9046 186.757 85.1064H185.637C185.586 84.7855 185.565 84.5371 185.565 84.3559C185.565 83.5898 185.794 82.948 186.258 82.4407C186.721 81.9335 187.337 81.6798 188.111 81.6798C189.388 81.6798 190.294 82.3941 190.834 83.8176V78.895H184.68V77.8909H193.598V78.895H191.964V87.4978L191.969 87.503Z" fill="#00344D"/>
<path d="M201.324 78.895H199.66V87.4978H198.54L193.933 83.9211V82.6219C194.58 82.0111 195.313 81.4676 196.127 80.9914C196.942 80.51 197.746 80.1736 198.54 79.9717V78.895H193.007V77.8909H201.324V78.895ZM195.231 86.4885C195.389 86.6438 195.465 86.8301 195.465 87.0475C195.465 87.2649 195.389 87.4513 195.236 87.6014C195.084 87.7515 194.895 87.8239 194.671 87.8239C194.447 87.8239 194.264 87.7515 194.122 87.6014C193.979 87.4513 193.908 87.2649 193.908 87.0475C193.908 86.8301 193.979 86.6386 194.127 86.4885C194.274 86.3332 194.458 86.2556 194.671 86.2556C194.885 86.2556 195.073 86.3332 195.231 86.4885ZM198.545 86.152V81.0639C197.298 81.4728 196.092 82.2078 194.926 83.2637L198.545 86.152Z" fill="#00344D"/>
<path d="M211.525 87.503H210.375V84.2834C210.375 83.8952 210.293 83.5743 210.125 83.3207C209.957 83.067 209.703 82.9376 209.362 82.9376C209.127 82.9376 208.909 83.0205 208.705 83.1913C208.501 83.3621 208.318 83.5691 208.15 83.8124C207.982 84.0557 207.809 84.3041 207.621 84.5526C207.432 84.8011 207.198 85.0133 206.913 85.1789C206.628 85.3497 206.302 85.4325 205.941 85.4325C205.615 85.4325 205.279 85.3653 204.923 85.2255V84.2058C205.249 84.3041 205.534 84.3559 205.778 84.3559C206.053 84.3559 206.287 84.2783 206.486 84.1178C206.684 83.9573 206.903 83.6985 207.147 83.3414C207.392 82.9842 207.57 82.7358 207.677 82.6064C207.57 81.7575 207.28 81.0846 206.817 80.5773C206.348 80.0752 205.742 79.8216 204.999 79.8216V78.895H204.058V77.8909H213.184V78.895H211.52V87.4978L211.525 87.503ZM209.168 81.8765C209.728 81.8765 210.13 82.0836 210.375 82.4925V78.9002H206.165C206.832 79.1176 207.376 79.5058 207.799 80.0597C208.221 80.6135 208.496 81.245 208.624 81.9542C208.802 81.9024 208.98 81.8817 209.168 81.8817V81.8765Z" fill="#00344D"/>
<path d="M222.077 78.895H220.326V87.4978H219.181V86.0174C219.181 85.1479 218.967 84.4698 218.539 83.9832C218.112 83.4967 217.511 83.2482 216.737 83.2482C216.188 83.2482 215.75 83.388 215.419 83.6726C215.088 83.9573 214.925 84.3611 214.925 84.8787C214.925 85.3963 215.083 85.7949 215.394 86.0692C215.704 86.3436 216.111 86.4781 216.6 86.4781C216.844 86.4781 217.124 86.4522 217.44 86.4057V87.4098C217.124 87.472 216.814 87.4978 216.498 87.4978C215.694 87.4978 215.037 87.2701 214.528 86.8146C214.019 86.3591 213.765 85.7121 213.765 84.8787C213.765 84.2317 213.953 83.6778 214.325 83.2171C214.696 82.7565 215.195 82.4562 215.811 82.3061C215.714 80.6498 214.966 79.8216 213.576 79.8216V78.895H212.589V77.8909H222.082V78.895H222.077ZM219.176 83.507V78.895H214.717C215.414 79.1124 215.938 79.5214 216.3 80.1218C216.656 80.7222 216.865 81.4262 216.926 82.2337C217.985 82.3113 218.738 82.7358 219.176 83.507Z" fill="#00344D"/>
<path d="M225.89 78.8951H224.225V87.4979H223.09V80.1063C223.09 79.7181 223.019 79.4179 222.887 79.2057C222.749 78.9986 222.505 78.8899 222.149 78.8899H221.426V77.8857H222.189C222.663 77.8857 223.004 78.098 223.218 78.5276C223.141 78.0669 223.1 77.5855 223.1 77.0783V76.6279H224.22V77.8857H225.885V78.8899L225.89 78.8951Z" fill="#00344D"/>
<path d="M234.263 78.8951H232.598V87.4978H231.453L226.521 85.0288V83.771C226.999 83.4294 227.686 82.9894 228.582 82.4407C227.946 82.389 227.406 82.1664 226.963 81.7678C226.521 81.3693 226.302 80.8413 226.302 80.1839C226.302 79.4437 226.546 78.8588 227.03 78.4188C227.513 77.9789 228.17 77.7615 228.995 77.7615C229.3 77.7615 229.59 77.7925 229.865 77.8495V78.8381C229.687 78.7967 229.402 78.776 229.01 78.776C228.536 78.776 228.165 78.9002 227.885 79.1487C227.605 79.3971 227.467 79.7491 227.467 80.1943C227.467 80.6394 227.61 81.0018 227.895 81.2399C228.18 81.478 228.557 81.597 229.03 81.597C229.61 81.597 230.13 81.4676 230.588 81.2088C230.705 81.1415 230.863 81.0483 231.061 80.9345C231.26 80.8206 231.392 80.743 231.458 80.7015V77.8857H234.268V78.8899L234.263 78.8951ZM231.453 86.3177V81.9024L227.671 84.3559L231.453 86.3177Z" fill="#00344D"/>
<path d="M238.132 78.8951H236.468V87.4979H235.332V80.1063C235.332 79.7181 235.261 79.4179 235.129 79.2057C234.991 78.9986 234.747 78.8899 234.391 78.8899H233.668V77.8857H234.432C234.905 77.8857 235.246 78.098 235.46 78.5276C235.383 78.0669 235.343 77.5855 235.343 77.0783V76.6279H236.463V77.8857H238.127V78.8899L238.132 78.8951Z" fill="#00344D"/>
<path d="M244.83 87.503H243.695V87.4409C243.38 84.3093 242.504 82.7409 241.058 82.7409C240.575 82.7409 240.208 82.891 239.954 83.1913C239.699 83.4915 239.572 83.9004 239.572 84.418C239.572 84.6768 239.587 84.9046 239.618 85.1064H238.498C238.447 84.7855 238.427 84.5371 238.427 84.3559C238.427 83.5898 238.656 82.948 239.119 82.4407C239.582 81.9335 240.198 81.6798 240.972 81.6798C242.249 81.6798 243.156 82.3941 243.695 83.8176V78.895H237.541V77.8909H246.459V78.895H244.825V87.4978L244.83 87.503Z" fill="#00344D"/>
</g>
<defs>
<clipPath id="clip0_296_2">
<rect width="262" height="88" fill="white"/>
</clipPath>
</defs>
</svg>
