<svg width="18" height="19" viewBox="0 0 18 19" fill="none" xmlns="http://www.w3.org/2000/svg">
<path d="M12.075 2.75C11.9744 3.24495 11.9744 3.75505 12.075 4.25H3.38325L9.04575 9.2465L12.8325 5.8565C13.152 6.25175 13.551 6.581 14.0048 6.82025L9.054 11.2535L3 5.912V14.75H15V7.175C15.4949 7.27554 16.0051 7.27554 16.5 7.175V15.5C16.5 15.6989 16.4209 15.8897 16.2803 16.0303C16.1397 16.1709 15.9489 16.25 15.75 16.25H2.25C2.05108 16.25 1.86032 16.1709 1.71967 16.0303C1.57902 15.8897 1.5 15.6989 1.5 15.5V3.5C1.5 3.30108 1.57902 3.11032 1.71967 2.96967C1.86032 2.82902 2.05108 2.75 2.25 2.75H12.075ZM15.75 5.75C15.4545 5.75 15.1619 5.6918 14.8889 5.57873C14.616 5.46565 14.368 5.29992 14.159 5.09099C13.9501 4.88205 13.7843 4.63402 13.6713 4.36104C13.5582 4.08805 13.5 3.79548 13.5 3.5C13.5 3.20452 13.5582 2.91195 13.6713 2.63896C13.7843 2.36598 13.9501 2.11795 14.159 1.90901C14.368 1.70007 14.616 1.53435 14.8889 1.42127C15.1619 1.3082 15.4545 1.25 15.75 1.25C16.3467 1.25 16.919 1.48705 17.341 1.90901C17.7629 2.33097 18 2.90326 18 3.5C18 4.09674 17.7629 4.66903 17.341 5.09099C16.919 5.51295 16.3467 5.75 15.75 5.75Z" fill="#001D48"/>
</svg>
