<svg width="18" height="18" viewBox="0 0 18 18" fill="none" xmlns="http://www.w3.org/2000/svg">
<path d="M9 15.6749L12.7125 11.9624C13.4467 11.2282 13.9466 10.2927 14.1492 9.27436C14.3517 8.25593 14.2477 7.20039 13.8503 6.24111C13.453 5.28183 12.78 4.46192 11.9167 3.88507C11.0533 3.30821 10.0383 3.00032 9 3.00032C7.9617 3.00032 6.94666 3.30821 6.08332 3.88507C5.21997 4.46192 4.54706 5.28183 4.14969 6.24111C3.75231 7.20039 3.64831 8.25593 3.85084 9.27436C4.05337 10.2927 4.55333 11.2282 5.2875 11.9624L9 15.6749ZM9 17.7959L4.227 13.0229C3.283 12.0789 2.64014 10.8762 2.3797 9.56686C2.11925 8.25743 2.25293 6.90026 2.76382 5.66687C3.27472 4.43348 4.13988 3.37928 5.24991 2.63758C6.35994 1.89588 7.665 1.5 9 1.5C10.335 1.5 11.6401 1.89588 12.7501 2.63758C13.8601 3.37928 14.7253 4.43348 15.2362 5.66687C15.7471 6.90026 15.8807 8.25743 15.6203 9.56686C15.3598 10.8762 14.717 12.0789 13.773 13.0229L9 17.7959ZM9 9.74993C9.3978 9.74993 9.77932 9.59191 10.0606 9.31058C10.342 9.02933 10.5 8.64773 10.5 8.24993C10.5 7.85213 10.342 7.47059 10.0606 7.18928C9.77932 6.90798 9.3978 6.74994 9 6.74994C8.6022 6.74994 8.22067 6.90798 7.93935 7.18928C7.65802 7.47059 7.5 7.85213 7.5 8.24993C7.5 8.64773 7.65802 9.02933 7.93935 9.31058C8.22067 9.59191 8.6022 9.74993 9 9.74993ZM9 11.2499C8.20432 11.2499 7.44129 10.9339 6.87868 10.3712C6.31607 9.80866 6 9.04561 6 8.24993C6 7.4543 6.31607 6.69123 6.87868 6.12862C7.44129 5.56601 8.20432 5.24994 9 5.24994C9.79567 5.24994 10.5587 5.56601 11.1213 6.12862C11.6839 6.69123 12 7.4543 12 8.24993C12 9.04561 11.6839 9.80866 11.1213 10.3712C10.5587 10.9339 9.79567 11.2499 9 11.2499Z" fill="#001D48"/>
</svg>
