<svg width="18" height="18" viewBox="0 0 18 18" fill="none" xmlns="http://www.w3.org/2000/svg">
<path d="M7.11412 8.45764C7.78588 9.63778 8.7632 10.6151 9.94335 11.2869L10.5763 10.4006C10.678 10.2581 10.8285 10.1578 10.9992 10.1188C11.17 10.0797 11.3491 10.1046 11.5026 10.1887C12.5151 10.742 13.6333 11.0748 14.7836 11.1652C14.9632 11.1794 15.1308 11.2608 15.2529 11.3931C15.3752 11.5254 15.443 11.6989 15.443 11.8789V15.0734C15.443 15.2506 15.3773 15.4216 15.2586 15.5532C15.1398 15.6847 14.9765 15.7676 14.8001 15.7857C14.4207 15.825 14.0384 15.8443 13.6532 15.8443C7.52505 15.8443 2.55664 10.8759 2.55664 4.74778C2.55664 4.36262 2.57597 3.98033 2.61535 3.60089C2.63343 3.42457 2.71628 3.26121 2.84786 3.14245C2.97945 3.02369 3.15042 2.95798 3.32768 2.95801H6.52206C6.70216 2.95799 6.87564 3.02584 7.00793 3.14805C7.14023 3.27026 7.22159 3.43783 7.23582 3.61736C7.32619 4.76768 7.65898 5.88585 8.21232 6.89837C8.29642 7.05198 8.3213 7.23108 8.28224 7.4018C8.24319 7.57251 8.14292 7.72299 8.00041 7.82476L7.11412 8.45764ZM5.3086 7.98727L6.66882 7.01578C6.28279 6.18254 6.01831 5.2982 5.88347 4.38983H3.99562C3.99132 4.50867 3.98917 4.62823 3.98917 4.74778C3.98846 10.0856 8.31541 14.4125 13.6532 14.4125C13.7728 14.4125 13.8923 14.4104 14.0112 14.4054V12.5175C13.1028 12.3827 12.2185 12.1182 11.3852 11.7322L10.4137 13.0924C10.0226 12.9405 9.64275 12.761 9.27686 12.5555L9.23538 12.5319C7.83116 11.7327 6.66831 10.5699 5.86915 9.16569L5.84553 9.12413C5.63999 8.75832 5.46057 8.37844 5.3086 7.98727Z" fill="#001D48"/>
</svg>
