<svg width="10" height="10" viewBox="0 0 10 10" fill="none" xmlns="http://www.w3.org/2000/svg">
<path d="M4.15175 4.74725C4.62092 5.57149 5.30351 6.25408 6.12775 6.72325L6.56975 6.10425C6.64083 6.00472 6.74592 5.93469 6.86515 5.90741C6.98435 5.88014 7.10945 5.89751 7.21677 5.95625C7.92387 6.34271 8.70485 6.57514 9.50825 6.63825C9.63365 6.64819 9.75065 6.70502 9.836 6.79741C9.92135 6.8898 9.96875 7.01095 9.96875 7.13672V9.36775C9.96875 9.49157 9.92285 9.61098 9.8399 9.70285C9.75703 9.79472 9.64288 9.85262 9.51973 9.86522C9.25475 9.89275 8.98775 9.90625 8.71872 9.90625C4.43875 9.90625 0.96875 6.43625 0.96875 2.15625C0.96875 1.88725 0.98225 1.62025 1.00975 1.35525C1.02238 1.2321 1.08024 1.11801 1.17214 1.03507C1.26405 0.95212 1.38345 0.90622 1.50725 0.90625H3.73825C3.86403 0.906235 3.9852 0.953628 4.07759 1.03898C4.16998 1.12433 4.22681 1.24137 4.23675 1.36675C4.29986 2.17014 4.53229 2.95109 4.91875 3.65825C4.97749 3.76554 4.99485 3.89062 4.96759 4.00985C4.94031 4.12908 4.87028 4.23417 4.77075 4.30525L4.15175 4.74725ZM2.89075 4.41875L3.84075 3.74025C3.57115 3.1583 3.38643 2.54067 3.29225 1.90625H1.97375C1.97075 1.98925 1.96925 2.07275 1.96925 2.15625C1.96875 5.88425 4.99075 8.90627 8.71872 8.90627C8.80227 8.90627 8.88575 8.90477 8.96877 8.90125V7.58275C8.33435 7.48855 7.71673 7.30382 7.13473 7.03428L6.45625 7.98422C6.18308 7.8781 5.91775 7.75277 5.66225 7.60922L5.63325 7.59273C4.65254 7.03458 3.84039 6.22246 3.28225 5.24175L3.26575 5.21275C3.1222 4.95725 2.99689 4.69192 2.89075 4.41875Z" fill="#FF8C4B"/>
</svg>
