<svg width="14" height="12" viewBox="0 0 14 12" fill="none" xmlns="http://www.w3.org/2000/svg">
<path d="M0.520996 0.666667C0.520996 0.489853 0.591236 0.320287 0.716256 0.19526C0.841283 0.0702401 1.01085 0 1.18766 0H13.1877C13.3645 0 13.5341 0.0702401 13.6591 0.19526C13.7841 0.320287 13.8543 0.489853 13.8543 0.666667V4.33333C13.4123 4.33333 12.9884 4.50893 12.6758 4.82147C12.3633 5.13407 12.1877 5.558 12.1877 6C12.1877 6.442 12.3633 6.86593 12.6758 7.17853C12.9884 7.49107 13.4123 7.66667 13.8543 7.66667V11.3333C13.8543 11.5101 13.7841 11.6797 13.6591 11.8047C13.5341 11.9297 13.3645 12 13.1877 12H1.18766C1.01085 12 0.841283 11.9297 0.716256 11.8047C0.591236 11.6797 0.520996 11.5101 0.520996 11.3333V0.666667ZM4.57766 10.6667C4.64638 10.4713 4.77403 10.3021 4.943 10.1825C5.11198 10.0628 5.31393 9.99853 5.521 9.99853C5.72806 9.99853 5.93 10.0628 6.099 10.1825C6.26793 10.3021 6.3956 10.4713 6.46433 10.6667H12.521V8.688C12.0202 8.4398 11.5987 8.05667 11.304 7.58167C11.0093 7.10673 10.8531 6.55893 10.8531 6C10.8531 5.44107 11.0093 4.89327 11.304 4.41831C11.5987 3.94337 12.0202 3.5602 12.521 3.312V1.33333H6.46433C6.3956 1.52866 6.26793 1.69785 6.099 1.81753C5.93 1.93721 5.72806 2.00149 5.521 2.00149C5.31393 2.00149 5.11198 1.93721 4.943 1.81753C4.77403 1.69785 4.64638 1.52866 4.57766 1.33333H1.85433V10.6667H4.57766ZM5.521 5.33333C5.25578 5.33333 5.00142 5.228 4.81389 5.04047C4.62636 4.85293 4.521 4.59855 4.521 4.33333C4.521 4.06812 4.62636 3.81376 4.81389 3.62623C5.00142 3.43869 5.25578 3.33333 5.521 3.33333C5.78621 3.33333 6.0406 3.43869 6.22813 3.62623C6.41566 3.81376 6.521 4.06812 6.521 4.33333C6.521 4.59855 6.41566 4.85293 6.22813 5.04047C6.0406 5.228 5.78621 5.33333 5.521 5.33333ZM5.521 8.66667C5.25578 8.66667 5.00142 8.56133 4.81389 8.3738C4.62636 8.18627 4.521 7.93187 4.521 7.66667C4.521 7.40147 4.62636 7.14707 4.81389 6.95953C5.00142 6.772 5.25578 6.66667 5.521 6.66667C5.78621 6.66667 6.0406 6.772 6.22813 6.95953C6.41566 7.14707 6.521 7.40147 6.521 7.66667C6.521 7.93187 6.41566 8.18627 6.22813 8.3738C6.0406 8.56133 5.78621 8.66667 5.521 8.66667Z" fill="#050400"/>
</svg>
