<svg width="18" height="20" viewBox="0 0 18 20" fill="none" xmlns="http://www.w3.org/2000/svg">
<path d="M9.61285 11.9747V13.8072C8.81922 13.5266 7.96992 13.4405 7.13622 13.5563C6.30247 13.6719 5.50866 13.9859 4.82144 14.472C4.13422 14.958 3.57366 15.6019 3.18683 16.3494C2.79999 17.097 2.59818 17.9265 2.59835 18.7682L0.844727 18.7673C0.844449 17.6967 1.08928 16.6401 1.56046 15.6787C2.03165 14.7172 2.71666 13.8764 3.56303 13.2206C4.4094 12.5649 5.39465 12.1115 6.44332 11.8955C7.49195 11.6793 8.57617 11.7062 9.61285 11.9738V11.9747ZM7.85925 10.8769C4.95259 10.8769 2.59835 8.52267 2.59835 5.61603C2.59835 2.7094 4.95259 0.355164 7.85925 0.355164C10.7658 0.355164 13.1201 2.7094 13.1201 5.61603C13.1201 8.52267 10.7658 10.8769 7.85925 10.8769ZM7.85925 9.12327C9.79698 9.12327 11.3664 7.55379 11.3664 5.61603C11.3664 3.67827 9.79698 2.10879 7.85925 2.10879C5.92147 2.10879 4.35197 3.67827 4.35197 5.61603C4.35197 7.55379 5.92147 9.12327 7.85925 9.12327ZM12.9386 16.9392L16.0381 13.8397L17.2788 15.0794L12.9386 19.4196L9.8382 16.3193L11.0789 15.0794L12.9377 16.9392H12.9386Z" fill="#A144FF"/>
</svg>
