<svg width="18" height="18" viewBox="0 0 18 18" fill="none" xmlns="http://www.w3.org/2000/svg">
<path d="M9.09376 17.627C4.32882 17.627 0.466309 13.7646 0.466309 8.99957C0.466309 4.23463 4.32882 0.372131 9.09376 0.372131C13.8587 0.372131 17.7212 4.23463 17.7212 8.99957C17.7212 13.7646 13.8587 17.627 9.09376 17.627ZM9.09376 15.9015C10.9243 15.9015 12.6798 15.1744 13.9742 13.88C15.2685 12.5856 15.9957 10.8301 15.9957 8.99957C15.9957 7.16907 15.2685 5.41352 13.9742 4.11916C12.6798 2.82478 10.9243 2.09762 9.09376 2.09762C7.26325 2.09762 5.50771 2.82478 4.21334 4.11916C2.91897 5.41352 2.19181 7.16907 2.19181 8.99957C2.19181 10.8301 2.91897 12.5856 4.21334 13.88C5.50771 15.1744 7.26325 15.9015 9.09376 15.9015ZM9.95651 8.99957H13.4075V10.7251H8.23101V4.68585H9.95651V8.99957Z" fill="#FFA36F"/>
</svg>
