<svg width="14" height="14" viewBox="0 0 14 14" fill="none" xmlns="http://www.w3.org/2000/svg">
<path d="M8.04338 10.3487L5.24402 8.82202C4.87855 9.21269 4.40401 9.48442 3.88206 9.60189C3.36012 9.71942 2.81492 9.67716 2.3173 9.48069C1.81968 9.28422 1.39266 8.94262 1.09173 8.50029C0.790803 8.05796 0.629883 7.53536 0.629883 7.00036C0.629883 6.46536 0.790803 5.94269 1.09173 5.50036C1.39266 5.05803 1.81968 4.71643 2.3173 4.51997C2.81492 4.32351 3.36012 4.28127 3.88206 4.39874C4.40401 4.51621 4.87855 4.78796 5.24402 5.17866L8.04404 3.652C7.88504 3.02271 7.96104 2.35706 8.25778 1.7798C8.55451 1.20254 9.05158 0.753316 9.65578 0.516329C10.26 0.279342 10.93 0.270862 11.54 0.492482C12.15 0.714102 12.6583 1.15061 12.9696 1.72017C13.2808 2.28974 13.3736 2.95326 13.2306 3.58636C13.0876 4.21946 12.7186 4.77869 12.1928 5.1592C11.667 5.53972 11.0205 5.71542 10.3744 5.65332C9.72838 5.59125 9.12711 5.29567 8.68338 4.822L5.88335 6.34869C5.99084 6.77622 5.99084 7.22376 5.88335 7.65136L8.68271 9.17802C9.12644 8.70429 9.72764 8.40876 10.3738 8.34669C11.0198 8.28456 11.6664 8.46029 12.1922 8.84076C12.718 9.22129 13.087 9.78056 13.23 10.4136C13.3729 11.0468 13.2801 11.7103 12.9689 12.2798C12.6576 12.8494 12.1494 13.2859 11.5393 13.5075C10.9293 13.7292 10.2594 13.7206 9.65511 13.4837C9.05091 13.2467 8.55384 12.7974 8.25711 12.2202C7.96038 11.643 7.88438 10.9773 8.04338 10.348V10.3487ZM3.29668 8.33336C3.65031 8.33336 3.98944 8.19282 4.2395 7.94282C4.48954 7.69276 4.63002 7.35362 4.63002 7.00002C4.63002 6.64636 4.48954 6.30722 4.2395 6.05716C3.98944 5.80716 3.65031 5.66666 3.29668 5.66666C2.94306 5.66666 2.60392 5.80716 2.35388 6.05716C2.10383 6.30722 1.96335 6.64636 1.96335 7.00002C1.96335 7.35362 2.10383 7.69276 2.35388 7.94282C2.60392 8.19282 2.94306 8.33336 3.29668 8.33336ZM10.63 4.33333C10.9836 4.33333 11.3228 4.19286 11.5728 3.9428C11.8228 3.69276 11.9634 3.35362 11.9634 3C11.9634 2.64638 11.8228 2.30724 11.5728 2.05719C11.3228 1.80714 10.9836 1.66666 10.63 1.66666C10.2764 1.66666 9.93724 1.80714 9.68718 2.05719C9.43718 2.30724 9.29671 2.64638 9.29671 3C9.29671 3.35362 9.43718 3.69276 9.68718 3.9428C9.93724 4.19286 10.2764 4.33333 10.63 4.33333ZM10.63 12.3334C10.9836 12.3334 11.3228 12.1928 11.5728 11.9428C11.8228 11.6928 11.9634 11.3536 11.9634 11C11.9634 10.6464 11.8228 10.3072 11.5728 10.0572C11.3228 9.80716 10.9836 9.66669 10.63 9.66669C10.2764 9.66669 9.93724 9.80716 9.68718 10.0572C9.43718 10.3072 9.29671 10.6464 9.29671 11C9.29671 11.3536 9.43718 11.6928 9.68718 11.9428C9.93724 12.1928 10.2764 12.3334 10.63 12.3334Z" fill="#050400"/>
</svg>
