<svg width="30" height="27" viewBox="0 0 30 27" fill="none" xmlns="http://www.w3.org/2000/svg">
<g clip-path="url(#clip0_40_1127)">
<path d="M29.9879 26.4113C29.4879 24.1372 28.1903 22.0825 26.3331 20.605C24.4403 19.1043 22.0593 18.2847 19.6188 18.2847H18.9165V17.696C19.2974 17.4421 19.6308 17.1535 19.9165 16.8072C20.8569 15.7106 21.1546 14.3946 21.2379 13.4827C21.2379 13.4365 21.2379 13.3788 21.2498 13.3326C22.5355 12.7324 23.3688 11.9243 23.726 10.9201C24.1784 9.65028 23.7736 8.38051 23.345 7.53784C23.0831 7.01838 22.8927 6.45276 22.7974 5.87559C22.3688 3.42839 20.7617 1.60453 18.1427 0.6118C15.7022 -0.311672 12.9998 -0.196238 10.7141 0.935015C8.4998 2.03164 7.15456 3.79778 6.83313 6.04874C6.7617 6.56819 6.59504 7.06456 6.33313 7.53784C5.46408 9.11928 5.59504 10.2967 5.84504 11.0009C6.20218 11.9936 7.04742 12.7785 8.36885 13.3326C8.36885 13.3557 8.36885 13.3673 8.36885 13.3903C8.44028 14.3138 8.71408 15.6413 9.65456 16.7495C10.0712 17.2343 10.5593 17.6383 11.1427 17.95V18.2732H10.3808C7.92837 18.2732 5.52361 19.1043 3.63075 20.6165C1.78551 22.1287 0.487894 24.2065 -0.000201449 26.4921C-0.024011 26.6191 -0.000201453 26.746 0.0950366 26.8499C0.17837 26.9538 0.297418 27 0.42837 27L29.5474 26.9307C29.6784 26.9307 29.8093 26.873 29.8808 26.7691C29.9641 26.6652 29.9998 26.5383 29.9641 26.4113H29.9879ZM6.69027 10.7238C6.48789 10.1697 6.40456 9.24626 7.11885 7.94186C7.42837 7.38777 7.61885 6.78752 7.71408 6.17572C7.9998 4.17871 9.14266 2.67807 11.1188 1.69688C13.1784 0.68106 15.6188 0.565626 17.8212 1.40829C20.1665 2.29714 21.5474 3.85549 21.9284 6.02565C22.0474 6.68363 22.2498 7.31851 22.5593 7.91877C22.9165 8.61137 23.2617 9.65028 22.9046 10.643C22.7022 11.2202 22.2617 11.7281 21.6188 12.1552C21.6784 12.0513 21.7379 11.9474 21.7974 11.8551C22.2617 11.1625 22.8927 9.69645 21.8808 7.63018L21.8569 7.57247C21.7141 7.27234 21.6188 6.92604 21.5831 6.56819C21.5831 6.56819 21.5831 6.55665 21.5831 6.5451C21.5831 6.47584 21.5712 6.40658 21.5593 6.32578C21.5593 6.29115 21.5593 6.26806 21.5474 6.23343C21.5474 6.18726 21.5355 6.14109 21.5236 6.09491C21.5236 6.06028 21.5117 6.02565 21.4998 5.99102C21.4998 5.93331 21.476 5.87559 21.4641 5.82941C21.4522 5.7717 21.4403 5.71398 21.4165 5.65626C21.4165 5.63318 21.4165 5.61009 21.4046 5.587C21.3927 5.54083 21.3808 5.48311 21.3569 5.43694C21.3569 5.43694 21.3569 5.43694 21.3569 5.4254C21.1784 4.84823 20.8927 4.32877 20.5236 3.86704C20.5117 3.85549 20.4998 3.83241 20.4879 3.82086C20.4522 3.78623 20.4284 3.7516 20.3927 3.71697C20.3688 3.69389 20.345 3.65926 20.3212 3.63617C20.2855 3.59 20.2379 3.54382 20.2022 3.50919C20.1665 3.47456 20.1427 3.45148 20.1069 3.41685C20.095 3.4053 20.0831 3.39376 20.0712 3.38222C19.9998 3.31295 19.9403 3.25524 19.8688 3.19752C19.8212 3.16289 19.7736 3.11672 19.726 3.08209C19.6784 3.04746 19.6308 3.00128 19.5831 2.96665C17.6546 1.55836 15.0831 1.58145 14.845 1.59299C14.6188 1.59299 12.2379 1.5699 10.345 2.80505C10.345 2.80505 10.3331 2.80505 10.3212 2.81659C10.2736 2.85122 10.226 2.88585 10.1665 2.92048C10.1188 2.95511 10.0831 2.9782 10.0355 3.01283C10.0236 3.01283 10.0117 3.03591 9.9998 3.03591C9.95218 3.07054 9.91646 3.10517 9.86885 3.1398C9.86885 3.1398 9.84504 3.16289 9.83313 3.16289C9.79742 3.18598 9.7617 3.22061 9.73789 3.24369C9.73789 3.24369 9.71408 3.26678 9.70218 3.26678C9.66646 3.30141 9.63075 3.3245 9.59504 3.35913C9.53551 3.4053 9.48789 3.46302 9.44027 3.52074C9.41646 3.54382 9.40456 3.55537 9.38075 3.57845C9.34504 3.61308 9.32123 3.64771 9.28551 3.68234C9.2617 3.70543 9.23789 3.74006 9.21408 3.76315C9.19027 3.78623 9.16646 3.80932 9.15456 3.84395C9.05932 3.97093 8.96408 4.08636 8.88075 4.22488C8.88075 4.22488 8.86885 4.24797 8.85694 4.24797C8.63075 4.60581 8.44027 4.99829 8.30932 5.41385C8.29742 5.47157 8.27361 5.51774 8.2617 5.57546C8.2617 5.59855 8.2617 5.61009 8.2498 5.63318C8.23789 5.67935 8.22599 5.73707 8.21408 5.78324C8.21408 5.78324 8.21408 5.80633 8.21408 5.81787C8.19028 5.91022 8.17837 5.99102 8.15456 6.08337C8.15456 6.12954 8.14266 6.16417 8.13075 6.21035C8.13075 6.24498 8.13075 6.27961 8.11885 6.31424C8.11885 6.37195 8.10694 6.42967 8.09504 6.47584C8.09504 6.49893 8.09504 6.52202 8.09504 6.5451C8.09504 6.61437 8.08313 6.69517 8.07123 6.76443C8.05932 6.97221 7.9998 7.17999 7.90456 7.35314C7.67837 7.78025 7.39266 8.43822 7.28551 9.21163C7.15456 10.1813 7.35694 11.0586 7.89266 11.832C7.97599 11.9474 8.03551 12.0628 8.10694 12.1783C7.40456 11.7627 6.94027 11.2664 6.73789 10.6776L6.69027 10.7238ZM8.90456 7.2608C8.90456 7.09919 8.90456 6.93758 8.92837 6.78752C8.92837 6.77597 8.92837 6.76443 8.92837 6.75289C9.02361 5.62163 9.45218 4.69816 10.1903 3.99401C11.6903 2.57418 14.0831 2.4472 14.6784 2.43566C14.6784 2.43566 14.6903 2.43566 14.7022 2.43566C14.726 2.43566 14.7498 2.43566 14.7617 2.43566C14.7974 2.43566 14.8093 2.43566 14.8093 2.43566C14.8093 2.43566 14.8212 2.43566 14.8331 2.43566C14.8569 2.43566 17.7379 2.37794 19.4522 3.99401C20.3093 4.80205 20.7379 5.89867 20.7379 7.27234C20.7379 7.35314 20.7617 7.4224 20.7974 7.49166C18.4641 7.75716 16.7498 7.31851 15.6903 6.86832C14.4522 6.34887 13.8212 5.71398 13.8212 5.70244C13.7379 5.62163 13.6188 5.56392 13.4998 5.56392C13.4879 5.56392 13.476 5.56392 13.4522 5.56392C13.3212 5.57546 13.1903 5.65626 13.1188 5.76015C11.976 7.56092 9.52361 7.37623 8.88075 7.29543C8.88075 7.28388 8.88075 7.27234 8.88075 7.2608H8.90456ZM10.3569 16.2185C9.57123 15.2835 9.33313 14.1291 9.27361 13.3326C9.22599 12.6516 8.98789 11.982 8.58313 11.4049C7.7498 10.1928 8.15456 8.8307 8.4998 8.09192H8.57123C8.57123 8.09192 9.4998 8.27661 10.5831 8.14964C11.8688 7.98803 12.8927 7.46858 13.595 6.62591C13.9403 6.89141 14.5117 7.28388 15.3212 7.61864C16.2498 8.01112 17.6188 8.41514 19.4284 8.41514C19.9879 8.41514 20.595 8.3805 21.2498 8.28816C21.5712 9.06157 21.845 10.2852 21.095 11.3933C20.8569 11.7396 20.6784 12.1321 20.5474 12.5477C19.7141 14.1522 18.0831 14.1984 17.5236 14.1753C17.2974 13.7828 16.8688 13.5173 16.3808 13.5173C15.6546 13.5173 15.0712 14.0829 15.0712 14.7871C15.0712 15.4912 15.6546 16.0569 16.3808 16.0569C17.0236 16.0569 17.5593 15.6067 17.6665 15.018C17.6784 15.018 17.6903 15.018 17.7141 15.018C17.9998 15.018 18.3927 14.9949 18.8212 14.891C19.2617 14.7871 19.7736 14.5909 20.2617 14.2099C20.1188 14.8679 19.8212 15.6182 19.2736 16.2531C18.9998 16.5648 18.6903 16.8303 18.3331 17.0611C18.3093 17.0611 18.2974 17.0842 18.2736 17.0958C18.2498 17.1073 16.226 18.2732 12.9403 17.7076C11.845 17.4536 10.9879 16.9572 10.3688 16.23L10.3569 16.2185ZM14.8212 18.7465C16.0593 18.7465 17.1427 18.5502 18.0474 18.1578V19.7161C18.0474 19.8546 17.976 19.9816 17.8569 20.0624C16.8093 20.7781 15.8331 21.0205 14.9998 21.0205C13.7022 21.0205 12.7141 20.4434 12.2141 20.074C12.1069 19.9932 12.0474 19.8662 12.0474 19.7392V18.3655C12.2974 18.4233 12.5355 18.4694 12.7617 18.5156C13.3927 18.6541 14.0831 18.7234 14.8212 18.7234V18.7465ZM4.21408 21.286C5.95218 19.9008 8.15456 19.1274 10.4046 19.1274H11.1665V19.7623C11.1665 20.1548 11.3569 20.5357 11.6784 20.7781C12.1069 21.0898 12.9998 21.6554 14.1903 21.8401C14.3212 21.8632 14.4403 21.8747 14.5712 21.8863C14.5712 21.8978 14.5712 21.9209 14.5712 21.9325V26.0996C14.5712 26.0996 14.5712 26.1227 14.5712 26.1342L0.987894 26.1689C1.4998 24.2758 2.63075 22.5558 4.21408 21.2976V21.286ZM15.4522 26.1227V26.0996V21.9325C15.4522 21.9325 15.4522 21.8978 15.4522 21.8863C16.4403 21.8055 17.4165 21.4361 18.3688 20.7897C18.726 20.5472 18.9284 20.1548 18.9284 19.7507V19.1505H19.6308C21.8688 19.1505 24.0593 19.9124 25.7974 21.286C27.3688 22.5327 28.4998 24.2296 29.0236 26.1112L15.4641 26.1458L15.4522 26.1227Z" fill="#EC5325"/>
</g>
<defs>
<clipPath id="clip0_40_1127">
<rect width="30" height="27" fill="white"/>
</clipPath>
</defs>
</svg>
