<svg width="19" height="23" viewBox="0 0 19 23" fill="none" xmlns="http://www.w3.org/2000/svg">
<g clip-path="url(#clip0_307_1306)">
<path d="M13.7645 12.0061C14.9545 11.8544 16.2742 10.8547 16.6153 9.76073C16.4444 9.76073 16.277 9.76073 16.1096 9.76073C15.8252 9.76073 15.711 9.64494 15.711 9.35725C15.711 8.52655 15.711 7.69585 15.711 6.86586C15.711 6.60407 15.8315 6.48324 16.0879 6.4854C16.2385 6.48611 16.3891 6.4854 16.5411 6.4854C16.0396 3.80629 13.6188 0.901356 9.88321 0.710043C5.87517 0.504346 3.06142 3.43733 2.44852 6.48468C2.60962 6.48468 2.76723 6.48468 2.92483 6.48468C3.16859 6.48611 3.28277 6.60335 3.28347 6.85508C3.28347 7.69513 3.28347 8.53446 3.28347 9.37451C3.28347 9.63631 3.16859 9.75857 2.90942 9.76001C2.49195 9.76289 2.07377 9.76217 1.6563 9.75929C1.51901 9.75786 1.37891 9.76001 1.24513 9.73268C0.854969 9.65141 0.575485 9.29827 0.569882 8.87753C0.562877 8.38486 0.562177 7.89147 0.570582 7.39881C0.579688 6.88816 0.986656 6.48755 1.48188 6.4854C1.57014 6.4854 1.6591 6.4854 1.75156 6.4854C2.22017 4.32557 3.31359 2.59872 5.10256 1.36238C6.50559 0.392867 8.06621 -0.0508936 9.75082 0.00520574C13.4563 0.128912 16.4858 2.78788 17.271 6.50553C17.4139 6.5156 17.5603 6.51416 17.7032 6.5379C18.1437 6.6127 18.4547 6.98957 18.4568 7.44484C18.4589 7.90082 18.4582 8.35753 18.454 8.81352C18.4491 9.35293 18.0779 9.73987 17.5512 9.76001C17.3102 9.76936 17.3165 9.77152 17.2303 9.99951C17.0818 10.3908 16.8766 10.741 16.6062 11.0654C16.3029 11.43 15.9772 11.7559 15.585 12.0097C14.8173 12.5053 13.9837 12.78 13.071 12.7901C13.0038 12.7908 12.9253 12.8253 12.8714 12.8692C12.0378 13.5431 11.1069 13.9898 10.0478 14.1171C9.00413 14.2422 8.01298 14.0358 7.08907 13.5273C5.44089 12.6204 4.38879 11.2157 3.92089 9.36804C3.51182 7.75267 3.72546 6.20993 4.59123 4.78515C5.20203 3.77968 6.04748 3.03888 7.09888 2.54981C7.5976 2.3175 8.12365 2.16359 8.663 2.08592C11.06 1.74213 13.361 2.87562 14.5581 5.04623C15.1304 6.08335 15.3489 7.20606 15.241 8.39205C15.1199 9.7183 14.6274 10.8899 13.8205 11.927C13.8016 11.9508 13.7855 11.9774 13.7645 12.0076V12.0061ZM11.3682 11.6429C11.7632 11.8565 12.173 11.991 12.6094 12.0464C12.7173 12.0601 12.7894 12.032 12.8658 11.9536C13.4128 11.3869 13.8471 10.7432 14.149 10.0067C14.5434 9.04439 14.694 8.04467 14.5294 7.01115C14.3262 5.73525 13.7252 4.68231 12.7495 3.86815C11.565 2.87994 10.197 2.53399 8.69593 2.73825C8.2042 2.80514 7.7356 2.97128 7.2817 3.1892C5.35263 4.11484 4.18146 6.24949 4.43642 8.40931C4.59753 9.7744 5.1516 10.9489 6.10562 11.9126C7.53246 13.3532 9.47274 13.8538 11.3871 13.0015C11.5916 12.9102 11.7892 12.8045 12.0126 12.6937C11.8319 12.6304 11.6834 12.5851 11.5391 12.5269C11.3948 12.4686 11.2498 12.4089 11.1153 12.3312C11.0236 12.2773 10.9668 12.2866 10.8842 12.3507C10.4618 12.6779 9.88181 12.7016 9.43141 12.4211C8.99362 12.1485 8.75477 11.6127 8.83392 11.0827C8.94249 10.3527 9.68988 9.83625 10.4121 9.9952C11.1342 10.1541 11.5937 10.9115 11.3682 11.6422V11.6429ZM16.3926 9.05877C16.7954 9.05877 17.189 9.06237 17.5827 9.05661C17.6968 9.05518 17.7795 8.95448 17.7802 8.82143C17.7837 8.36616 17.7858 7.91017 17.7795 7.45491C17.7767 7.27151 17.6702 7.17945 17.486 7.17801C17.2822 7.17585 17.0776 7.17585 16.8738 7.17585C16.7155 7.17585 16.5572 7.17585 16.3926 7.17585V9.05877ZM2.60402 7.22476C2.55709 7.22188 2.51856 7.21828 2.47934 7.21828C2.15082 7.21828 1.82231 7.21756 1.49379 7.21828C1.30396 7.219 1.21851 7.29164 1.21641 7.4844C1.2101 7.93103 1.2122 8.37767 1.21781 8.82431C1.21991 8.97534 1.31657 9.05805 1.47137 9.05949C1.77327 9.06093 2.07517 9.05949 2.37707 9.06021C2.45132 9.06021 2.52487 9.06021 2.60402 9.06021V7.22476ZM10.1053 10.6684C9.76763 10.6705 9.49445 10.9518 9.49795 11.292C9.50146 11.6242 9.79075 11.9213 10.1116 11.9213C10.4471 11.9213 10.7308 11.6264 10.7252 11.2833C10.7196 10.9424 10.4415 10.6662 10.1053 10.6684Z" fill="#001D48"/>
<path d="M9.49625 22.9991C6.47936 22.9991 3.46178 22.9991 0.444893 22.9991C0.400764 22.9991 0.355935 23.0012 0.311805 22.9983C0.113575 22.9854 0.00150129 22.8696 0.000100367 22.6653C-0.0076047 20.9586 0.428082 19.3843 1.39052 17.9861C2.54838 16.3038 4.12511 15.2624 6.09061 14.8467C6.74204 14.7086 7.40397 14.7007 8.06661 14.7028C9.19995 14.7071 10.3326 14.6956 11.4659 14.7064C13.5687 14.7266 15.3738 15.4976 16.8455 17.0417C17.9571 18.2083 18.631 19.6158 18.881 21.2269C18.9511 21.68 18.9693 22.1417 18.998 22.6006C19.0162 22.8833 18.8901 22.9998 18.6008 22.9998C15.5657 22.9998 12.5306 22.9998 9.49625 22.9998V22.9991ZM0.671142 22.2993H18.3445C18.3024 21.9454 18.2765 21.6045 18.2191 21.2686C17.9466 19.6777 17.237 18.3241 16.0722 17.2374C14.7623 16.0147 13.215 15.4034 11.4407 15.4055C10.1477 15.407 8.85393 15.4062 7.56088 15.4026C6.44434 15.399 5.38174 15.6393 4.39689 16.1794C2.56239 17.1849 1.38911 18.7334 0.868672 20.8011C0.746091 21.288 0.687953 21.785 0.671142 22.3V22.2993Z" fill="#001D48"/>
<path d="M11.3676 11.6427C11.5932 10.9119 11.1337 10.1546 10.4115 9.99564C9.68935 9.83669 8.94195 10.3531 8.83338 11.0831C8.75423 11.6132 8.99379 12.1483 9.43088 12.4216C9.88057 12.7021 10.4606 12.6783 10.8836 12.3511C10.967 12.2864 11.023 12.2777 11.1148 12.3317C11.2486 12.4101 11.3943 12.4698 11.5386 12.5273C11.6829 12.5848 11.8314 12.6309 12.0121 12.6942C11.7886 12.8042 11.5904 12.9106 11.3866 13.002C9.4722 13.8543 7.53263 13.3537 6.10509 11.9131C5.15106 10.9493 4.597 9.77556 4.43589 8.40975C4.18162 6.24993 5.35209 4.11528 7.28116 3.18964C7.73506 2.97172 8.20367 2.80558 8.69539 2.73869C10.1965 2.53371 11.5645 2.88038 12.749 3.86859C13.7247 4.68203 14.3257 5.73569 14.5288 7.01159C14.6934 8.04511 14.5428 9.04483 14.1485 10.0071C13.8466 10.7436 13.4123 11.3873 12.8652 11.9541C12.7896 12.0325 12.7167 12.0612 12.6089 12.0469C12.1725 11.9915 11.7627 11.8563 11.3676 11.6434V11.6427Z" fill="#EC5325"/>
<path d="M0.670898 22.3002C0.68841 21.7852 0.746548 21.2883 0.868428 20.8014C1.38887 18.7343 2.56214 17.1851 4.39665 16.1796C5.3815 15.6395 6.4441 15.3993 7.56063 15.4029C8.85368 15.4072 10.1474 15.4079 11.4405 15.4057C13.2147 15.4036 14.7614 16.0149 16.0719 17.2376C17.2368 18.3251 17.9464 19.6779 18.2188 21.2688C18.2763 21.604 18.3022 21.9456 18.3442 22.2995H0.670898V22.3002Z" fill="#EC5325"/>
</g>
<defs>
<clipPath id="clip0_307_1306">
<rect width="19" height="23" fill="white"/>
</clipPath>
</defs>
</svg>
