<svg width="23" height="23" viewBox="0 0 23 23" fill="none" xmlns="http://www.w3.org/2000/svg">
<g clip-path="url(#clip0_195_17)">
<path d="M21.8596 10.67C21.8596 10.64 21.8396 10.62 21.8096 10.62C21.7696 10.53 21.6796 10.49 21.6096 10.42C21.4396 10.26 21.2396 10.12 21.1696 9.87997C21.1396 9.95997 21.1496 10.05 21.1896 10.13C21.1996 10.16 21.2196 10.19 21.2396 10.21C21.2696 10.25 21.2996 10.28 21.3296 10.31C21.2996 10.28 21.2696 10.24 21.2396 10.21C21.2196 10.18 21.1996 10.16 21.1896 10.13C21.1496 10.05 21.1396 9.95997 21.1696 9.87997C21.1696 9.84997 21.1696 9.80997 21.1696 9.77997C21.1596 9.71997 21.1396 9.65997 21.1396 9.59997C21.1396 9.65997 21.1496 9.71997 21.1696 9.77997C21.2296 9.65997 21.2796 9.52997 21.3396 9.40997C21.3896 9.38997 21.4096 9.35997 21.4196 9.30997C21.9796 8.69997 21.9296 8.39997 21.2096 8.07997C21.1996 8.07997 21.1796 8.07997 21.1596 8.07997C21.0196 7.98997 20.8896 7.88997 20.7496 7.79997C20.7296 7.80997 20.7096 7.81997 20.6996 7.83997C20.7096 7.82997 20.7196 7.80997 20.7496 7.79997C20.7296 7.76997 20.7196 7.74997 20.6996 7.71997C20.6296 7.52997 20.6896 7.34997 20.7596 7.16997C20.8296 6.98997 20.9196 6.80997 20.9796 6.61997C21.0796 6.28997 21.0096 6.12997 20.6896 6.00997C20.4996 5.93997 20.2996 5.88997 20.1096 5.82997C19.6896 5.69997 19.5996 5.54997 19.6596 5.11997C19.6896 4.90997 19.7396 4.69997 19.7496 4.48997C19.7696 4.16997 19.6696 4.03997 19.3496 3.99997C19.1496 3.96997 18.9396 3.96997 18.7396 3.95997C18.2696 3.91997 18.1596 3.79997 18.1296 3.32997C18.1096 3.10997 18.1296 2.87997 18.0496 2.65997C18.0196 2.41997 17.8596 2.31997 17.6396 2.33997C17.3796 2.35997 17.1096 2.40997 16.8496 2.43997C16.6396 2.46997 16.4596 2.41997 16.3296 2.24997C16.2596 2.00997 16.1896 1.76997 16.1096 1.53997C16.0596 1.39997 16.0296 1.23997 15.8796 1.14997C15.7096 0.999971 15.5396 1.08997 15.3696 1.14997C15.2096 1.19997 15.0496 1.28997 14.8896 1.34997C14.4796 1.50997 14.3296 1.44997 14.1096 1.07997C14.0296 0.949971 13.9596 0.829971 13.8796 0.699971C13.8796 0.639971 13.8496 0.589971 13.7896 0.559971C13.5996 0.259971 13.4596 0.219971 13.1596 0.409971C12.9096 0.499971 12.7396 0.709971 12.5096 0.829971C12.2496 0.969971 12.1096 0.959971 11.8996 0.749971C11.7396 0.589971 11.5996 0.409971 11.4396 0.249971C11.1596 -0.0400293 10.9596 -0.0400293 10.6796 0.249971C10.5296 0.399971 10.3996 0.569971 10.2496 0.719971C9.98962 0.979971 9.85962 0.989971 9.53962 0.809971C9.49962 0.789971 9.45962 0.769971 9.41962 0.749971C9.33962 0.659971 9.23962 0.579971 9.11962 0.529971C8.73962 0.199971 8.49962 0.229971 8.24962 0.649971C8.14962 0.829971 8.04962 1.00997 7.93962 1.17997C7.76962 1.45997 7.60962 1.50997 7.29962 1.39997C7.11962 1.33997 6.92962 1.25997 6.74962 1.18997C6.32962 1.00997 6.13962 1.08997 5.99962 1.51997C5.92962 1.74997 5.87962 1.98997 5.77962 2.21997C5.69962 2.40997 5.55962 2.49997 5.35962 2.48997C5.19962 2.48997 5.02962 2.43997 4.86962 2.47997C4.83962 2.47997 4.80962 2.47997 4.77962 2.47997C4.74962 2.44997 4.74962 2.38997 4.67962 2.41997C4.64962 2.41997 4.61962 2.40997 4.57962 2.39997C4.17962 2.36997 4.04962 2.47997 4.00962 2.85997C3.98962 3.07997 3.98962 3.29997 3.96962 3.51997C3.93962 3.83997 3.80962 3.95997 3.49962 3.99997C3.28962 4.01997 3.07962 4.02997 2.86962 4.04997C2.71962 4.06997 2.54962 4.06997 2.44962 4.21997C2.35962 4.29997 2.35962 4.39997 2.36962 4.49997C2.38962 4.71997 2.42962 4.92997 2.45962 5.14997C2.52962 5.55997 2.47962 5.66997 2.12962 5.87997C2.11962 5.87997 2.10962 5.87997 2.09962 5.87997C1.87962 5.93997 1.65962 5.97997 1.44962 6.05997C1.11962 6.17997 1.03962 6.34997 1.14962 6.67997C1.22962 6.91997 1.33962 7.13997 1.41962 7.37997C1.50962 7.62997 1.44962 7.79997 1.21962 7.94997C1.03962 8.06997 0.839621 8.15997 0.649621 8.26997C0.249621 8.50997 0.209621 8.71997 0.489621 9.08997C0.619621 9.34997 0.859621 9.54997 0.929621 9.83997C0.929621 9.86997 0.929621 9.90997 0.929621 9.93997H0.899621C0.859621 10.03 0.809621 10.12 0.769621 10.22C0.829621 10.18 0.889621 10.15 0.919621 10.1C0.889621 10.15 0.829621 10.18 0.769621 10.22H0.749621C0.599621 10.37 0.439621 10.51 0.289621 10.65C0.279621 10.65 0.269621 10.65 0.269621 10.67C0.249621 10.69 0.229621 10.71 0.209621 10.73C-0.0303795 10.96 -0.0603795 11.14 0.119621 11.35C0.289621 11.54 0.469621 11.72 0.689621 11.86V11.87H0.699621C0.979621 12.25 0.929621 12.34 0.689621 12.71C0.579621 12.88 0.449621 13.04 0.349621 13.22C0.209621 13.47 0.249621 13.62 0.479621 13.79C0.619621 13.89 0.769621 13.97 0.929621 14.05C1.47962 14.35 1.51962 14.45 1.28962 15.04C1.27962 15.07 1.26962 15.1 1.26962 15.13H1.25962V15.15C1.22962 15.2 1.18962 15.25 1.16962 15.31C0.969621 15.81 1.04962 15.99 1.56962 16.14C1.73962 16.19 1.91962 16.23 2.08962 16.29C2.38962 16.39 2.46962 16.51 2.44962 16.82C2.42962 17.09 2.36962 17.35 2.33962 17.61C2.30962 17.91 2.40962 18.04 2.70962 18.08C2.95962 18.12 3.20962 18.12 3.45962 18.14C3.77962 18.17 3.92962 18.31 3.95962 18.63C3.97962 18.85 3.98962 19.07 4.00962 19.29C4.03962 19.67 4.17962 19.79 4.55962 19.75C4.78962 19.73 5.00962 19.67 5.23962 19.65C5.58962 19.62 5.71962 19.71 5.83962 20.04C5.89962 20.23 5.94962 20.43 6.00962 20.63C6.12962 21 6.29962 21.09 6.66962 20.97C6.89962 20.89 7.11962 20.79 7.34962 20.71C7.57962 20.63 7.76962 20.68 7.89962 20.89C8.00962 21.06 8.10962 21.24 8.20962 21.42C8.47962 21.91 8.75962 21.95 9.16962 21.55C9.26962 21.49 9.36962 21.43 9.46962 21.36C9.83962 21.12 9.99962 21.14 10.2896 21.45C10.4196 21.59 10.5396 21.74 10.6696 21.87C10.9596 22.16 11.1396 22.16 11.4296 21.87C11.5996 21.7 11.7496 21.52 11.9096 21.35C12.0896 21.17 12.2996 21.15 12.5096 21.29C12.6996 21.42 12.8796 21.55 13.0696 21.68C13.4096 21.91 13.6096 21.86 13.8296 21.51C13.9596 21.29 14.0796 21.06 14.2096 20.83C14.1996 20.83 14.1896 20.83 14.1696 20.83C14.1796 20.83 14.1996 20.83 14.2096 20.83C14.2196 20.82 14.2396 20.8 14.2496 20.79C14.2696 20.78 14.2796 20.76 14.2996 20.75C14.4696 20.67 14.6496 20.68 14.8196 20.75C14.9996 20.82 15.1796 20.9 15.3596 20.97C15.7596 21.12 15.9496 21.03 16.0796 20.63C16.1296 20.47 16.1696 20.31 16.2196 20.15C16.3496 19.7 16.5096 19.59 16.9796 19.67C17.1896 19.7 17.3896 19.76 17.6096 19.76C17.9096 19.76 18.0396 19.66 18.0796 19.35C18.1096 19.15 18.1096 18.94 18.1196 18.74C18.1496 18.31 18.2796 18.17 18.7096 18.14C18.8996 18.13 19.0896 18.12 19.2696 18.1C19.6696 18.06 19.7796 17.92 19.7396 17.53C19.7196 17.34 19.6796 17.16 19.6496 16.97C19.5796 16.55 19.6896 16.37 20.0996 16.26C20.3196 16.2 20.5396 16.14 20.7496 16.06C20.9596 15.98 21.0696 15.84 20.9996 15.6C20.9996 15.57 20.9896 15.54 20.9796 15.51C20.9396 15.29 20.8196 15.1 20.7496 14.9C20.6796 14.71 20.6396 14.53 20.7396 14.33C20.9196 14.2 21.1096 14.08 21.3196 13.97C21.9296 13.66 21.9696 13.42 21.5396 12.89C21.5396 12.88 21.5096 12.87 21.4996 12.87C21.4696 12.81 21.4296 12.75 21.3996 12.69C21.1296 12.29 21.1596 12.13 21.5196 11.81C21.6696 11.68 21.8096 11.55 21.9496 11.41C22.1796 11.17 22.1696 10.97 21.8996 10.74L21.8596 10.67ZM20.6796 7.87997C20.6796 7.87997 20.6796 7.84997 20.6796 7.83997C20.6796 7.84997 20.6796 7.86997 20.6796 7.87997ZM13.7296 17.58C13.7296 17.58 13.7296 17.59 13.7296 17.6C13.7296 17.6 13.7296 17.61 13.7296 17.62C13.7296 17.62 13.7296 17.61 13.7296 17.6C13.7296 17.6 13.7296 17.59 13.7296 17.58ZM9.42962 0.859971C9.42962 0.859971 9.42962 0.829971 9.42962 0.809971C9.42962 0.829971 9.42962 0.849971 9.42962 0.859971ZM9.41962 0.779971C9.41962 0.779971 9.41962 0.729971 9.39962 0.709971C9.39962 0.709971 9.40962 0.759971 9.41962 0.779971ZM9.81962 12.47C9.91962 12.61 9.94962 12.64 10.0696 12.47C11.3996 10.59 12.7496 8.72997 14.0896 6.84997C14.3496 6.47997 14.7196 6.31997 15.1596 6.38997C15.5796 6.45997 15.8896 6.70997 16.0196 7.12997C16.1296 7.45997 16.0896 7.78997 15.8796 8.06997C14.6096 9.84997 13.3396 11.62 12.0696 13.4C11.6596 13.97 11.2596 14.54 10.8496 15.11C10.6196 15.43 10.3196 15.62 9.93962 15.62C9.52962 15.62 9.21962 15.45 8.99962 15.13C8.06962 13.75 7.12962 12.37 6.20962 10.99C5.84962 10.46 5.97962 9.78997 6.49962 9.44997C7.00962 9.10997 7.66962 9.24997 8.02962 9.77997C8.62962 10.66 9.22962 11.55 9.81962 12.44V12.47ZM0.929621 9.98997C0.929621 9.98997 0.929621 9.99997 0.929621 10.01C0.929621 10.01 0.929621 9.99997 0.929621 9.98997Z" fill="#EC5325"/>
</g>
<defs>
<clipPath id="clip0_195_17">
<rect width="22.07" height="22.05" fill="white"/>
</clipPath>
</defs>
</svg>
