<svg width="19" height="12" viewBox="0 0 19 12" fill="none" xmlns="http://www.w3.org/2000/svg">
<path d="M17.678 1.87812C17.4818 1.13906 16.9034 0.556875 16.1693 0.359375C14.8374 0 9.49992 0 9.49992 0C9.49992 0 4.16242 -5.96046e-08 2.83211 0.359062C2.09773 0.556625 1.51961 1.13875 1.32336 1.87781C0.966797 3.2175 0.966797 6.01219 0.966797 6.01219C0.966797 6.01219 0.966797 8.80719 1.32336 10.1466C1.51964 10.8856 2.09805 11.4434 2.83211 11.6409C4.16242 12 9.49992 12 9.49992 12C9.49992 12 14.8374 12 16.1687 11.6409C16.903 11.4434 17.4812 10.8856 17.6774 10.1466C18.034 8.80688 18.034 6.01219 18.034 6.01219C18.034 6.01219 18.034 3.21719 17.6774 1.87781L17.678 1.87812ZM7.75617 8.55V3.475L12.2155 6.01281L7.75617 8.55031V8.55Z" fill="#001D48"/>
</svg>
