<svg width="39" height="39" viewBox="0 0 39 39" fill="none" xmlns="http://www.w3.org/2000/svg">
<path d="M27.678 15.8781C27.4818 15.1391 26.9034 14.5569 26.1693 14.3594C24.8374 14 19.4999 14 19.4999 14C19.4999 14 14.1624 14 12.8321 14.3591C12.0977 14.5566 11.5196 15.1387 11.3234 15.8778C10.9668 17.2175 10.9668 20.0122 10.9668 20.0122C10.9668 20.0122 10.9668 22.8072 11.3234 24.1466C11.5196 24.8856 12.098 25.4434 12.8321 25.6409C14.1624 26 19.4999 26 19.4999 26C19.4999 26 24.8374 26 26.1687 25.6409C26.903 25.4434 27.4812 24.8856 27.6774 24.1466C28.034 22.8069 28.034 20.0122 28.034 20.0122C28.034 20.0122 28.034 17.2172 27.6774 15.8778L27.678 15.8781ZM17.7562 22.55V17.475L22.2155 20.0128L17.7562 22.5503V22.55Z" fill="#001D48"/>
<rect x="0.5" y="0.5" width="38" height="38" rx="19" stroke="#001D48"/>
</svg>
